<svg width="36" height="37" viewBox="0 0 36 37" fill="none" 
  xmlns="http://www.w3.org/2000/svg">
  <path d="M22.3071 19.2066C22.6976 18.8161 22.6976 18.1829 22.3071 17.7924L15.9431 11.4284C15.5526 11.0379 14.9195 11.0379 14.5289 11.4284C14.1384 11.819 14.1384 12.4521 14.5289 12.8427L20.1858 18.4995L14.5289 24.1564C14.1384 24.5469 14.1384 25.1801 14.5289 25.5706C14.9195 25.9611 15.5526 25.9611 15.9431 25.5706L22.3071 19.2066ZM8.74903e-08 19.4995L21.6 19.4995L21.6 17.4995L-8.74903e-08 17.4995L8.74903e-08 19.4995Z" fill="white"/>
  <path fill-rule="evenodd" clip-rule="evenodd" d="M34.0002 18.5C34.0002 27.6112 26.6079 35 17.4859 35C13.5759 35 9.98378 33.6425 7.15534 31.3738C6.61468 31.8038 6.04632 32.2005 5.45337 32.5608C8.68948 35.3284 12.8923 37 17.4859 37C27.711 37 36.0002 28.7173 36.0002 18.5C36.0002 8.28273 27.711 0 17.4859 0C12.8923 0 8.6895 1.67159 5.45339 4.43923C6.04634 4.79951 6.6147 5.1962 7.15536 5.62617C9.9838 3.35746 13.5759 2 17.4859 2C26.6079 2 34.0002 9.38876 34.0002 18.5Z" fill="#B82800"/>
</svg>
