<svg width="31" height="32" viewBox="0 0 31 32" fill="none" 
  xmlns="http://www.w3.org/2000/svg">
  <path d="M19.4536 17.0392C19.7908 16.702 19.7908 16.1554 19.4536 15.8183L13.9596 10.3242C13.6224 9.98702 13.0758 9.98702 12.7387 10.3242C12.4015 10.6613 12.4015 11.2079 12.7387 11.5451L17.6223 16.4287L12.7387 21.3123C12.4015 21.6495 12.4015 22.1961 12.7387 22.5333C13.0758 22.8704 13.6224 22.8704 13.9596 22.5333L19.4536 17.0392ZM0.713623 17.292L18.8432 17.292L18.8432 15.5654L0.713623 15.5654L0.713623 17.292Z" fill="#2B2B2B"/>
  <path fill-rule="evenodd" clip-rule="evenodd" d="M8.22337 28.2395C7.75765 28.6381 7.26807 29.0096 6.75708 29.3517C9.22631 31.0045 12.1957 31.9684 15.3902 31.9684C23.9725 31.9684 30.9298 25.0111 30.9298 16.4288C30.9298 7.84649 23.9725 0.88916 15.3902 0.88916C12.1957 0.88916 9.22631 1.85307 6.75708 3.50591C7.26807 3.84796 7.75765 4.21951 8.22337 4.61812C10.3128 3.34754 12.766 2.61579 15.3902 2.61579C23.0189 2.61579 29.2032 8.80008 29.2032 16.4288C29.2032 24.0575 23.0189 30.2418 15.3902 30.2418C12.766 30.2418 10.3128 29.51 8.22337 28.2395Z" fill="#B82800"/>
</svg>
