<svg width="17" height="16" viewBox="0 0 17 16" fill="none" 
  xmlns="http://www.w3.org/2000/svg">
  <path d="M2.80829 13.052C1.50784 11.6506 1.50784 9.51299 2.80829 8.1108C2.81029 8.10901 2.81229 8.10722 2.81395 8.10542L2.81362 8.10506L7.75335 2.78127C7.88323 2.64094 7.88323 2.41412 7.75335 2.27379C7.62313 2.13347 7.41233 2.13347 7.28212 2.27379L2.3374 7.60333C0.776855 9.28546 0.776854 11.8774 2.3374 13.5595C3.89827 15.2413 6.42825 15.2413 7.98912 13.5595L7.51257 13.0574C6.21145 14.4531 4.10708 14.4517 2.80829 13.052ZM5.63399 10.1411C6.15417 10.7016 6.99772 10.7016 7.5179 10.1411L11.0499 6.33465C11.1801 6.19433 11.1801 5.96751 11.0499 5.82718C10.9197 5.68685 10.7089 5.68685 10.579 5.82718L7.047 9.63322C6.78691 9.91352 6.36531 9.91352 6.10522 9.63322C5.84513 9.35329 5.84513 8.89857 6.10522 8.61828L7.047 7.60333L11.7566 2.52753L11.2857 2.02006L5.63399 8.1108C5.11381 8.67139 5.11381 9.58082 5.63399 10.1411ZM15.0532 2.02006C14.0128 0.899241 12.3261 0.899241 11.2857 2.02006L11.7569 2.52753C12.5372 1.68701 13.8024 1.68701 14.5826 2.52753C15.3629 3.36877 15.3629 4.7322 14.5826 5.57308L7.5179 13.052L7.98879 13.5595L15.0532 6.08092C16.0939 4.95938 16.0939 3.1416 15.0532 2.02006Z" fill="#2E71F0" stroke="#2E71F0" stroke-width="0.5" stroke-miterlimit="10"/>
</svg>
