<svg width="41" height="65" viewBox="0 0 41 65" fill="none" xmlns="http://www.w3.org/2000/svg">
<path d="M20.499 63.4761C20.4357 63.3715 20.3684 63.2599 20.2971 63.1416C19.7382 62.214 18.9393 60.8755 17.9805 59.2337C16.0625 55.9495 13.5061 51.4547 10.9506 46.6092C8.3939 41.7612 5.84473 36.5746 3.93677 31.9043C2.01436 27.1986 0.792683 23.1321 0.792683 20.4767C0.792683 9.60602 9.61376 0.792683 20.4989 0.792683C31.3873 0.792683 40.2072 9.605 40.2073 20.4767C40.2073 23.1321 38.9855 27.1987 37.0629 31.9044C35.1548 36.5747 32.6053 41.7612 30.0484 46.6092C27.4927 51.4547 24.936 55.9495 23.0178 59.2337C22.0588 60.8755 21.2599 62.214 20.7009 63.1416C20.6297 63.2599 20.5623 63.3714 20.499 63.4761Z" fill="#FF0000" stroke="white" stroke-width="1.58537"/>
<path d="M20.4991 4C11.3862 4 4 11.475 4 20.6964C4 29.9169 20.4992 57 20.4992 57C20.4992 57 37 29.917 37 20.6964C36.9999 11.4741 29.6146 4 20.4991 4Z" fill="white"/>
<path d="M26.2634 29.0581H21.6569L24.2419 18.6659H17.111L18.9531 19.5586L16.5762 29.0581H12L14.4662 19.1123L13.7528 18.6659L14.6743 15H29.7993L26.2634 29.0581Z" fill="#D70000"/>
</svg>
