<svg width="128" height="29" viewBox="0 0 128 29" fill="none" xmlns="http://www.w3.org/2000/svg">
<path d="M40.7446 21.9128H41.228V23.1797H41.5733L42.6437 21.9128H43.1962L41.9877 23.3509L43.2653 24.8916H42.7128L41.6079 23.5563H41.228V24.8916H40.7446V21.9128Z" fill="#868685"/>
<path d="M45.1991 21.8443C46.0968 21.8443 46.7529 22.4948 46.7529 23.4193C46.7529 24.3437 46.0968 24.9942 45.1991 24.9942C44.3013 24.9942 43.6453 24.3437 43.6453 23.4193C43.6453 22.4948 44.3013 21.8443 45.1991 21.8443ZM45.1991 24.5834C45.8206 24.5834 46.235 24.104 46.235 23.4193C46.235 22.7345 45.8206 22.2552 45.1991 22.2552C44.5776 22.2552 44.1632 22.7345 44.1632 23.4193C44.1632 24.104 44.5776 24.5834 45.1991 24.5834Z" fill="#868685"/>
<path d="M47.6506 21.9128H48.134L49.1699 23.3166L50.2403 21.9128H50.7237V24.9258H50.2749V22.5976L49.3426 23.8302H49.0318L48.0995 22.5976V24.9258H47.6506V21.9128Z" fill="#868685"/>
<path d="M51.7939 21.9128H52.2428V24.2411L53.9693 21.9128H54.4527V24.9258H54.0038V22.5976L52.2774 24.9258H51.7939V21.9128Z" fill="#868685"/>
<path d="M56.9044 21.8443C57.2842 21.8443 57.6295 21.947 57.9748 22.1867L57.7676 22.5291C57.4914 22.3579 57.2497 22.2552 56.9734 22.2552C56.3519 22.2552 55.903 22.7345 55.903 23.4193C55.903 24.104 56.3519 24.5834 56.9734 24.5834C57.2497 24.5834 57.5259 24.4807 57.7676 24.3095L57.9748 24.6519C57.6295 24.8915 57.2842 24.9942 56.9044 24.9942C56.0066 24.9942 55.3851 24.3437 55.3851 23.4193C55.3506 22.4948 56.0066 21.8443 56.9044 21.8443Z" fill="#868685"/>
<path d="M59.9773 21.8443C60.3571 21.8443 60.7024 21.947 61.0477 22.1867L60.8406 22.5291C60.5643 22.3579 60.3226 22.2552 60.0464 22.2552C59.4248 22.2552 58.976 22.7345 58.976 23.4193C58.976 24.104 59.4248 24.5834 60.0464 24.5834C60.3226 24.5834 60.5988 24.4807 60.8406 24.3095L61.0477 24.6519C60.7024 24.8915 60.3571 24.9942 59.9773 24.9942C59.0795 24.9942 58.458 24.3437 58.458 23.4193C58.458 22.4948 59.0795 21.8443 59.9773 21.8443Z" fill="#868685"/>
<path d="M61.8418 21.9128H62.2907V24.2411L64.0171 21.9128H64.5005V24.9258H64.0517V22.5976L62.3252 24.9258H61.8418V21.9128Z" fill="#868685"/>
<path d="M66.9525 21.8443C67.8503 21.8443 68.5063 22.4948 68.5063 23.4193C68.5063 24.3437 67.8503 24.9942 66.9525 24.9942C66.0547 24.9942 65.3987 24.3437 65.3987 23.4193C65.3987 22.4948 66.0547 21.8443 66.9525 21.8443ZM66.9525 24.5834C67.574 24.5834 67.9884 24.104 67.9884 23.4193C67.9884 22.7345 67.574 22.2552 66.9525 22.2552C66.331 22.2552 65.9166 22.7345 65.9166 23.4193C65.9166 24.104 66.331 24.5834 66.9525 24.5834Z" fill="#868685"/>
<path d="M69.4038 21.9128H69.8872V23.1797H71.5446V21.9128H72.028V24.9258H71.5446V23.5905H69.8872V24.9258H69.4038V21.9128Z" fill="#868685"/>
<path d="M73.1677 21.9128H73.6511V23.1797H75.3085V21.9128H75.7919V24.9258H75.3085V23.5905H73.6511V24.9258H73.1677V21.9128Z" fill="#868685"/>
<path d="M76.8967 21.9128H77.3456V23.0769H78.2779C78.8649 23.0769 79.2793 23.4536 79.2793 24.0014C79.2793 24.5492 78.8649 24.9258 78.2779 24.9258H76.8967V21.9128ZM77.3801 24.5492H78.2434C78.5887 24.5492 78.8304 24.3438 78.8304 24.0014C78.8304 23.659 78.5887 23.4536 78.2434 23.4536H77.3801V24.5492ZM80.0044 21.9128H80.4878V24.9258H80.0044V21.9128Z" fill="#868685"/>
<path d="M81.5925 21.9128H82.0414V24.241L83.7679 21.9128H84.2513V24.9258H83.8024V22.5976L82.0759 24.9258H81.5925V21.9128ZM82.3176 20.646C82.3522 20.9541 82.5939 21.1938 82.9046 21.1938C83.2499 21.1938 83.4571 20.9884 83.4916 20.646H83.8369C83.8024 21.1938 83.4226 21.5362 82.9046 21.5362C82.3867 21.5362 82.0069 21.1938 81.9723 20.646H82.3176Z" fill="#868685"/>
<path d="M87.0481 21.9128H87.5315L88.5674 23.3166L89.6378 21.9128H90.1212V24.9258H89.6723V22.5976L88.74 23.8302H88.4638L87.5315 22.5976V24.9258H87.0826L87.0481 21.9128Z" fill="#868685"/>
<path d="M92.3659 23.1112C92.5731 23.1112 92.8148 23.1454 93.0565 23.2139V22.9058C93.0565 22.5291 92.7457 22.2552 92.3314 22.2552C92.0206 22.2552 91.6753 22.3237 91.33 22.4607L91.1919 22.1183C91.6062 21.9471 91.9861 21.8786 92.4004 21.8786C93.091 21.8786 93.5744 22.2895 93.5744 22.94V24.378C93.5744 24.5492 93.678 24.6519 93.8507 24.6519C93.8852 24.6519 93.9888 24.6519 94.0233 24.6177L94.0578 24.9943C93.9542 25.0285 93.8507 25.0285 93.7471 25.0285C93.4018 25.0285 93.1946 24.8231 93.1601 24.515C92.9184 24.8231 92.5385 25.0285 92.0897 25.0285C91.5027 25.0285 91.0192 24.6519 91.0192 24.1383C90.9502 23.4536 91.5026 23.1112 92.3659 23.1112ZM92.1242 24.6519C92.6421 24.6519 93.0219 24.2753 93.0219 23.7617V23.522C92.8148 23.4878 92.6076 23.4536 92.4004 23.4536C91.8134 23.4536 91.4336 23.6932 91.4336 24.1041C91.4681 24.378 91.7444 24.6519 92.1242 24.6519Z" fill="#868685"/>
<path d="M94.7139 21.9128H96.7166V22.2895H95.1973V24.8916H94.7139V21.9128Z" fill="#868685"/>
<path d="M98.6847 23.1112C98.8919 23.1112 99.1336 23.1454 99.3753 23.2139V22.9058C99.3753 22.5291 99.0645 22.2552 98.6502 22.2552C98.3394 22.2552 97.9941 22.3237 97.6488 22.4607L97.5107 22.1183C97.9251 21.9471 98.3049 21.8786 98.7192 21.8786C99.4098 21.8786 99.8932 22.2895 99.8932 22.94V24.378C99.8932 24.5492 99.9968 24.6519 100.169 24.6519C100.204 24.6519 100.308 24.6519 100.342 24.6177L100.377 24.9943C100.273 25.0285 100.169 25.0285 100.066 25.0285C99.7206 25.0285 99.5134 24.8231 99.4789 24.515C99.2372 24.8231 98.8574 25.0285 98.4085 25.0285C97.8215 25.0285 97.3381 24.6519 97.3381 24.1383C97.3035 23.4536 97.8215 23.1112 98.6847 23.1112ZM98.4775 24.6519C98.9955 24.6519 99.3753 24.2753 99.3753 23.7617V23.522C99.1681 23.4878 98.9609 23.4536 98.7538 23.4536C98.1668 23.4536 97.7869 23.6932 97.7869 24.1041C97.7869 24.378 98.0977 24.6519 98.4775 24.6519Z" fill="#868685"/>
<path d="M101.62 23.2138H101.896C102.31 23.2138 102.587 23.0084 102.587 22.7003C102.587 22.4264 102.345 22.2209 101.965 22.2209C101.689 22.2209 101.378 22.2894 101.102 22.4264L100.964 22.084C101.344 21.9128 101.689 21.8443 102.034 21.8443C102.656 21.8443 103.07 22.1867 103.07 22.666C103.07 23.0084 102.863 23.2823 102.518 23.385C102.897 23.4877 103.174 23.7959 103.174 24.1383C103.174 24.6519 102.725 24.9942 102.069 24.9942C101.689 24.9942 101.309 24.8915 100.895 24.7203L101.033 24.3779C101.344 24.5491 101.689 24.6176 101.965 24.6176C102.38 24.6176 102.656 24.4122 102.656 24.104C102.656 23.7959 102.345 23.5562 101.896 23.5562H101.62V23.2138Z" fill="#868685"/>
<path d="M104.106 21.9128H104.555V24.2411L106.281 21.9128H106.764V24.9258H106.316V22.5976L104.589 24.9258H104.106V21.9128Z" fill="#868685"/>
<path d="M107.87 21.9128H108.353V23.1797H110.01V21.9128H110.494V24.9258H110.01V23.5905H108.353V24.9258H107.87V21.9128Z" fill="#868685"/>
<path d="M89.2236 7.49827L90.6048 8.28575L90.3976 9.07324H97.6487L96.8891 11.8808H89.638L89.0855 13.8666H97.1308L96.3712 16.6742H84.3204L86.703 7.90913L86.0124 7.49827L86.772 4.69071H98.8573L98.0976 7.49827H89.2236ZM42.6781 4.72495L41.9185 7.5325L42.6091 7.94337L40.2266 16.7084H44.2665L46.5454 8.31999L45.1642 7.5325H51.6212L49.1351 16.7084H53.175L56.4208 4.72495H42.6781ZM83.8716 12.9079C83.3191 14.9965 80.3151 16.7084 77.2074 16.7084H70.785L73.2711 7.5325L72.5805 7.12164L73.2365 4.72495H84.5276L83.768 7.5325H75.7227L77.1038 8.35423L76.8967 9.14171H79.3137C82.3868 9.10748 84.4586 10.8194 83.8716 12.9079ZM78.7267 11.915H76.137L75.5845 13.9009H78.2778C79.0029 13.7981 79.6245 13.4215 79.7626 12.9079C79.9007 12.3944 79.4518 11.9493 78.7267 11.915ZM124.789 16.6742L119.609 13.627L117.538 16.6742H113.498L116.709 11.915L115.259 11.0591H117.261L121.543 4.69071H125.583L128 16.6399H124.789V16.6742ZM123.995 12.6683L123.131 8.38847L121.301 11.0933L123.995 12.6683ZM112.289 13.9009H113.049L112.289 16.7084H97.8214L98.581 13.9009H99.3407C100.929 12.1205 102.103 9.9292 102.655 7.49827L101.93 7.12164L102.586 4.72495H114.741L112.289 13.9009ZM108.284 13.9009L110.01 7.49827H105.142L106.626 8.28575C106.592 8.42271 106.557 8.55966 106.523 8.69661C106.039 10.5797 105.245 12.2917 104.244 13.9009H108.284ZM70.9231 10.7167C69.9563 14.2432 65.8818 17.1193 61.8419 17.1193C57.7674 17.1193 55.2813 14.2432 56.2481 10.7167C57.215 7.19012 61.2894 4.31409 65.3293 4.31409C69.3693 4.31409 71.8554 7.15588 70.9231 10.7167ZM64.4316 7.56674C62.4289 7.56674 60.4262 8.97052 59.9428 10.7167C59.4594 12.4628 60.7024 13.8666 62.7051 13.8666C64.7078 13.8666 66.7105 12.4628 67.1939 10.7167C67.6428 8.97052 66.4343 7.56674 64.4316 7.56674Z" fill="#D70000"/>
<path d="M28.0723 6.10352e-05H1.13947C0.517939 6.10352e-05 0 0.513638 0 1.12993V27.836C0 28.4522 0.517939 28.9658 1.13947 28.9658H28.0723C28.6938 28.9658 29.2118 28.4522 29.2118 27.836V1.12993C29.2118 0.513638 28.7283 6.10352e-05 28.0723 6.10352e-05ZM20.8557 21.7757H15.5036L18.5077 10.614H10.2207L12.3615 11.5727L9.59914 21.7757H4.28163L7.14756 11.0933L6.31886 10.614L7.38926 6.67657H24.9647L20.8557 21.7757Z" fill="#D70000"/>
</svg>
