<svg width="178" height="38" viewBox="0 0 178 38" fill="none" 
  xmlns="http://www.w3.org/2000/svg">
  <path d="M56.5459 28.7344H57.2123V30.4034H57.7142L59.2114 28.7344H59.9554L58.2679 30.6382L60.0508 32.6721H59.2809L57.7228 30.9057H57.2123V32.6721H56.5459V28.7344Z" fill="white"/>
  <path d="M62.7454 28.6372C63.9914 28.6372 64.8826 29.4883 64.8826 30.7035C64.8826 31.9191 63.9914 32.7698 62.7454 32.7698C61.4903 32.7698 60.5991 31.9191 60.5991 30.7035C60.5991 29.4879 61.4903 28.6372 62.7454 28.6372ZM62.7454 32.2509C63.5849 32.2509 64.1822 31.6188 64.1822 30.703C64.1822 29.7954 63.5849 29.1557 62.7454 29.1557C61.8974 29.1557 61.3086 29.7958 61.3086 30.703C61.3086 31.6188 61.8974 32.2509 62.7454 32.2509Z" fill="white"/>
  <path d="M66.1504 28.7349H66.8081L68.2535 30.5821L69.7248 28.7349H70.3912V32.6726H69.7507V29.6098L68.4352 31.2465H68.0718L66.7909 29.6098V32.6726H66.1504V28.7349Z" fill="white"/>
  <path d="M71.9194 28.7349H72.5599V31.7977L74.9397 28.7349H75.606V32.6726H74.9656V29.6098L72.5772 32.6726H71.9194V28.7349Z" fill="white"/>
  <path d="M78.9898 28.6372C79.5004 28.6372 80.0023 28.7831 80.4783 29.0825L80.1926 29.5283C79.8292 29.2935 79.4654 29.1719 79.0761 29.1719C78.1935 29.1719 77.5789 29.7958 77.5789 30.703C77.5789 31.6107 78.1935 32.2428 79.0761 32.2428C79.4654 32.2428 79.8288 32.1135 80.1926 31.8787L80.4783 32.324C80.0023 32.6239 79.5004 32.7698 78.9898 32.7698C77.752 32.7698 76.8699 31.9191 76.8699 30.7035C76.8699 29.496 77.752 28.6372 78.9898 28.6372Z" fill="white"/>
  <path d="M83.2791 28.6372C83.7897 28.6372 84.2916 28.7831 84.7676 29.0825L84.4819 29.5283C84.1185 29.2935 83.7547 29.1719 83.3654 29.1719C82.4828 29.1719 81.8682 29.7958 81.8682 30.703C81.8682 31.6107 82.4828 32.2428 83.3654 32.2428C83.7547 32.2428 84.1181 32.1135 84.4819 31.8787L84.7676 32.324C84.2916 32.6239 83.7897 32.7698 83.2791 32.7698C82.0413 32.7698 81.1592 31.9191 81.1592 30.7035C81.1587 29.496 82.0413 28.6372 83.2791 28.6372Z" fill="white"/>
  <path d="M85.8599 28.7349H86.4999V31.7977L88.8796 28.7349H89.546V32.6726H88.9055V29.6098L86.5166 32.6726H85.8594V28.7349H85.8599Z" fill="white"/>
  <path d="M92.9554 28.6372C94.2018 28.6372 95.093 29.4883 95.093 30.7035C95.093 31.9191 94.2018 32.7698 92.9554 32.7698C91.7008 32.7698 90.8091 31.9191 90.8091 30.7035C90.8096 29.4879 91.7008 28.6372 92.9554 28.6372ZM92.9554 32.2509C93.7948 32.2509 94.3921 31.6188 94.3921 30.703C94.3921 29.7954 93.7948 29.1557 92.9554 29.1557C92.1073 29.1557 91.5191 29.7958 91.5191 30.703C91.5191 31.6188 92.1078 32.2509 92.9554 32.2509Z" fill="white"/>
  <path d="M96.3611 28.7349H97.0452V30.412H99.3554V28.7349H100.048V32.6726H99.3554V30.9224H97.0452V32.6726H96.3611V28.7349Z" fill="white"/>
  <path d="M101.572 28.7349H102.256V30.412H104.567V28.7349H105.259V32.6726H104.567V30.9224H102.256V32.6726H101.572V28.7349Z" fill="white"/>
  <path d="M106.784 28.7349H107.424V30.258H108.705C109.51 30.258 110.09 30.7442 110.09 31.4655C110.09 32.1784 109.519 32.6726 108.714 32.6726H106.784V28.7349H106.784ZM107.424 32.1869H108.61C109.103 32.1869 109.441 31.8956 109.441 31.466C109.441 31.0364 109.094 30.7446 108.61 30.7446H107.424V32.1869ZM111.085 28.7349H111.751V32.6726H111.085V28.7349Z" fill="white"/>
  <path d="M113.284 28.7345H113.925V31.7974L116.304 28.7345H116.971V32.6723H116.331V29.6094L113.942 32.6723H113.285V28.7345H113.284ZM114.27 27.0493C114.305 27.4704 114.634 27.7541 115.093 27.7541C115.551 27.7541 115.881 27.4704 115.915 27.0493H116.373C116.348 27.7541 115.811 28.2079 115.093 28.2079C114.374 28.2079 113.838 27.7541 113.812 27.0493H114.27Z" fill="white"/>
  <path d="M120.836 28.7349H121.494L122.94 30.5821L124.41 28.7349H125.077V32.6726H124.437V29.6098L123.121 31.2465H122.758L121.477 29.6098V32.6726H120.836V28.7349Z" fill="white"/>
  <path d="M128.219 30.282C128.513 30.282 128.833 30.3143 129.163 30.3956V29.9907C129.163 29.4883 128.747 29.1315 128.133 29.1315C127.683 29.1315 127.224 29.2289 126.74 29.4232L126.55 28.9532C127.138 28.7423 127.675 28.6372 128.211 28.6372C129.163 28.6372 129.821 29.1885 129.821 30.0068V31.9106C129.821 32.1297 129.959 32.2675 130.202 32.2675C130.271 32.2675 130.374 32.2513 130.426 32.2428L130.478 32.7289C130.34 32.7536 130.184 32.7698 130.028 32.7698C129.569 32.7698 129.275 32.5184 129.223 32.1135C128.886 32.5265 128.341 32.7698 127.761 32.7698C126.93 32.7698 126.298 32.259 126.298 31.5865C126.298 30.7601 127.025 30.282 128.219 30.282ZM127.925 32.2998C128.652 32.2998 129.163 31.8136 129.163 31.1165V30.7843C128.868 30.7192 128.583 30.6869 128.297 30.6869C127.466 30.6869 126.973 31.0115 126.973 31.5461C126.973 31.9752 127.38 32.2998 127.925 32.2998Z" fill="white"/>
  <path d="M131.515 28.7349H134.284V29.2453H132.198V32.6731H131.514V28.7349H131.515Z" fill="white"/>
  <path d="M137.031 30.282C137.325 30.282 137.645 30.3143 137.974 30.3956V29.9907C137.974 29.4883 137.559 29.1315 136.945 29.1315C136.495 29.1315 136.036 29.2289 135.551 29.4232L135.361 28.9532C135.95 28.7423 136.486 28.6372 137.023 28.6372C137.975 28.6372 138.632 29.1885 138.632 30.0068V31.9106C138.632 32.1297 138.771 32.2675 139.013 32.2675C139.083 32.2675 139.186 32.2513 139.238 32.2428L139.29 32.7289C139.152 32.7536 138.996 32.7698 138.84 32.7698C138.381 32.7698 138.087 32.5184 138.035 32.1135C137.698 32.5265 137.153 32.7698 136.573 32.7698C135.742 32.7698 135.11 32.259 135.11 31.5865C135.109 30.7601 135.837 30.282 137.031 30.282ZM136.736 32.2998C137.464 32.2998 137.974 31.8136 137.974 31.1165V30.7843C137.68 30.7192 137.394 30.6869 137.108 30.6869C136.278 30.6869 135.784 31.0115 135.784 31.5461C135.784 31.9752 136.191 32.2998 136.736 32.2998Z" fill="white"/>
  <path d="M141.099 30.4521H141.497C142.086 30.4521 142.466 30.1769 142.466 29.7882C142.466 29.4071 142.137 29.1476 141.609 29.1476C141.237 29.1476 140.813 29.245 140.389 29.4232L140.181 28.9532C140.726 28.7423 141.211 28.6372 141.687 28.6372C142.561 28.6372 143.132 29.0749 143.132 29.7146C143.132 30.1442 142.838 30.5253 142.354 30.6465C142.899 30.7762 143.244 31.1892 143.244 31.6511C143.244 32.3074 142.604 32.7693 141.687 32.7693C141.177 32.7693 140.631 32.6481 140.077 32.421L140.285 31.9591C140.727 32.1615 141.185 32.2675 141.6 32.2675C142.171 32.2675 142.57 31.9919 142.57 31.5865C142.57 31.1731 142.146 30.8651 141.497 30.8651H141.099V30.4521Z" fill="white"/>
  <path d="M144.535 28.7349H145.175V31.7977L147.555 28.7349H148.222V32.6726H147.581V29.6098L145.193 32.6726H144.535V28.7349H144.535Z" fill="white"/>
  <path d="M149.746 28.7349H150.43V30.412H152.74V28.7349H153.433V32.6726H152.74V30.9224H150.43V32.6726H149.746V28.7349Z" fill="white"/>
  <path d="M123.877 9.83729L125.813 10.8864L125.513 11.9355H135.581L134.531 15.6003H124.469L123.72 18.2142H134.879L133.827 21.8773L117.076 21.8822L117.079 21.8773H117.076L120.374 10.3661L119.406 9.83773L120.451 6.1747H137.228L136.182 9.83773H123.877V9.83729ZM59.2351 6.17425L58.1852 9.83729L59.154 10.3787L55.8577 21.8822H61.4513L64.5967 10.8864L62.6628 9.83729H71.6209L68.1721 21.8822H73.7629L78.2588 6.17425H59.2351ZM116.46 16.916C115.67 19.6561 111.535 21.8818 107.225 21.8818H107.217V21.8768L98.2787 21.8818L101.725 9.83684L100.753 9.31298L101.655 6.1738H117.315L116.266 9.83684H105.079L107.01 10.9133L106.716 11.9355H110.086L110.089 11.9417C114.4 11.9417 117.249 14.1696 116.46 16.916ZM109.282 15.6003H105.666L104.919 18.2142H108.659C109.66 18.1007 110.547 17.5647 110.735 16.916C110.933 16.2341 110.293 15.6802 109.282 15.6003ZM173.262 21.8822L166.056 17.8821L163.201 21.8822H157.607L162.048 15.6613L160.057 14.5512H162.843L168.805 6.21286H174.4L177.737 21.8822H173.262ZM172.145 16.613L170.96 11.0193L168.431 14.5512L172.145 16.613ZM155.914 18.2142H156.97L155.922 21.8773H135.859L136.908 18.2142H137.979C140.182 15.8575 141.791 12.9976 142.578 9.83729L141.594 9.33137L142.496 6.17425H159.353L155.914 18.2142ZM150.317 18.2142L152.716 9.83729H145.947L148.018 10.8864C147.979 11.0637 147.935 11.2392 147.884 11.4102C147.214 13.8568 146.134 16.1435 144.72 18.2142H150.317ZM98.4493 14.0417C97.1195 18.6869 91.473 22.4519 85.8463 22.4519C80.2133 22.4519 76.7338 18.6869 78.0608 14.0417C79.3945 9.40141 85.039 5.63916 90.67 5.63916C96.2973 5.63916 99.7835 9.40141 98.4493 14.0417ZM89.4456 9.90104C86.6699 9.90104 83.8884 11.7581 83.2311 14.0417C82.5748 16.3302 84.2935 18.1905 87.0659 18.1905C89.8445 18.1905 92.626 16.3302 93.2842 14.0417C93.9372 11.7581 92.2219 9.90104 89.4456 9.90104Z" fill="white"/>
  <path d="M38.9894 0H1.59257C0.717663 0 0.00671113 0.664378 0.000958281 1.48362C0.000958281 1.48677 0 1.48856 0 1.49171C0 1.49485 0.000958281 1.49664 0.000958281 1.49664V36.515C0.00671113 37.3356 0.718142 38 1.59257 38H38.9894C39.8677 38 40.5815 37.3329 40.5815 36.5105V1.49171C40.581 0.669319 39.8677 0 38.9894 0ZM28.945 28.5529H21.5262L25.7186 13.902H14.2009L17.1756 15.1765L13.3452 28.5529H5.92686L9.92941 14.5565L8.75966 13.9016L10.2372 8.71993H34.6153L28.945 28.5529Z" fill="white"/>
</svg>
