<svg width="222" height="52" viewBox="0 0 222 52" fill="none" xmlns="http://www.w3.org/2000/svg">
<g clip-path="url(#clip0)">
<path d="M70.4551 38.8678H71.291V41.0811H71.888L73.7389 38.8678H74.6942L72.6045 41.3802L74.8137 44.072H73.8584L71.9477 41.7391H71.291V44.072H70.4551V38.8678Z" fill="#868685"/>
<path d="M78.1575 38.7478C79.7099 38.7478 80.8443 39.8844 80.8443 41.4995C80.8443 43.1146 79.7099 44.2511 78.1575 44.2511C76.6051 44.2511 75.4707 43.1146 75.4707 41.4995C75.4707 39.8844 76.6051 38.7478 78.1575 38.7478ZM78.1575 43.5333C79.2322 43.5333 79.9487 42.6959 79.9487 41.4995C79.9487 40.3031 79.2322 39.4656 78.1575 39.4656C77.0828 39.4656 76.3663 40.3031 76.3663 41.4995C76.3663 42.6959 77.0828 43.5333 78.1575 43.5333Z" fill="#868685"/>
<path d="M82.396 38.8678H83.2319L85.0231 41.3204L86.874 38.8678H87.7099V44.1319H86.9337V40.0642L85.3216 42.2177H84.7843L83.1722 40.0642V44.1319H82.396V38.8678Z" fill="#868685"/>
<path d="M89.561 38.8678H90.3372V42.9355L93.3226 38.8678H94.1585V44.1319H93.3823V40.0642L90.3969 44.1319H89.561V38.8678Z" fill="#868685"/>
<path d="M98.3979 38.7478C99.0547 38.7478 99.6518 38.9273 100.249 39.346L99.8906 39.9442C99.4129 39.6451 98.995 39.4656 98.5173 39.4656C97.4426 39.4656 96.6664 40.3031 96.6664 41.4995C96.6664 42.6959 97.4426 43.5333 98.5173 43.5333C98.995 43.5333 99.4726 43.3539 99.8906 43.0548L100.249 43.653C99.6518 44.0717 99.0547 44.2511 98.3979 44.2511C96.8455 44.2511 95.7708 43.1146 95.7708 41.4995C95.7111 39.8844 96.8455 38.7478 98.3979 38.7478Z" fill="#868685"/>
<path d="M103.711 38.7478C104.368 38.7478 104.965 38.9273 105.562 39.346L105.204 39.9442C104.726 39.6451 104.308 39.4656 103.831 39.4656C102.756 39.4656 101.98 40.3031 101.98 41.4995C101.98 42.6959 102.756 43.5333 103.831 43.5333C104.308 43.5333 104.786 43.3539 105.204 43.0548L105.562 43.653C104.965 44.0717 104.368 44.2511 103.711 44.2511C102.159 44.2511 101.084 43.1146 101.084 41.4995C101.084 39.8844 102.159 38.7478 103.711 38.7478Z" fill="#868685"/>
<path d="M106.936 38.8678H107.712V42.9355L110.698 38.8678H111.534V44.1319H110.758V40.0642L107.772 44.1319H106.936V38.8678Z" fill="#868685"/>
<path d="M115.772 38.7478C117.325 38.7478 118.459 39.8844 118.459 41.4995C118.459 43.1146 117.325 44.2511 115.772 44.2511C114.22 44.2511 113.086 43.1146 113.086 41.4995C113.086 39.8844 114.22 38.7478 115.772 38.7478ZM115.772 43.5333C116.847 43.5333 117.564 42.6959 117.564 41.4995C117.564 40.3031 116.847 39.4656 115.772 39.4656C114.698 39.4656 113.981 40.3031 113.981 41.4995C113.981 42.6959 114.698 43.5333 115.772 43.5333Z" fill="#868685"/>
<path d="M120.012 38.8678H120.848V41.0811H123.714V38.8678H124.55V44.1319H123.714V41.7989H120.848V44.1319H120.012V38.8678Z" fill="#868685"/>
<path d="M126.52 38.8678H127.356V41.0811H130.222V38.8678H131.057V44.1319H130.222V41.7989H127.356V44.1319H126.52V38.8678Z" fill="#868685"/>
<path d="M132.969 38.8678H133.745V40.9016H135.357C136.372 40.9016 137.089 41.5596 137.089 42.5168C137.089 43.4739 136.372 44.1319 135.357 44.1319H132.969V38.8678ZM133.805 43.4739H135.297C135.894 43.4739 136.312 43.1149 136.312 42.5168C136.312 41.9186 135.894 41.5597 135.297 41.5597H133.805V43.4739ZM138.342 38.8678H139.178V44.1319H138.342V38.8678Z" fill="#868685"/>
<path d="M141.088 38.8672H141.865V42.9349L144.85 38.8672H145.686V44.1313H144.91V40.0636L141.924 44.1313H141.088V38.8672ZM142.342 36.6539C142.402 37.1923 142.82 37.611 143.357 37.611C143.954 37.611 144.313 37.2521 144.372 36.6539H144.969C144.91 37.611 144.253 38.2092 143.357 38.2092C142.462 38.2092 141.805 37.611 141.745 36.6539H142.342Z" fill="#868685"/>
<path d="M150.522 38.8678H151.358L153.149 41.3204L155 38.8678H155.836V44.1319H155.06V40.0642L153.448 42.2177H152.97L151.358 40.0642V44.1319H150.582L150.522 38.8678Z" fill="#868685"/>
<path d="M159.717 40.9607C160.075 40.9607 160.493 41.0206 160.911 41.1402V40.6018C160.911 39.9438 160.374 39.4653 159.657 39.4653C159.12 39.4653 158.523 39.5849 157.926 39.8242L157.687 39.226C158.403 38.9269 159.06 38.8073 159.777 38.8073C160.971 38.8073 161.807 39.5251 161.807 40.6616V43.174C161.807 43.4731 161.986 43.6526 162.284 43.6526C162.344 43.6526 162.523 43.6526 162.583 43.5928L162.643 44.2508C162.464 44.3106 162.284 44.3106 162.105 44.3106C161.508 44.3106 161.15 43.9517 161.09 43.4133C160.672 43.9517 160.016 44.3106 159.239 44.3106C158.224 44.3106 157.388 43.6526 157.388 42.7553C157.269 41.5589 158.224 40.9607 159.717 40.9607ZM159.299 43.6526C160.195 43.6526 160.851 42.9946 160.851 42.0973V41.6786C160.493 41.6187 160.135 41.5589 159.777 41.5589C158.762 41.5589 158.105 41.9777 158.105 42.6955C158.165 43.174 158.642 43.6526 159.299 43.6526Z" fill="#868685"/>
<path d="M163.777 38.8678H167.24V39.5258H164.613V44.072H163.777V38.8678Z" fill="#868685"/>
<path d="M170.643 40.9607C171.001 40.9607 171.419 41.0206 171.837 41.1402V40.6018C171.837 39.9438 171.3 39.4653 170.583 39.4653C170.046 39.4653 169.449 39.5849 168.852 39.8242L168.613 39.226C169.329 38.9269 169.986 38.8073 170.703 38.8073C171.897 38.8073 172.733 39.5251 172.733 40.6616V43.174C172.733 43.4731 172.912 43.6526 173.21 43.6526C173.27 43.6526 173.449 43.6526 173.509 43.5928L173.569 44.2508C173.389 44.3106 173.21 44.3106 173.031 44.3106C172.434 44.3106 172.076 43.9517 172.016 43.4133C171.598 43.9517 170.941 44.3106 170.165 44.3106C169.15 44.3106 168.314 43.6526 168.314 42.7553C168.255 41.5589 169.15 40.9607 170.643 40.9607ZM170.285 43.6526C171.18 43.6526 171.837 42.9946 171.837 42.0973V41.6786C171.479 41.6187 171.121 41.5589 170.762 41.5589C169.747 41.5589 169.091 41.9777 169.091 42.6955C169.091 43.174 169.628 43.6526 170.285 43.6526Z" fill="#868685"/>
<path d="M175.718 41.1406H176.195C176.912 41.1406 177.389 40.7816 177.389 40.2433C177.389 39.7647 176.972 39.4058 176.315 39.4058C175.837 39.4058 175.3 39.5254 174.822 39.7647L174.583 39.1665C175.24 38.8674 175.837 38.7478 176.434 38.7478C177.509 38.7478 178.225 39.346 178.225 40.1835C178.225 40.7816 177.867 41.2602 177.27 41.4397C177.927 41.6191 178.404 42.1575 178.404 42.7557C178.404 43.653 177.628 44.2511 176.494 44.2511C175.837 44.2511 175.18 44.0717 174.464 43.7726L174.703 43.1744C175.24 43.4735 175.837 43.5931 176.315 43.5931C177.031 43.5931 177.509 43.2342 177.509 42.6959C177.509 42.1575 176.972 41.7388 176.195 41.7388H175.718V41.1406Z" fill="#868685"/>
<path d="M180.017 38.8678H180.794V42.9355L183.779 38.8678H184.615V44.1319H183.839V40.0642L180.853 44.1319H180.017V38.8678Z" fill="#868685"/>
<path d="M186.525 38.8678H187.361V41.0811H190.227V38.8678H191.062V44.1319H190.227V41.7989H187.361V44.1319H186.525V38.8678Z" fill="#868685"/>
<path d="M154.283 13.6841L156.671 15.06L156.313 16.4358H168.852L167.538 21.341H155L154.044 24.8105H167.956L166.642 29.7156H145.805L149.925 14.402L148.73 13.6841L150.044 8.77898H170.941L169.628 13.6841H154.283ZM73.7983 8.8388L72.4847 13.744L73.6789 14.4618L69.5591 29.7754H76.5448L80.4854 15.1198L78.0972 13.744H89.2623L84.9635 29.7754H91.9492L97.5616 8.8388H73.7983ZM145.029 23.1355C144.073 26.7845 138.879 29.7754 133.505 29.7754H122.4L126.699 13.744L125.504 13.0261L126.639 8.8388H146.163L144.849 13.744H130.938L133.326 15.1796L132.968 16.5554H137.147C142.461 16.4956 146.044 19.4866 145.029 23.1355ZM136.132 21.4008H131.654L130.699 24.8703H135.356C136.61 24.6908 137.685 24.0328 137.923 23.1355C138.162 22.2382 137.386 21.4606 136.132 21.4008ZM215.781 29.7156L206.825 24.3917L203.243 29.7156H196.257L201.81 21.4008L199.302 19.9053H202.765L210.169 8.77898H217.154L221.334 29.6558H215.781V29.7156ZM214.408 22.7168L212.915 15.2394L209.751 19.9651L214.408 22.7168ZM194.167 24.8703H195.481L194.167 29.7754H169.15L170.464 24.8703H171.777C174.524 21.7597 176.554 17.9313 177.509 13.6841L176.255 13.0261L177.39 8.8388H198.406L194.167 24.8703ZM187.241 24.8703L190.227 13.6841H181.808L184.375 15.06C184.316 15.2992 184.256 15.5385 184.196 15.7778C183.36 19.0678 181.987 22.0588 180.256 24.8703H187.241ZM122.638 19.3071C120.967 25.4685 113.921 30.4933 106.936 30.4933C99.8902 30.4933 95.5913 25.4685 97.2631 19.3071C98.9349 13.1458 105.98 8.12097 112.966 8.12097C119.952 8.12097 124.251 13.0859 122.638 19.3071ZM111.414 13.8038C107.951 13.8038 104.488 16.2564 103.652 19.3071C102.816 22.3579 104.965 24.8105 108.428 24.8105C111.891 24.8105 115.354 22.3579 116.19 19.3071C116.966 16.2564 114.877 13.8038 111.414 13.8038Z" fill="#D70000"/>
<path d="M48.5417 0.583008H1.97033C0.895603 0.583008 0 1.48029 0 2.55703V49.2158C0 50.2926 0.895603 51.1898 1.97033 51.1898H48.5417C49.6164 51.1898 50.512 50.2926 50.512 49.2158V2.55703C50.512 1.48029 49.6761 0.583008 48.5417 0.583008ZM36.0629 38.6279H26.8084L32.0029 19.1269H17.6732L21.3751 20.8018L16.5985 38.6279H7.40365L12.3593 19.9644L10.9264 19.1269L12.7773 12.2477H43.1681L36.0629 38.6279Z" fill="#D70000"/>
</g>
<defs>
<clipPath id="clip0">
<rect y="0.583008" width="221.333" height="50.6667" fill="white"/>
</clipPath>
</defs>
</svg>
