<svg width="129" height="27" viewBox="0 0 129 27" fill="none" xmlns="http://www.w3.org/2000/svg">
<path d="M41.041 20.4165H41.5247V21.6024H41.889L42.9756 20.4165H43.5156L42.2908 21.7692L43.5849 23.2144H43.026L41.8952 21.9593H41.5247V23.2144H41.041V20.4165V20.4165Z" fill="white"/>
<path d="M45.5412 20.3477C46.4455 20.3477 47.0923 20.9524 47.0923 21.8158C47.0923 22.6795 46.4455 23.284 45.5412 23.284C44.6302 23.284 43.9834 22.6795 43.9834 21.8158C43.9834 20.9521 44.6302 20.3477 45.5412 20.3477ZM45.5412 22.9153C46.1504 22.9153 46.5839 22.4662 46.5839 21.8155C46.5839 21.1706 46.1504 20.7161 45.5412 20.7161C44.9256 20.7161 44.4984 21.1709 44.4984 21.8155C44.4984 22.4662 44.9256 22.9153 45.5412 22.9153Z" fill="white"/>
<path d="M48.0117 20.417H48.4891L49.5382 21.7295L50.606 20.417H51.0896V23.2149H50.6248V21.0386L49.67 22.2016H49.4063L48.4766 21.0386V23.2149H48.0117V20.417V20.417Z" fill="white"/>
<path d="M52.1992 20.417H52.6641V22.5932L54.3913 20.417H54.8749V23.2149H54.4101V21.0386L52.6766 23.2149H52.1992V20.417V20.417Z" fill="white"/>
<path d="M57.3306 20.3477C57.7012 20.3477 58.0655 20.4513 58.411 20.6641L58.2036 20.9808C57.9399 20.814 57.6758 20.7275 57.3932 20.7275C56.7527 20.7275 56.3066 21.1709 56.3066 21.8155C56.3066 22.4604 56.7527 22.9095 57.3932 22.9095C57.6758 22.9095 57.9395 22.8177 58.2036 22.6508L58.411 22.9673C58.0655 23.1803 57.7012 23.284 57.3306 23.284C56.4322 23.284 55.792 22.6795 55.792 21.8158C55.792 20.9578 56.4322 20.3477 57.3306 20.3477Z" fill="white"/>
<path d="M60.4439 20.3477C60.8145 20.3477 61.1787 20.4513 61.5243 20.6641L61.3169 20.9808C61.0531 20.814 60.7891 20.7275 60.5065 20.7275C59.8659 20.7275 59.4199 21.1709 59.4199 21.8155C59.4199 22.4604 59.8659 22.9095 60.5065 22.9095C60.7891 22.9095 61.0528 22.8177 61.3169 22.6508L61.5243 22.9673C61.1787 23.1803 60.8145 23.284 60.4439 23.284C59.5455 23.284 58.9053 22.6795 58.9053 21.8158C58.9049 20.9578 59.5455 20.3477 60.4439 20.3477Z" fill="white"/>
<path d="M62.3168 20.417H62.7813V22.5932L64.5085 20.417H64.9921V23.2149H64.5273V21.0386L62.7934 23.2149H62.3164V20.417H62.3168Z" fill="white"/>
<path d="M67.466 20.3477C68.3706 20.3477 69.0174 20.9524 69.0174 21.8158C69.0174 22.6795 68.3706 23.284 67.466 23.284C66.5554 23.284 65.9082 22.6795 65.9082 21.8158C65.9086 20.9521 66.5554 20.3477 67.466 20.3477ZM67.466 22.9153C68.0752 22.9153 68.5088 22.4662 68.5088 21.8155C68.5088 21.1706 68.0752 20.7161 67.466 20.7161C66.8504 20.7161 66.4235 21.1709 66.4235 21.8155C66.4235 22.4662 66.8508 22.9153 67.466 22.9153Z" fill="white"/>
<path d="M69.9385 20.417H70.435V21.6086H72.1117V20.417H72.6142V23.2149H72.1117V21.9713H70.435V23.2149H69.9385V20.417Z" fill="white"/>
<path d="M73.7207 20.417H74.2172V21.6086H75.894V20.417H76.3964V23.2149H75.894V21.9713H74.2172V23.2149H73.7207V20.417Z" fill="white"/>
<path d="M77.5029 20.417H77.9678V21.4992H78.8975C79.4817 21.4992 79.9024 21.8446 79.9024 22.3572C79.9024 22.8637 79.488 23.2149 78.9038 23.2149H77.5033V20.417H77.5029ZM77.9678 22.8698H78.8283C79.1863 22.8698 79.4312 22.6628 79.4312 22.3575C79.4312 22.0523 79.18 21.845 78.8283 21.845H77.9678V22.8698ZM80.6247 20.417H81.1083V23.2149H80.6247V20.417Z" fill="white"/>
<path d="M82.2209 20.4166H82.6858V22.5928L84.413 20.4166H84.897V23.2145H84.4321V21.0382L82.6987 23.2145H82.2213V20.4166H82.2209ZM82.9367 19.2192C82.9617 19.5184 83.2008 19.72 83.5338 19.72C83.8664 19.72 84.1054 19.5184 84.1305 19.2192H84.4631C84.4443 19.72 84.055 20.0425 83.5338 20.0425C83.0122 20.0425 82.6228 19.72 82.604 19.2192H82.9367Z" fill="white"/>
<path d="M87.7031 20.417H88.1805L89.2296 21.7295L90.2971 20.417H90.7811V23.2149H90.3162V21.0386L89.3614 22.2016H89.0977L88.168 21.0386V23.2149H87.7031V20.417V20.417Z" fill="white"/>
<path d="M93.0606 21.5163C93.2739 21.5163 93.5063 21.5393 93.7453 21.597V21.3093C93.7453 20.9524 93.4437 20.6988 92.998 20.6988C92.6712 20.6988 92.3382 20.768 91.9868 20.9062L91.8487 20.5722C92.2756 20.4223 92.6653 20.3477 93.0547 20.3477C93.7457 20.3477 94.2227 20.7393 94.2227 21.3208V22.6735C94.2227 22.8291 94.3233 22.9271 94.4993 22.9271C94.5498 22.9271 94.6246 22.9156 94.6625 22.9095L94.7001 23.2549C94.5999 23.2725 94.4868 23.284 94.3734 23.284C94.0404 23.284 93.8271 23.1054 93.7892 22.8177C93.5442 23.1111 93.1486 23.284 92.7276 23.284C92.125 23.284 91.666 22.921 91.666 22.4432C91.666 21.856 92.1938 21.5163 93.0606 21.5163ZM92.8469 22.95C93.3748 22.95 93.7453 22.6046 93.7453 22.1093V21.8732C93.5317 21.827 93.3243 21.804 93.117 21.804C92.514 21.804 92.1559 22.0346 92.1559 22.4145C92.1559 22.7194 92.4513 22.95 92.8469 22.95Z" fill="white"/>
<path d="M95.4525 20.417H97.4622V20.7796H95.9487V23.2152H95.4521V20.417H95.4525Z" fill="white"/>
<path d="M99.4567 21.5163C99.67 21.5163 99.9024 21.5393 100.141 21.597V21.3093C100.141 20.9524 99.8398 20.6988 99.3941 20.6988C99.0677 20.6988 98.7347 20.768 98.383 20.9062L98.2448 20.5722C98.6721 20.4223 99.0615 20.3477 99.4508 20.3477C100.142 20.3477 100.619 20.7393 100.619 21.3208V22.6735C100.619 22.8291 100.719 22.9271 100.895 22.9271C100.946 22.9271 101.021 22.9156 101.059 22.9095L101.096 23.2549C100.996 23.2725 100.883 23.284 100.77 23.284C100.437 23.284 100.224 23.1054 100.186 22.8177C99.9407 23.1111 99.5451 23.284 99.1241 23.284C98.5214 23.284 98.0625 22.921 98.0625 22.4432C98.0622 21.856 98.59 21.5163 99.4567 21.5163ZM99.2431 22.95C99.7709 22.95 100.141 22.6046 100.141 22.1093V21.8732C99.9278 21.827 99.7205 21.804 99.5131 21.804C98.9104 21.804 98.5521 22.0346 98.5521 22.4145C98.5521 22.7194 98.8475 22.95 99.2431 22.95Z" fill="white"/>
<path d="M102.408 21.6372H102.697C103.125 21.6372 103.4 21.4417 103.4 21.1655C103.4 20.8947 103.162 20.7103 102.779 20.7103C102.509 20.7103 102.201 20.7795 101.893 20.9062L101.742 20.5722C102.138 20.4223 102.49 20.3477 102.835 20.3477C103.469 20.3477 103.884 20.6586 103.884 21.1132C103.884 21.4184 103.671 21.6892 103.319 21.7753C103.715 21.8675 103.966 22.1609 103.966 22.4891C103.966 22.9554 103.501 23.2836 102.835 23.2836C102.465 23.2836 102.069 23.1975 101.667 23.0361L101.818 22.7079C102.138 22.8518 102.471 22.9271 102.772 22.9271C103.187 22.9271 103.476 22.7312 103.476 22.4432C103.476 22.1494 103.168 21.9306 102.697 21.9306H102.408V21.6372V21.6372Z" fill="white"/>
<path d="M104.902 20.417H105.367V22.5932L107.094 20.417H107.578V23.2149H107.114V21.0386L105.38 23.2149H104.903V20.417H104.902Z" fill="white"/>
<path d="M108.685 20.417H109.181V21.6086H110.858V20.417H111.36V23.2149H110.858V21.9713H109.181V23.2149H108.685V20.417Z" fill="white"/>
<path d="M89.909 6.98948L91.314 7.73488L91.0958 8.48027H98.4034L97.6411 11.0842H90.3387L89.7945 12.9415H97.894L97.1303 15.5442L84.9723 15.5477L84.9748 15.5442H84.9723L87.3662 7.3652L86.6634 6.98979L87.4222 4.3871H99.5986L98.8397 6.98979H89.909V6.98948ZM42.9923 4.38679L42.2303 6.98948L42.9335 7.37414L40.541 15.5477H44.6009L46.8837 7.73488L45.4801 6.98948H51.9818L49.4787 15.5477H53.5365L56.7995 4.38679H42.9923ZM84.5252 12.0191C83.9525 13.966 80.9508 15.5474 77.8231 15.5474H77.8168V15.5439L71.3297 15.5474L73.8311 6.98915L73.1255 6.61693L73.7803 4.38647H85.1463L84.385 6.98915H76.2657L77.6665 7.75402L77.4536 8.48027H79.8993L79.9017 8.48474C83.0301 8.48474 85.0983 10.0677 84.5252 12.0191ZM79.3158 11.0842H76.6916L76.1495 12.9415H78.8638C79.5903 12.8608 80.234 12.48 80.3701 12.0191C80.5138 11.5346 80.0496 11.141 79.3158 11.0842ZM125.752 15.5477L120.522 12.7055L118.45 15.5477H114.39L117.613 11.1276L116.167 10.3388H118.19L122.517 4.41422H126.578L129 15.5477H125.752ZM124.941 11.8038L124.081 7.82929L122.246 10.3388L124.941 11.8038ZM113.161 12.9415H113.927L113.167 15.5442H98.6052L99.3662 12.9415H100.143C101.743 11.267 102.911 9.23493 103.482 6.98948L102.767 6.63001L103.422 4.38679H115.657L113.161 12.9415ZM109.099 12.9415L110.84 6.98948H105.927L107.43 7.73488C107.402 7.86087 107.37 7.98558 107.333 8.1071C106.846 9.84541 106.063 11.4702 105.037 12.9415H109.099V12.9415ZM71.4536 9.97682C70.4884 13.2774 66.3903 15.9525 62.3064 15.9525C58.2181 15.9525 55.6927 13.2774 56.6558 9.97682C57.6238 6.67977 61.7205 4.00659 65.8075 4.00659C69.8917 4.00659 72.4219 6.67977 71.4536 9.97682ZM64.9188 7.03477C62.9042 7.03477 60.8854 8.35429 60.4084 9.97682C59.9321 11.6029 61.1794 12.9246 63.1916 12.9246C65.2083 12.9246 67.2271 11.6029 67.7048 9.97682C68.1787 8.35429 66.9338 7.03477 64.9188 7.03477Z" fill="white"/>
<path d="M28.2981 0H1.15587C0.520872 0 0.00487086 0.472058 0.00069551 1.05415C0.00069551 1.05639 0 1.05766 0 1.0599C0 1.06213 0.00069551 1.0634 0.00069551 1.0634V25.9449C0.00487086 26.5279 0.52122 27 1.15587 27H28.2981C28.9355 27 29.4536 26.526 29.4536 25.9417V1.0599C29.4533 0.475569 28.9355 0 28.2981 0ZM21.0079 20.2876H15.6235L18.6663 9.87777H10.3069L12.4659 10.7833L9.68577 20.2876H4.30166L7.20666 10.3428L6.35767 9.87745L7.43004 6.19574H25.1235L21.0079 20.2876Z" fill="white"/>
</svg>
