<svg width="89" height="121" viewBox="0 0 89 121" fill="none" xmlns="http://www.w3.org/2000/svg">
    <path d="M44.454 0C20.2906 0 0.632324 19.6583 0.632324 43.8214C0.632324 73.8086 39.8484 117.832 41.5181 119.691C43.0863 121.438 45.8244 121.435 47.3899 119.691C49.0595 117.832 88.2756 73.8086 88.2756 43.8214C88.2751 19.6583 68.6171 0 44.454 0ZM44.454 65.8692C32.2968 65.8692 22.4064 55.9786 22.4064 43.8214C22.4064 31.6642 32.297 21.7739 44.454 21.7739C56.6109 21.7739 66.5013 31.6644 66.5013 43.8216C66.5013 55.9788 56.6109 65.8692 44.454 65.8692Z"
          fill="#B82800"/>
</svg>
