<svg width="177" height="38" viewBox="0 0 177 38" fill="none" xmlns="http://www.w3.org/2000/svg">
    <path d="M123.02 15.1981L124.956 16.2472L124.655 17.2963H134.723L133.673 20.9611H123.612L122.862 23.5751H134.022L132.969 27.2381L116.218 27.2431L116.221 27.2381H116.218L119.516 15.7269L118.548 15.1986L119.593 11.5355H136.37L135.325 15.1986H123.02V15.1981ZM58.3774 11.5351L57.3275 15.1981L58.2964 15.7395L55 27.2431H60.5937L63.7391 16.2472L61.8051 15.1981H70.7633L67.3144 27.2431H72.9052L77.4011 11.5351H58.3774ZM115.602 22.2769C114.813 25.017 110.677 27.2426 106.368 27.2426H106.359V27.2377L97.421 27.2426L100.867 15.1977L99.8952 14.6738L100.797 11.5346H116.458L115.409 15.1977H104.222L106.152 16.2742L105.859 17.2963H109.228L109.232 17.3026C113.542 17.3026 116.391 19.5305 115.602 22.2769ZM108.424 20.9611H104.809L104.062 23.5751H107.802C108.803 23.4615 109.689 22.9255 109.877 22.2769C110.075 21.595 109.435 21.041 108.424 20.9611ZM172.405 27.2431L165.198 23.2429L162.343 27.2431H156.75L161.191 21.0222L159.199 19.912H161.985L167.947 11.5737H173.543L176.88 27.2431H172.405ZM171.288 21.9739L170.102 16.3801L167.574 19.912L171.288 21.9739ZM155.056 23.5751H156.112L155.064 27.2381H135.001L136.05 23.5751H137.121C139.324 21.2183 140.934 18.3584 141.72 15.1981L140.736 14.6922L141.638 11.5351H158.495L155.056 23.5751ZM149.46 23.5751L151.859 15.1981H145.089L147.161 16.2472C147.122 16.4245 147.077 16.6001 147.026 16.7711C146.356 19.2176 145.277 21.5043 143.863 23.5751H149.46ZM97.5917 19.4025C96.2618 24.0478 90.6154 27.8127 84.9886 27.8127C79.3556 27.8127 75.8761 24.0478 77.2031 19.4025C78.5368 14.7622 84.1813 11 89.8124 11C95.4396 11 98.9258 14.7622 97.5917 19.4025ZM88.588 15.2619C85.8122 15.2619 83.0307 17.119 82.3735 19.4025C81.7172 21.691 83.4358 23.5513 86.2082 23.5513C88.9868 23.5513 91.7683 21.691 92.4266 19.4025C93.0795 17.119 91.3642 15.2619 88.588 15.2619Z"
          fill="white"/>
    <path d="M38.9894 0H1.59257C0.717663 0 0.00671113 0.664378 0.000958281 1.48362C0.000958281 1.48677 0 1.48856 0 1.49171C0 1.49485 0.000958281 1.49664 0.000958281 1.49664V36.515C0.00671113 37.3356 0.718142 38 1.59257 38H38.9894C39.8677 38 40.5815 37.3329 40.5815 36.5105V1.49171C40.581 0.669319 39.8677 0 38.9894 0ZM28.945 28.5529H21.5262L25.7186 13.902H14.2009L17.1756 15.1765L13.3452 28.5529H5.92686L9.92941 14.5565L8.75966 13.9016L10.2372 8.71993H34.6153L28.945 28.5529Z"
          fill="white"/>
</svg>
