<svg width="129" height="27" viewBox="0 0 129 27" fill="none" xmlns="http://www.w3.org/2000/svg">
    <path d="M89.909 10.9895L91.314 11.7349L91.0958 12.4803H98.4034L97.6411 15.0842H90.3387L89.7945 16.9415H97.894L97.1303 19.5442L84.9723 19.5477L84.9748 19.5442H84.9723L87.3662 11.3652L86.6634 10.9898L87.4222 8.3871H99.5986L98.8397 10.9898H89.909V10.9895ZM42.9923 8.38679L42.2303 10.9895L42.9335 11.3741L40.541 19.5477H44.6009L46.8837 11.7349L45.4801 10.9895H51.9818L49.4787 19.5477H53.5365L56.7995 8.38679H42.9923ZM84.5252 16.0191C83.9525 17.966 80.9508 19.5474 77.8231 19.5474H77.8168V19.5439L71.3297 19.5474L73.8311 10.9892L73.1255 10.6169L73.7803 8.38647H85.1463L84.385 10.9892H76.2657L77.6665 11.754L77.4536 12.4803H79.8993L79.9017 12.4847C83.0301 12.4847 85.0983 14.0677 84.5252 16.0191ZM79.3158 15.0842H76.6916L76.1495 16.9415H78.8638C79.5903 16.8608 80.234 16.48 80.3701 16.0191C80.5138 15.5346 80.0496 15.141 79.3158 15.0842ZM125.752 19.5477L120.522 16.7055L118.45 19.5477H114.39L117.613 15.1276L116.167 14.3388H118.19L122.517 8.41422H126.578L129 19.5477H125.752ZM124.941 15.8038L124.081 11.8293L122.246 14.3388L124.941 15.8038ZM113.161 16.9415H113.927L113.167 19.5442H98.6052L99.3662 16.9415H100.143C101.743 15.267 102.911 13.2349 103.482 10.9895L102.767 10.63L103.422 8.38679H115.657L113.161 16.9415ZM109.099 16.9415L110.84 10.9895H105.927L107.43 11.7349C107.402 11.8609 107.37 11.9856 107.333 12.1071C106.846 13.8454 106.063 15.4702 105.037 16.9415H109.099ZM71.4536 13.9768C70.4884 17.2774 66.3903 19.9525 62.3064 19.9525C58.2181 19.9525 55.6927 17.2774 56.6558 13.9768C57.6238 10.6798 61.7205 8.00659 65.8075 8.00659C69.8917 8.00659 72.4219 10.6798 71.4536 13.9768ZM64.9188 11.0348C62.9042 11.0348 60.8854 12.3543 60.4084 13.9768C59.9321 15.6029 61.1794 16.9246 63.1916 16.9246C65.2083 16.9246 67.2271 15.6029 67.7048 13.9768C68.1787 12.3543 66.9338 11.0348 64.9188 11.0348Z"
          fill="white"/>
    <path d="M28.2981 0H1.15587C0.520872 0 0.00487086 0.472058 0.00069551 1.05415C0.00069551 1.05639 0 1.05766 0 1.0599C0 1.06213 0.00069551 1.0634 0.00069551 1.0634V25.9449C0.00487086 26.5279 0.52122 27 1.15587 27H28.2981C28.9355 27 29.4536 26.526 29.4536 25.9417V1.0599C29.4533 0.475569 28.9355 0 28.2981 0ZM21.0079 20.2876H15.6235L18.6663 9.87777H10.3069L12.4659 10.7833L9.68577 20.2876H4.30166L7.20666 10.3428L6.35767 9.87745L7.43004 6.19574H25.1235L21.0079 20.2876Z"
          fill="white"/>
</svg>
