<svg width="13" height="14" viewBox="0 0 13 14" fill="none" xmlns="http://www.w3.org/2000/svg">
  <path d="M11.5468 9.72831C10.7292 9.01665 9.85716 8.5787 9.03959 9.29037L8.54905 9.72831C8.16752 10.0568 7.51347 11.5348 4.89726 8.52396C2.28105 5.51308 3.86168 5.02039 4.1887 4.69193L4.67924 4.25399C5.49681 3.54233 5.16978 2.61169 4.57023 1.68105L4.1887 1.13362C3.64366 0.202986 2.98961 -0.39919 2.11754 0.312472L1.6815 0.695675C1.29997 0.969391 0.26439 1.84528 0.0463729 3.48758C-0.226149 5.45834 0.700425 7.75756 2.8806 10.2757C5.06077 12.7939 7.18644 14.053 9.1486 13.9983C10.8382 13.9983 11.8193 13.0677 12.1463 12.7392L12.5824 12.356C13.3999 11.6443 12.9094 10.8779 12.0373 10.1663L11.5468 9.72831Z" fill="#B82800"/>
</svg>
