<svg width="35" height="47" viewBox="0 0 35 47" fill="none" 
  xmlns="http://www.w3.org/2000/svg">
  <path d="M17.0216 0C7.63584 0 0 7.63585 0 17.0215C0 28.6694 15.2327 45.7693 15.8812 46.4915C16.4904 47.17 17.5539 47.1688 18.162 46.4915C18.8105 45.7693 34.0432 28.6694 34.0432 17.0215C34.043 7.63585 26.4073 0 17.0216 0ZM17.0216 25.5855C12.2994 25.5855 8.4577 21.7437 8.4577 17.0215C8.4577 12.2993 12.2995 8.45761 17.0216 8.45761C21.7437 8.45761 25.5854 12.2994 25.5854 17.0216C25.5854 21.7438 21.7437 25.5855 17.0216 25.5855Z" fill="#757575"/>
</svg>
