<svg width="32" height="29" viewBox="0 0 32 29" fill="none" xmlns="http://www.w3.org/2000/svg">
<path fill-rule="evenodd" clip-rule="evenodd" d="M0 14.5V29H16H32V14.5V0H16H0V14.5ZM3.2381 2.35135C3.2381 3.12887 3.02171 3.35655 2.19048 3.45492C1.30514 3.55995 1.14286 3.43336 1.14286 2.63861C1.14286 1.45784 1.47314 1.1118 2.46057 1.25719C3.0061 1.33753 3.2381 1.66358 3.2381 2.35135ZM7.2381 2.35135C7.2381 3.43376 7.13219 3.52703 5.90476 3.52703C4.7619 3.52703 4.57143 3.39653 4.57143 2.61274C4.57143 1.4257 4.84762 1.17568 6.15886 1.17568C7.104 1.17568 7.2381 1.32185 7.2381 2.35135ZM11.3585 2.44932C11.4701 3.44669 11.3779 3.52703 10.1204 3.52703C8.85867 3.52703 8.7619 3.44159 8.7619 2.32666C8.7619 1.2082 8.84648 1.13453 10 1.24896C11.0316 1.35124 11.2583 1.5515 11.3585 2.44932ZM15.2381 2.35135C15.2381 3.43376 15.1322 3.52703 13.9048 3.52703C12.7619 3.52703 12.5714 3.39653 12.5714 2.61274C12.5714 1.4257 12.8476 1.17568 14.1589 1.17568C15.104 1.17568 15.2381 1.32185 15.2381 2.35135ZM19.3585 2.44932C19.4701 3.44669 19.3779 3.52703 18.1204 3.52703C16.8587 3.52703 16.7619 3.44159 16.7619 2.32666C16.7619 1.2082 16.8465 1.13453 18 1.24896C19.0316 1.35124 19.2583 1.5515 19.3585 2.44932ZM23.2381 2.35135C23.2381 3.43376 23.1322 3.52703 21.9048 3.52703C20.7619 3.52703 20.5714 3.39653 20.5714 2.61274C20.5714 1.4257 20.8476 1.17568 22.1589 1.17568C23.104 1.17568 23.2381 1.32185 23.2381 2.35135ZM27.3585 2.44932C27.4701 3.44669 27.3779 3.52703 26.1204 3.52703C24.8587 3.52703 24.7619 3.44159 24.7619 2.32666C24.7619 1.2082 24.8465 1.13453 26 1.24896C27.0316 1.35124 27.2583 1.5515 27.3585 2.44932ZM30.787 2.44932C30.8914 3.38007 30.773 3.52703 29.9181 3.52703C28.8644 3.52703 28.3421 2.74716 28.7196 1.73608C29.1143 0.677581 30.6484 1.20664 30.787 2.44932ZM30.7684 14.6027L30.8705 24.3067L16.1017 24.204L1.33333 24.1014L1.23162 14.3973L1.12952 4.6933L15.8983 4.79597L30.6667 4.89865L30.7684 14.6027ZM12.8255 10.0587C12.6857 10.2021 12.5714 12.2357 12.5714 14.5776C12.5714 17.8193 12.696 18.8845 13.093 19.0412C13.7726 19.3097 20.381 15.1913 20.381 14.4992C20.381 13.9882 14.3341 9.88665 13.4922 9.82669C13.2651 9.81062 12.965 9.91486 12.8255 10.0587ZM18.0952 14.5C18.0952 14.7379 17.1954 15.4668 16.0952 16.1201L14.0952 17.3079V14.5V11.6921L16.0952 12.8799C17.1954 13.5332 18.0952 14.2621 18.0952 14.5ZM3.2381 26.6486C3.2381 27.4324 3.04762 27.6284 2.28571 27.6284C1.52381 27.6284 1.30857 27.407 1.2099 26.5217C1.0979 25.5153 1.184 25.4267 2.16229 25.5419C3.02286 25.6434 3.2381 25.8649 3.2381 26.6486ZM7.2381 26.6733C7.2381 27.7918 7.15352 27.8655 6 27.751C4.96838 27.6488 4.74171 27.4485 4.64152 26.5507C4.5299 25.5533 4.6221 25.473 5.87962 25.473C7.14133 25.473 7.2381 25.5584 7.2381 26.6733ZM11.3585 26.5507C11.2583 27.4485 11.0316 27.6488 10 27.751C8.84648 27.8655 8.7619 27.7918 8.7619 26.6733C8.7619 25.5584 8.85867 25.473 10.1204 25.473C11.3779 25.473 11.4701 25.5533 11.3585 26.5507ZM15.2381 26.6733C15.2381 27.7918 15.1535 27.8655 14 27.751C12.9684 27.6488 12.7417 27.4485 12.6415 26.5507C12.5299 25.5533 12.6221 25.473 13.8796 25.473C15.1413 25.473 15.2381 25.5584 15.2381 26.6733ZM19.3585 26.5507C19.2583 27.4485 19.0316 27.6488 18 27.751C16.8465 27.8655 16.7619 27.7918 16.7619 26.6733C16.7619 25.5584 16.8587 25.473 18.1204 25.473C19.3779 25.473 19.4701 25.5533 19.3585 26.5507ZM23.2381 26.6733C23.2381 27.7918 23.1535 27.8655 22 27.751C20.9684 27.6488 20.7417 27.4485 20.6415 26.5507C20.5299 25.5533 20.6221 25.473 21.8796 25.473C23.1413 25.473 23.2381 25.5584 23.2381 26.6733ZM27.3585 26.5507C27.2583 27.4485 27.0316 27.6488 26 27.751C24.8465 27.8655 24.7619 27.7918 24.7619 26.6733C24.7619 25.5584 24.8587 25.473 26.1204 25.473C27.3779 25.473 27.4701 25.5533 27.3585 26.5507ZM30.787 26.5507C30.6484 27.7934 29.1143 28.3224 28.7196 27.2639C28.3421 26.2528 28.8644 25.473 29.9181 25.473C30.773 25.473 30.8914 25.6199 30.787 26.5507Z" fill="#8F8F8F"/>
</svg>
