<svg width="27" height="28" viewBox="0 0 27 28" fill="none" xmlns="http://www.w3.org/2000/svg">
<path fill-rule="evenodd" clip-rule="evenodd" d="M0.524706 1.37104L0.0419922 1.86444V10.4105V18.9565L0.580744 19.4674C1.10337 19.9628 1.19991 19.9781 3.82505 19.9781H6.5306V19.4914C6.5306 19.0052 6.52883 19.0048 3.99021 18.9384C2.5932 18.902 1.37648 18.7969 1.28663 18.705C1.03062 18.4424 0.97065 2.76459 1.2239 2.28084C1.42898 1.88877 1.59828 1.87771 6.58841 1.92959L11.7412 1.98327L11.8005 3.03883C11.8552 4.00814 11.8992 4.0944 12.3413 4.0944C12.7941 4.0944 12.8226 4.02825 12.8226 2.97952C12.8226 2.06369 12.7363 1.77618 12.3399 1.37104L11.8574 0.877441H6.43229H1.00722L0.524706 1.37104ZM2.2957 3.33821C2.24242 3.47976 2.22256 6.39955 2.25107 9.82661L2.30317 16.0575L4.41689 16.1146L6.5306 16.1717V15.6702C6.5306 15.181 6.49128 15.1676 4.90845 15.1105L3.2863 15.0522L3.234 9.57328L3.18169 4.0944H6.93427H10.6871L10.6243 3.64201C10.5616 3.19144 10.5447 3.18943 6.47673 3.13534C3.30026 3.09292 2.37081 3.13816 2.2957 3.33821ZM7.51373 5.14594C7.28918 5.39264 7.0609 5.77707 7.00683 6.00044C6.95276 6.22382 6.93408 10.1015 6.96534 14.6173L7.02217 22.8281L7.57389 23.3131C8.0979 23.7739 8.25834 23.7983 10.769 23.7983H13.4125V23.2956V22.793H11.0905C9.54289 22.793 8.6569 22.7091 8.43354 22.5416C8.12582 22.3108 8.10262 21.6182 8.1502 14.0469L8.20191 5.80341H13.4125H18.623L18.6824 6.85897C18.74 7.87995 18.7609 7.91453 19.3214 7.91453C19.8824 7.91453 19.9011 7.88337 19.9011 6.95407C19.9011 6.05553 19.5572 5.22737 19.0277 4.85139C18.9132 4.77016 16.3677 4.7024 13.371 4.70059C7.98622 4.69758 7.91759 4.7028 7.51373 5.14594ZM9.22161 7.03932C9.14748 7.11532 9.08672 9.94886 9.08672 13.3365C9.08672 17.8587 9.14945 19.5597 9.32267 19.7368C9.47407 19.8917 10.249 19.9781 11.4855 19.9781C13.4099 19.9781 13.4125 19.9775 13.4125 19.4755C13.4125 18.9813 13.3863 18.9728 11.8395 18.9728H10.2665V13.4437V7.91453H14.0161H17.7655L17.7028 7.46215C17.6401 7.01137 17.6253 7.00956 13.4982 6.95568C11.2203 6.92592 9.29574 6.96352 9.22161 7.03932ZM14.4851 9.01131L14.0023 9.50471V18.068V26.6314L14.4851 27.1248L14.9676 27.6184H20.3238H25.6801L26.2314 27.0781L26.7829 26.5379V18.0212V9.50471L26.3002 9.01131C25.9917 8.69566 25.5689 8.51771 25.1274 8.51771H20.3926H14.9676L14.4851 9.01131ZM25.6028 9.92432C25.8547 10.4055 25.7927 26.0845 25.5381 26.3453C25.2811 26.6083 15.8555 26.673 15.384 26.4148C14.9939 26.2013 14.9855 26.0268 14.9855 18.1012C14.9855 12.0726 15.0456 9.94403 15.2214 9.76428C15.3925 9.58936 16.8235 9.52301 20.4251 9.52301C25.1885 9.52301 25.4015 9.5395 25.6028 9.92432ZM16.2561 10.9785C16.2028 11.12 16.1829 14.0398 16.2114 17.4669L16.2635 23.6977H20.3926H24.5218V17.2638V10.8299L20.4371 10.7756C17.2606 10.7332 16.3312 10.7784 16.2561 10.9785ZM23.5909 17.2135L23.5386 22.6924L20.3435 22.7477L17.1483 22.803V17.2688V11.7347H20.3958H23.6432L23.5909 17.2135ZM5.87525 16.8953C5.64914 17.1265 5.73231 17.9082 6.00798 18.1422C6.36839 18.4481 6.5306 18.2273 6.5306 17.4313C6.5306 16.8008 6.21777 16.545 5.87525 16.8953ZM12.8717 20.7144C12.3808 20.9171 12.7115 22.1898 13.2552 22.1898C13.3417 22.1898 13.4125 21.8279 13.4125 21.3855C13.4125 20.5907 13.3523 20.5162 12.8717 20.7144ZM19.7522 24.6341C19.4042 24.9899 19.4484 25.2895 19.9127 25.719C20.4449 26.2116 20.9825 25.8923 20.9825 25.0832C20.9825 24.6125 20.8887 24.4907 20.4896 24.4431C20.2184 24.4107 19.8867 24.4965 19.7522 24.6341Z" fill="#D70000"/>
</svg>
