<svg width="25" height="36" viewBox="0 0 25 36" fill="none" xmlns="http://www.w3.org/2000/svg">
<path fill-rule="evenodd" clip-rule="evenodd" d="M9.88726 1.2208C7.11773 2.26737 5.42893 3.90728 4.3446 6.60313C3.75451 8.06967 3.6323 8.90717 3.6323 11.4817C3.6323 14.5415 3.61612 14.6129 2.59619 16.0619C1.0979 18.1908 0.494928 20.205 0.501518 23.06C0.509306 26.5761 1.56728 29.1803 4.00432 31.6831C5.23782 32.9499 5.67635 33.2516 7.82584 34.3124C9.29507 35.0376 9.81358 35.1254 12.6185 35.1254C15.4233 35.1254 15.9418 35.0376 17.4111 34.3124C19.5606 33.2516 19.9991 32.9499 21.2326 31.6831C23.6696 29.1803 24.7276 26.5761 24.7354 23.06C24.742 20.205 24.139 18.1908 22.6407 16.0619C21.6211 14.6135 21.6046 14.5403 21.6046 11.4911C21.6046 6.64731 20.1477 3.74328 16.7913 1.89824C14.9042 0.860745 11.6776 0.544262 9.88726 1.2208ZM15.0783 2.93423C17.9817 4.03405 19.3479 5.91056 19.8676 9.5123C20.366 12.9658 20.2555 13.105 17.9508 11.9243C16.1527 11.0033 15.8993 10.9573 12.6185 10.9573C9.33761 10.9573 9.0842 11.0033 7.28607 11.9243C4.98142 13.105 4.87089 12.9658 5.36932 9.5123C5.88273 5.95473 7.24653 4.0513 10.0724 2.94966C12.0017 2.19748 13.1247 2.19415 15.0783 2.93423ZM16.812 13.1685C18.7776 14.0807 20.5194 15.7125 21.8101 17.8507C22.9343 19.713 22.9457 19.7635 22.9451 22.9087C22.9448 25.7824 22.8666 26.236 22.1264 27.6608C20.4553 30.8779 17.896 32.7832 14.2426 33.529C12.6748 33.8491 12.1335 33.8277 10.3486 33.3747C9.20821 33.0855 7.80337 32.5657 7.22676 32.2192C5.75692 31.3369 4.00762 29.3854 3.08594 27.6009C2.3943 26.2611 2.30235 25.7277 2.29396 22.9967C2.28557 20.2842 2.37513 19.7314 3.03022 18.4582C3.8887 16.789 6.57466 13.9618 7.76413 13.475C10.4534 12.3743 10.7589 12.3141 13.0678 12.4263C14.649 12.5035 15.9227 12.7558 16.812 13.1685ZM11.0147 21.23C9.97383 22.2046 9.95616 23.5752 10.971 24.6003C11.47 25.1044 11.7198 25.6929 11.7198 26.3649C11.7198 26.9195 11.922 27.5425 12.1691 27.7497C12.8353 28.308 13.5171 27.6075 13.5171 26.3649C13.5171 25.6929 13.7669 25.1044 14.2659 24.6003C15.2808 23.5752 15.2631 22.2046 14.2222 21.23C13.2127 20.2851 12.0242 20.2851 11.0147 21.23Z" fill="#D70000"/>
</svg>
