<svg width="34" height="34" viewBox="0 0 34 34" fill="none" xmlns="http://www.w3.org/2000/svg">
<path opacity="0.5" fill-rule="evenodd" clip-rule="evenodd" d="M17.2198 0.945885C10.5137 1.56414 5.42683 5.84765 2.75039 13.13C1.28288 17.1228 0.0781429 24.9733 0.230278 29.5535L0.302147 31.7191L1.6605 31.6999C2.40759 31.6892 5.13046 31.5942 7.71133 31.4888C12.1037 31.3092 12.4354 31.326 12.8978 31.7515C13.1694 32.0015 13.9227 32.4525 14.5715 32.7536C16.6364 33.7121 18.98 33.3787 21.2188 31.8075C21.9528 31.2924 22.0827 31.2844 26.5724 31.4798C29.1031 31.5898 31.7294 31.6889 32.4086 31.6996L33.6435 31.7191L33.6237 28.9199C33.6128 27.3803 33.4523 25.5183 33.2671 24.7819C33.0772 24.0274 32.9243 22.0979 32.9164 20.3602C32.9035 17.5079 32.8608 17.2331 32.3469 16.6932C31.9954 16.324 31.7902 15.8023 31.7882 15.2734C31.7833 13.82 30.8561 10.6353 29.8944 8.76807C28.9633 6.96028 26.9174 4.77617 25.6028 4.18687C23.7236 3.34419 23.0553 3.12342 21.9473 2.97859C20.795 2.82792 20.7122 2.76902 20.5653 1.99765C20.4383 1.33096 19.7419 0.568358 19.3971 0.718297C19.3541 0.73704 18.3744 0.839515 17.2198 0.945885ZM19.5154 3.065C19.8747 3.95004 19.9523 3.99604 21.5398 4.26403C24.889 4.82947 27.3896 6.70518 28.9213 9.80086C29.4002 10.7687 29.9075 12.2625 30.0488 13.1205C30.4484 15.5477 30.4676 15.4957 29.1384 15.5799C28.1896 15.64 27.9527 15.7464 27.889 16.1409C27.7245 17.1628 27.6396 17.247 27.0453 16.9766C26.0794 16.5372 22.5514 11.3667 21.3692 8.65854C20.6848 7.09074 20.1807 7.13553 19.2758 8.84499C17.9992 11.2564 14.778 14.5193 12.2803 15.9306C10.8486 16.7397 9.14674 17.2392 7.38508 17.3675C6.26111 17.4493 5.87212 17.5941 5.42683 18.0967C4.25544 19.4189 4.97981 21.945 6.7795 22.8147C7.21788 23.0265 7.5792 23.3234 7.58216 23.4746C7.59624 24.163 10.3248 29.3249 10.8607 29.6771C10.9852 29.7589 9.2717 29.9551 7.0529 30.1128C4.8341 30.2708 2.71334 30.4475 2.33967 30.5057L1.6605 30.6116V28.3311C1.6605 22.5786 2.68889 16.9714 4.64072 12.0806C5.39275 10.1959 7.63329 6.99654 9.0929 5.72303C11.4601 3.65722 14.9444 2.22792 17.7485 2.17242C19.1388 2.14492 19.1427 2.14686 19.5154 3.065ZM21.5588 11.9421C22.2034 13.0467 23.0123 14.3336 23.3566 14.8022C25.4699 17.6793 25.952 18.2009 26.7322 18.4545C27.3479 18.6549 27.5998 18.9053 27.7179 19.435C27.9688 20.5605 27.6435 21.1267 26.4588 21.6271C25.6655 21.9623 25.3699 22.2259 25.3699 22.5983C25.3699 23.0693 24.648 25.0568 24.1138 26.0564C23.7833 26.6752 23.8199 26.7292 24.5672 26.729C25.159 26.7285 25.318 26.5554 25.8021 25.3844C26.1076 24.6451 26.3578 23.8825 26.3578 23.6895C26.3578 23.3802 27.0604 22.8347 27.459 22.8347C27.5393 22.8347 27.7104 23.1085 27.8396 23.4432C27.9833 23.8159 28.2684 24.0517 28.5744 24.0517C29.2222 24.0517 29.216 24.6206 28.5566 25.6718C27.7319 26.9872 26.8648 27.2908 23.5848 27.412L20.688 27.5191L19.8098 26.7589C19.0617 26.1117 18.7367 25.999 17.6177 25.999C16.5655 25.999 16.1739 26.1178 15.6505 26.5958C14.7854 27.3862 14.7775 28.4822 15.631 29.3235C16.2109 29.895 16.4038 29.9395 17.8948 29.8458C19.2314 29.7621 19.5895 29.6477 19.8844 29.21C20.224 28.7059 20.423 28.6765 23.4897 28.6765C26.3844 28.6765 26.848 28.6171 27.7724 28.1288C29.0545 27.4514 29.9749 26.256 30.1928 24.9854C30.3116 24.2922 30.5262 23.9439 30.9522 23.7526C31.2789 23.6058 31.5919 23.5311 31.6474 23.5863C31.8472 23.7847 32.2851 27.5266 32.2851 29.036V30.5775L31.359 30.4806C29.7139 30.3085 24.4366 29.8935 23.8927 29.8935C23.6025 29.8935 23.4336 29.784 23.5176 29.6501C23.607 29.5075 23.3487 29.4067 22.8945 29.4067C22.3746 29.4067 21.7732 29.6859 21.0703 30.2535C19.6843 31.373 18.4877 31.8408 17.0108 31.8408C15.0153 31.8408 13.5107 30.9324 11.7078 28.639C11.1178 27.8886 8.57573 22.8315 8.57573 22.4085C8.57573 22.2276 8.1907 21.9212 7.72022 21.7274C6.69948 21.307 6.29618 20.6564 6.3999 19.5983C6.47573 18.826 6.49227 18.8167 8.1465 18.6366C10.1097 18.4229 12.2085 17.6325 14.1025 16.3933C15.5646 15.437 19.6895 11.3236 19.6895 10.8222C19.6895 10.57 20.1516 9.934 20.3346 9.934C20.3635 9.934 20.9145 10.8375 21.5588 11.9421ZM31.1639 17.4164C31.7042 17.9908 31.7912 18.3063 31.7912 19.6932C31.7912 21.0648 31.7015 21.3986 31.1856 21.9472C30.8524 22.3014 30.417 22.5913 30.218 22.5913C30.0186 22.5913 29.68 22.6577 29.4652 22.739C29.1216 22.869 29.0745 22.5163 29.0745 19.8181V16.7495H29.8055C30.2849 16.7495 30.7522 16.979 31.1639 17.4164ZM18.571 27.5459C18.8513 27.7479 18.9683 28.031 18.873 28.2761C18.6475 28.8554 16.5952 28.8398 16.3685 28.2569C16.0353 27.4015 17.648 26.8809 18.571 27.5459Z" fill="#1E1E1E"/>
</svg>
