<svg width="34" height="31" viewBox="0 0 34 31" fill="none" xmlns="http://www.w3.org/2000/svg">
<path d="M13.8255 11.0587L13.7539 10.9889C13.7295 11.0139 13.7151 11.0474 13.7057 11.0731C13.6951 11.1021 13.6856 11.1371 13.6769 11.1762C13.6593 11.2547 13.6429 11.3587 13.6276 11.4838C13.5968 11.7343 13.5693 12.0776 13.5462 12.4881C13.5 13.3094 13.4714 14.4052 13.4714 15.5776C13.4714 17.1981 13.5025 18.2802 13.584 18.9779C13.6247 19.3262 13.6787 19.5854 13.7509 19.77C13.8228 19.9539 13.9195 20.0803 14.0562 20.1343C14.1264 20.162 14.2159 20.1566 14.3047 20.1405C14.398 20.1235 14.5096 20.0907 14.635 20.0457C14.8863 19.9554 15.2043 19.8118 15.5633 19.6315C16.282 19.2705 17.1746 18.7576 18.0447 18.2153C18.9148 17.673 19.7649 17.0999 20.3983 16.6182C20.7147 16.3776 20.9793 16.1581 21.1657 15.9755C21.2586 15.8844 21.3346 15.8002 21.388 15.7253C21.4382 15.6549 21.481 15.576 21.481 15.4992C21.481 15.4607 21.4674 15.4248 21.4529 15.396C21.4376 15.3658 21.4167 15.3343 21.3922 15.3024C21.3434 15.2386 21.274 15.1643 21.1889 15.0822C21.0184 14.9176 20.7759 14.7129 20.4849 14.4834C19.9023 14.0241 19.1181 13.4602 18.3084 12.911C17.4987 12.3618 16.662 11.8263 15.9742 11.4239C15.6305 11.2228 15.3227 11.0542 15.0734 10.9337C14.9489 10.8735 14.8376 10.8246 14.743 10.7896C14.6502 10.7554 14.5665 10.7317 14.4993 10.7269L14.4992 10.7269C14.3692 10.7177 14.2236 10.7429 14.0932 10.7883C13.9635 10.8334 13.838 10.9022 13.7537 10.9891L13.8255 11.0587ZM13.8255 11.0587C13.965 10.9149 14.2651 10.8106 14.4922 10.8267C15.3341 10.8866 21.381 14.9882 21.381 15.4992C21.381 16.1913 14.7726 20.3097 14.093 20.0412C13.696 19.8845 13.5714 18.8193 13.5714 15.5776C13.5714 13.2357 13.6857 11.2021 13.8255 11.0587ZM3.97591 28.3627C4.08791 28.2475 4.1381 28.0416 4.1381 27.6486C4.1381 27.2598 4.08304 27.0448 3.9512 26.9091C3.81659 26.7707 3.58064 26.692 3.15059 26.6413C2.90558 26.6124 2.72468 26.5975 2.59044 26.6048C2.45559 26.6121 2.38766 26.6411 2.34894 26.6809C2.30961 26.7214 2.28096 26.7929 2.27376 26.933L3.97591 28.3627ZM3.97591 28.3627C3.86488 28.4769 3.66701 28.5284 3.28571 28.5284M3.97591 28.3627L3.28571 28.5284M3.28571 28.5284C2.9087 28.5284 2.70177 28.472 2.5708 28.3373M3.28571 28.5284L2.5708 28.3373M2.5708 28.3373C2.4355 28.1981 2.35867 27.9537 2.30929 27.5106L2.5708 28.3373ZM0.9 30V30.1H1H17H33H33.1V30V15.5V1V0.9H33H17H1H0.9V1V15.5V30ZM3.17872 4.35561L3.1787 4.35562C2.95865 4.38172 2.79011 4.39253 2.66008 4.38367C2.53011 4.37482 2.44955 4.34694 2.39614 4.30531C2.34427 4.26489 2.30513 4.20141 2.27933 4.09305C2.2531 3.98292 2.24286 3.83565 2.24286 3.63861C2.24286 3.04868 2.32749 2.70441 2.50378 2.51961C2.67386 2.34134 2.95822 2.2843 3.446 2.35612C3.70081 2.39365 3.8666 2.48558 3.9724 2.63442C4.08103 2.78725 4.1381 3.01605 4.1381 3.35135C4.1381 3.73674 4.0829 3.95265 3.95348 4.08896C3.82208 4.22736 3.59314 4.30657 3.17872 4.35561ZM12.2591 3.46041L12.2591 3.46045C12.2871 3.71066 12.301 3.89338 12.2893 4.02999C12.2779 4.16416 12.2431 4.2381 12.1872 4.28676C12.1271 4.33908 12.0259 4.37723 11.8476 4.39967C11.6709 4.4219 11.4353 4.42703 11.1204 4.42703C10.8043 4.42703 10.5682 4.42156 10.3893 4.39717C10.2101 4.37273 10.1032 4.33096 10.0342 4.27001C9.96709 4.2107 9.92205 4.12085 9.89525 3.96737C9.86816 3.81229 9.86191 3.60614 9.86191 3.32666C9.86191 3.04617 9.86737 2.83952 9.89189 2.68611C9.91638 2.53284 9.95741 2.4502 10.014 2.4009C10.0714 2.351 10.1626 2.31958 10.3248 2.31167C10.4865 2.30379 10.7009 2.31978 10.9901 2.34847L11 2.24896L10.9901 2.34847C11.5082 2.39984 11.7912 2.47457 11.9623 2.62575C12.1295 2.7735 12.2091 3.01243 12.2591 3.46041ZM20.2591 3.46041L20.2591 3.46045C20.2871 3.71066 20.301 3.89338 20.2893 4.02999C20.2779 4.16416 20.2431 4.2381 20.1872 4.28676C20.1271 4.33908 20.0259 4.37723 19.8476 4.39967C19.6709 4.4219 19.4353 4.42703 19.1204 4.42703C18.8043 4.42703 18.5682 4.42156 18.3893 4.39717C18.2101 4.37273 18.1032 4.33096 18.0342 4.27001C17.9671 4.2107 17.9221 4.12085 17.8952 3.96737C17.8682 3.81229 17.8619 3.60614 17.8619 3.32666C17.8619 3.04617 17.8674 2.83952 17.8919 2.68611C17.9164 2.53284 17.9574 2.4502 18.014 2.4009C18.0714 2.351 18.1626 2.31958 18.3248 2.31167C18.4865 2.30379 18.7009 2.31978 18.9901 2.34847L19 2.24896L18.9901 2.34847C19.5082 2.39984 19.7912 2.47457 19.9623 2.62575C20.1295 2.7735 20.2091 3.01243 20.2591 3.46041ZM28.2591 3.46041L28.2591 3.46045C28.2871 3.71066 28.301 3.89338 28.2893 4.02999C28.2779 4.16416 28.2431 4.2381 28.1872 4.28676C28.1271 4.33908 28.0259 4.37723 27.8476 4.39967C27.6709 4.4219 27.4353 4.42703 27.1204 4.42703C26.8043 4.42703 26.5682 4.42156 26.3893 4.39717C26.2101 4.37273 26.1032 4.33096 26.0342 4.27001C25.9671 4.2107 25.9221 4.12085 25.8952 3.96737C25.8682 3.81229 25.8619 3.60614 25.8619 3.32666C25.8619 3.04617 25.8674 2.83952 25.8919 2.68611C25.9164 2.53284 25.9574 2.4502 26.014 2.4009C26.0714 2.351 26.1626 2.31958 26.3248 2.31167C26.4865 2.30379 26.7009 2.31978 26.9901 2.34847L27 2.24896L26.9901 2.34847C27.5082 2.39984 27.7912 2.47457 27.9623 2.62575C28.1295 2.7735 28.2091 3.01243 28.2591 3.46041ZM31.6877 3.46041L31.6877 3.46047C31.7137 3.69231 31.7249 3.86848 31.7158 4.00362C31.7066 4.13873 31.6778 4.22069 31.6344 4.27444C31.5922 4.32685 31.5249 4.36627 31.4079 4.39182C31.2893 4.4177 31.1308 4.42703 30.9181 4.42703C30.4158 4.42703 30.0574 4.24212 29.8652 3.95509C29.6727 3.66739 29.6325 3.25521 29.8133 2.77106L29.8133 2.77102C29.903 2.53059 30.0535 2.38772 30.2265 2.31919C30.4016 2.2498 30.6096 2.25285 30.8167 2.32429C31.2318 2.46747 31.6228 2.87889 31.6877 3.46041ZM2.33161 15.3963L2.23162 15.3973L2.33161 15.3963L2.23059 5.794L16.8976 5.89597L31.5677 5.99796L31.6684 15.6037L31.7694 25.206L17.1024 25.104L2.4323 25.002L2.33161 15.3963ZM17.0442 13.9659L17.0952 13.8799L17.0442 13.9659C17.591 14.2906 18.0869 14.6334 18.4449 14.9234C18.6242 15.0687 18.7667 15.1989 18.8634 15.3055C18.9118 15.359 18.9468 15.4043 18.969 15.4409C18.98 15.459 18.987 15.4735 18.9911 15.4844C18.9949 15.4947 18.9952 15.4996 18.9952 15.5C18.9952 15.4996 18.9952 15.5043 18.9911 15.5156C18.987 15.5265 18.98 15.541 18.969 15.5591C18.9468 15.5957 18.9118 15.641 18.8634 15.6945C18.7667 15.8011 18.6242 15.9313 18.4449 16.0766C18.0869 16.3666 17.591 16.7094 17.0442 17.0341L17.0952 17.1201L17.0442 17.0341L15.1952 18.1322V15.5V12.8678L17.0442 13.9659ZM5.74091 27.5396L5.7409 27.5396C5.7129 27.2893 5.69904 27.1066 5.71069 26.97C5.72212 26.8358 5.7569 26.7619 5.8128 26.7132C5.8729 26.6609 5.97407 26.6228 6.15243 26.6003C6.32909 26.5781 6.56468 26.573 6.87962 26.573C7.19566 26.573 7.43181 26.5784 7.61066 26.6028C7.7899 26.6273 7.8968 26.669 7.96579 26.73C8.03291 26.7893 8.07795 26.8792 8.10475 27.0326C8.13184 27.1877 8.1381 27.3939 8.1381 27.6733C8.1381 27.9538 8.13263 28.1605 8.10811 28.3139C8.08362 28.4672 8.04259 28.5498 7.98596 28.5991C7.92863 28.649 7.83742 28.6804 7.67523 28.6883C7.51355 28.6962 7.29906 28.6802 7.00987 28.6515C6.49182 28.6002 6.20879 28.5254 6.03769 28.3742C5.87048 28.2265 5.7909 27.9876 5.74091 27.5396ZM12.2591 27.5396L12.2591 27.5396C12.2091 27.9876 12.1295 28.2265 11.9623 28.3742C11.7912 28.5254 11.5082 28.6002 10.9901 28.6515C10.7009 28.6802 10.4865 28.6962 10.3248 28.6883C10.1626 28.6804 10.0714 28.649 10.014 28.5991C9.95741 28.5498 9.91638 28.4672 9.89189 28.3139C9.86737 28.1605 9.86191 27.9538 9.86191 27.6733C9.86191 27.3939 9.86816 27.1877 9.89525 27.0326C9.92206 26.8792 9.96709 26.7893 10.0342 26.73C10.1032 26.669 10.2101 26.6273 10.3893 26.6028C10.5682 26.5784 10.8043 26.573 11.1204 26.573C11.4353 26.573 11.6709 26.5781 11.8476 26.6003C12.0259 26.6228 12.1271 26.6609 12.1872 26.7132C12.2431 26.7619 12.2779 26.8358 12.2893 26.97C12.301 27.1066 12.2871 27.2893 12.2591 27.5396ZM13.7409 27.5396L13.7409 27.5396C13.7129 27.2893 13.699 27.1066 13.7107 26.97C13.7221 26.8358 13.7569 26.7619 13.8128 26.7132C13.8729 26.6609 13.9741 26.6228 14.1524 26.6003C14.3291 26.5781 14.5647 26.573 14.8796 26.573C15.1957 26.573 15.4318 26.5784 15.6107 26.6028C15.7899 26.6273 15.8968 26.669 15.9658 26.73C16.0329 26.7893 16.0779 26.8792 16.1048 27.0326C16.1318 27.1877 16.1381 27.3939 16.1381 27.6733C16.1381 27.9538 16.1326 28.1605 16.1081 28.3139C16.0836 28.4672 16.0426 28.5498 15.986 28.5991C15.9286 28.649 15.8374 28.6804 15.6752 28.6883C15.5135 28.6962 15.2991 28.6802 15.0099 28.6515C14.4918 28.6002 14.2088 28.5254 14.0377 28.3742C13.8705 28.2265 13.7909 27.9876 13.7409 27.5396ZM20.2591 27.5396L20.2591 27.5396C20.2091 27.9876 20.1295 28.2265 19.9623 28.3742C19.7912 28.5254 19.5082 28.6002 18.9901 28.6515C18.7009 28.6802 18.4865 28.6962 18.3248 28.6883C18.1626 28.6804 18.0714 28.649 18.014 28.5991C17.9574 28.5498 17.9164 28.4672 17.8919 28.3139C17.8674 28.1605 17.8619 27.9538 17.8619 27.6733C17.8619 27.3939 17.8682 27.1877 17.8952 27.0326C17.9221 26.8792 17.9671 26.7893 18.0342 26.73C18.1032 26.669 18.2101 26.6273 18.3893 26.6028C18.5682 26.5784 18.8043 26.573 19.1204 26.573C19.4353 26.573 19.6709 26.5781 19.8476 26.6003C20.0259 26.6228 20.1271 26.6609 20.1872 26.7132C20.2431 26.7619 20.2779 26.8358 20.2893 26.97C20.301 27.1066 20.2871 27.2893 20.2591 27.5396ZM21.7409 27.5396L21.7409 27.5396C21.7129 27.2893 21.699 27.1066 21.7107 26.97C21.7221 26.8358 21.7569 26.7619 21.8128 26.7132C21.8729 26.6609 21.9741 26.6228 22.1524 26.6003C22.3291 26.5781 22.5647 26.573 22.8796 26.573C23.1957 26.573 23.4318 26.5784 23.6107 26.6028C23.7899 26.6273 23.8968 26.669 23.9658 26.73C24.0329 26.7893 24.0779 26.8792 24.1048 27.0326C24.1318 27.1877 24.1381 27.3939 24.1381 27.6733C24.1381 27.9538 24.1326 28.1605 24.1081 28.3139C24.0836 28.4672 24.0426 28.5498 23.986 28.5991C23.9286 28.649 23.8374 28.6804 23.6752 28.6883C23.5135 28.6962 23.2991 28.6802 23.0099 28.6515C22.4918 28.6002 22.2088 28.5254 22.0377 28.3742C21.8705 28.2265 21.7909 27.9876 21.7409 27.5396ZM28.2591 27.5396L28.2591 27.5396C28.2091 27.9876 28.1295 28.2265 27.9623 28.3742C27.7912 28.5254 27.5082 28.6002 26.9901 28.6515C26.7009 28.6802 26.4865 28.6962 26.3248 28.6883C26.1626 28.6804 26.0714 28.649 26.014 28.5991C25.9574 28.5498 25.9164 28.4672 25.8919 28.3139C25.8674 28.1605 25.8619 27.9538 25.8619 27.6733C25.8619 27.3939 25.8682 27.1877 25.8952 27.0326C25.9221 26.8792 25.9671 26.7893 26.0342 26.73C26.1032 26.669 26.2101 26.6273 26.3893 26.6028C26.5682 26.5784 26.8043 26.573 27.1204 26.573C27.4353 26.573 27.6709 26.5781 27.8476 26.6003C28.0259 26.6228 28.1271 26.6609 28.1872 26.7132C28.2431 26.7619 28.2779 26.8358 28.2893 26.97C28.301 27.1066 28.2871 27.2893 28.2591 27.5396ZM31.6877 27.5395L31.6877 27.5396C31.6228 28.1211 31.2318 28.5325 30.8167 28.6757C30.6096 28.7472 30.4016 28.7502 30.2265 28.6808C30.0535 28.6123 29.903 28.4694 29.8133 28.229L29.8133 28.2289C29.6325 27.7448 29.6727 27.3326 29.8652 27.0449C30.0574 26.7579 30.4158 26.573 30.9181 26.573C31.1308 26.573 31.2893 26.5823 31.4079 26.6082C31.5249 26.6337 31.5922 26.6732 31.6344 26.7256C31.6778 26.7793 31.7066 26.8613 31.7158 26.9964C31.7249 27.1315 31.7137 27.3077 31.6877 27.5395ZM8.1381 3.35135C8.1381 3.62246 8.13128 3.82288 8.10397 3.9739C8.07696 4.12322 8.03207 4.21146 7.96558 4.27008C7.89727 4.33031 7.79203 4.37191 7.617 4.39651C7.44227 4.42107 7.21204 4.42703 6.90476 4.42703C6.61988 4.42703 6.39935 4.41883 6.22787 4.39532C6.05571 4.37172 5.94264 4.33383 5.86607 4.28133C5.72287 4.18314 5.67143 4.00753 5.67143 3.61274C5.67143 3.01634 5.74386 2.70125 5.94054 2.5232C6.039 2.43407 6.17733 2.37127 6.37722 2.33135C6.57773 2.29132 6.83302 2.27568 7.15886 2.27568C7.39431 2.27568 7.57127 2.28495 7.70616 2.31257C7.83945 2.33986 7.92252 2.38328 7.97923 2.44507C8.03684 2.50783 8.07812 2.60129 8.10383 2.75033C8.12961 2.89979 8.1381 3.09465 8.1381 3.35135ZM16.1381 3.35135C16.1381 3.62246 16.1313 3.82288 16.104 3.9739C16.077 4.12322 16.0321 4.21146 15.9656 4.27008C15.8973 4.33031 15.792 4.37191 15.617 4.39651C15.4423 4.42107 15.212 4.42703 14.9048 4.42703C14.6199 4.42703 14.3994 4.41883 14.2279 4.39532C14.0557 4.37172 13.9426 4.33383 13.8661 4.28133C13.7229 4.18314 13.6714 4.00753 13.6714 3.61274C13.6714 3.01634 13.7439 2.70125 13.9405 2.5232C14.039 2.43407 14.1773 2.37127 14.3772 2.33135C14.5777 2.29132 14.833 2.27568 15.1589 2.27568C15.3943 2.27568 15.5713 2.28495 15.7062 2.31257C15.8395 2.33986 15.9225 2.38328 15.9792 2.44507C16.0368 2.50783 16.0781 2.60129 16.1038 2.75033C16.1296 2.89979 16.1381 3.09465 16.1381 3.35135ZM24.1381 3.35135C24.1381 3.62246 24.1313 3.82288 24.104 3.9739C24.077 4.12322 24.0321 4.21146 23.9656 4.27008C23.8973 4.33031 23.792 4.37191 23.617 4.39651C23.4423 4.42107 23.212 4.42703 22.9048 4.42703C22.6199 4.42703 22.3994 4.41883 22.2279 4.39532C22.0557 4.37172 21.9426 4.33383 21.8661 4.28133C21.7229 4.18314 21.6714 4.00753 21.6714 3.61274C21.6714 3.01634 21.7439 2.70125 21.9405 2.5232C22.039 2.43407 22.1773 2.37127 22.3772 2.33135C22.5777 2.29132 22.833 2.27568 23.1589 2.27568C23.3943 2.27568 23.5713 2.28495 23.7062 2.31257C23.8395 2.33986 23.9225 2.38328 23.9792 2.44507C24.0368 2.50783 24.0781 2.60129 24.1038 2.75033C24.1296 2.89979 24.1381 3.09465 24.1381 3.35135Z" fill="#D70000" stroke="#D70000" stroke-width="0.2"/>
</svg>
