<svg width="32" height="32" viewBox="0 0 32 32" fill="none" xmlns="http://www.w3.org/2000/svg">
<path fill-rule="evenodd" clip-rule="evenodd" d="M0.577647 0.590677L0 1.18111V11.4079V21.6346L0.644706 22.246C1.27012 22.8389 1.38565 22.8571 4.52706 22.8571H7.76471V22.2746C7.76471 21.6929 7.76259 21.6924 4.72471 21.613C3.05294 21.5694 1.59694 21.4436 1.48941 21.3337C1.18306 21.0194 1.11129 2.25829 1.41435 1.6794C1.65976 1.21023 1.86235 1.19699 7.83388 1.25907L14 1.32331L14.0711 2.58647C14.1365 3.74641 14.1892 3.84962 14.7181 3.84962C15.26 3.84962 15.2941 3.77047 15.2941 2.51549C15.2941 1.41955 15.1908 1.07549 14.7165 0.590677L14.1391 0H7.64706H1.15506L0.577647 0.590677ZM2.69694 2.94472C2.63318 3.1141 2.60941 6.60812 2.64353 10.7092L2.70588 18.1654L5.23529 18.2337L7.76471 18.3021V17.702C7.76471 17.1166 7.71765 17.1005 5.82353 17.0322L3.88235 16.9624L3.81976 10.406L3.75718 3.84962H8.24776H12.7386L12.6635 3.30827C12.5885 2.76908 12.5682 2.76668 7.70024 2.70195C3.89906 2.65119 2.78682 2.70532 2.69694 2.94472ZM8.94118 5.10797C8.67247 5.40319 8.39929 5.86322 8.33459 6.13053C8.26988 6.39783 8.24753 11.0381 8.28494 16.442L8.35294 26.2677L9.01318 26.848C9.64023 27.3995 9.83223 27.4286 12.8367 27.4286H16V26.8271V26.2256H13.2214C11.3694 26.2256 10.3092 26.1252 10.0419 25.9248C9.67365 25.6486 9.64588 24.8197 9.70282 15.7594L9.76471 5.89474H16H22.2353L22.3064 7.15789C22.3753 8.37967 22.4002 8.42105 23.0711 8.42105C23.7424 8.42105 23.7647 8.38376 23.7647 7.2717C23.7647 6.19645 23.3532 5.20541 22.7195 4.75549C22.5826 4.65829 19.5365 4.5772 15.9504 4.57504C9.50659 4.57143 9.42447 4.57768 8.94118 5.10797ZM10.9849 7.37371C10.8962 7.46466 10.8235 10.8555 10.8235 14.9094C10.8235 20.321 10.8986 22.3564 11.1059 22.5684C11.2871 22.7537 12.2144 22.8571 13.6941 22.8571C15.9969 22.8571 16 22.8564 16 22.2556C16 21.6642 15.9687 21.6541 14.1176 21.6541H12.2353V15.0376V8.42105H16.7224H21.2092L21.1341 7.8797C21.0591 7.34027 21.0414 7.3381 16.1026 7.27362C13.3767 7.23801 11.0736 7.28301 10.9849 7.37371ZM17.2835 9.73353L16.7059 10.324V20.5714V30.8189L17.2835 31.4093L17.8609 32H24.2706H30.6802L31.34 31.3535L32 30.707V20.5154V10.324L31.4223 9.73353C31.0531 9.35579 30.5472 9.14286 30.0189 9.14286H24.3529H17.8609L17.2835 9.73353ZM30.5878 10.8261C30.8892 11.4019 30.8151 30.1644 30.5104 30.4765C30.2028 30.7912 18.9235 30.8687 18.3593 30.5598C17.8925 30.3042 17.8824 30.0954 17.8824 20.6111C17.8824 13.3969 17.9544 10.8497 18.1647 10.6346C18.3694 10.4253 20.0819 10.3459 24.3918 10.3459C30.092 10.3459 30.3468 10.3656 30.5878 10.8261ZM19.4028 12.0876C19.3391 12.257 19.3153 15.751 19.3494 19.852L19.4118 27.3083H24.3529H29.2941V19.609V11.9098L24.4061 11.8448C20.6049 11.794 19.4927 11.8482 19.4028 12.0876ZM28.1802 19.5489L28.1176 26.1053L24.2941 26.1714L20.4706 26.2376V19.615V12.9925H24.3567H28.2428L28.1802 19.5489ZM6.98047 19.168C6.70988 19.4447 6.80941 20.3801 7.13929 20.6602C7.57059 21.0262 7.76471 20.762 7.76471 19.8094C7.76471 19.0549 7.39035 18.7489 6.98047 19.168ZM15.3529 23.7382C14.7654 23.9808 15.1612 25.5038 15.8118 25.5038C15.9153 25.5038 16 25.0707 16 24.5414C16 23.5903 15.928 23.501 15.3529 23.7382ZM23.5866 28.4287C23.1701 28.8546 23.2231 29.2131 23.7786 29.727C24.4155 30.3165 25.0588 29.9344 25.0588 28.9663C25.0588 28.403 24.9466 28.2572 24.4689 28.2002C24.1445 28.1614 23.7475 28.2642 23.5866 28.4287Z" fill="#D70000"/>
</svg>
