<svg width="40" height="39" viewBox="0 0 40 39" fill="none" xmlns="http://www.w3.org/2000/svg">
<path fill-rule="evenodd" clip-rule="evenodd" d="M20.3463 0.295177C12.3214 1.03503 6.23409 6.16096 3.03128 14.8755C1.27516 19.6536 -0.166507 29.0479 0.0155482 34.5289L0.101552 37.1205L1.72704 37.0974C2.62106 37.0846 5.87944 36.971 8.96787 36.8449C14.2241 36.6299 14.621 36.65 15.1743 37.1592C15.4994 37.4583 16.4008 37.9981 17.1772 38.3584C19.6482 39.5055 22.4527 39.1064 25.1318 37.2262C26.0101 36.6098 26.1656 36.6002 31.5383 36.8341C34.5667 36.9658 37.7095 37.0843 38.5223 37.0972L40 37.1205L39.9764 33.7707C39.9634 31.9284 39.7712 29.7001 39.5496 28.819C39.3223 27.916 39.1394 25.6071 39.1299 23.5276C39.1146 20.1144 39.0634 19.7855 38.4484 19.1395C38.0278 18.6976 37.7822 18.0734 37.7799 17.4405C37.774 15.7012 36.6645 11.8901 35.5136 9.65573C34.3994 7.4924 31.9512 4.87875 30.378 4.17356C28.1292 3.16515 27.3294 2.90096 26.0036 2.72765C24.6246 2.54735 24.5256 2.47686 24.3498 1.55379C24.1978 0.755981 23.3644 -0.156597 22.9518 0.0228308C22.9004 0.0452593 21.728 0.167888 20.3463 0.295177ZM23.0934 2.83105C23.5234 3.89015 23.6162 3.9452 25.516 4.2659C29.5238 4.94254 32.5162 7.18714 34.3492 10.8916C34.9223 12.0498 35.5293 13.8373 35.6984 14.8641C36.1765 17.7687 36.1996 17.7064 34.609 17.8072C33.4735 17.8791 33.1901 18.0064 33.1138 18.4786C32.917 19.7014 32.8153 19.8022 32.1042 19.4785C30.9484 18.9528 26.7265 12.7654 25.3118 9.52465C24.4928 7.64852 23.8896 7.70212 22.8067 9.74777C21.2791 12.6335 17.4243 16.5381 14.4354 18.2269C12.7222 19.1951 10.6856 19.7928 8.57746 19.9463C7.23244 20.0442 6.76696 20.2175 6.23409 20.819C4.83233 22.4012 5.69916 25.4241 7.85279 26.4649C8.37738 26.7183 8.80976 27.0737 8.8133 27.2545C8.83015 28.0783 12.0953 34.2554 12.7367 34.6769C12.8856 34.7748 10.8351 35.0096 8.17995 35.1983C5.52479 35.3873 2.98695 35.5988 2.53979 35.6684L1.72704 35.7951V33.0661C1.72704 26.1823 2.95769 19.4724 5.29337 13.6197C6.19331 11.3644 8.87448 7.5358 10.6211 6.01183C13.4539 3.53974 17.6235 1.82935 20.9791 1.76293C22.6427 1.73002 22.6474 1.73235 23.0934 2.83105ZM25.5387 13.454C26.3101 14.7758 27.278 16.3158 27.69 16.8765C30.219 20.3195 30.7959 20.9437 31.7295 21.2472C32.4663 21.4869 32.7677 21.7866 32.909 22.4205C33.2093 23.7673 32.82 24.4449 31.4023 25.0437C30.453 25.4448 30.0993 25.7603 30.0993 26.2059C30.0993 26.7696 29.2354 29.1479 28.5961 30.3441C28.2007 31.0846 28.2444 31.1492 29.1388 31.1489C29.8469 31.1484 30.0372 30.9413 30.6165 29.5399C30.9821 28.6553 31.2814 27.7427 31.2814 27.5117C31.2814 27.1415 32.1223 26.4888 32.5993 26.4888C32.6953 26.4888 32.9001 26.8165 33.0547 27.217C33.2267 27.6629 33.5678 27.9452 33.934 27.9452C34.7092 27.9452 34.7018 28.6259 33.9127 29.8839C32.9259 31.458 31.8882 31.8212 27.9631 31.9663L24.4966 32.0944L23.4457 31.1848C22.5505 30.4103 22.1616 30.2754 20.8224 30.2754C19.5634 30.2754 19.0947 30.4175 18.4684 30.9896C17.4331 31.9354 17.4237 33.247 18.4451 34.2537C19.139 34.9376 19.3698 34.9909 21.154 34.8788C22.7535 34.7786 23.1821 34.6417 23.5349 34.118C23.9413 33.5147 24.1795 33.4795 27.8493 33.4795C31.3134 33.4795 31.8681 33.4084 32.9743 32.8241C34.5085 32.0135 35.61 30.583 35.8707 29.0625C36.0128 28.2329 36.2696 27.8161 36.7795 27.5872C37.1705 27.4115 37.5449 27.3221 37.6114 27.3882C37.8505 27.6256 38.3745 32.1035 38.3745 33.9097V35.7544L37.2662 35.6384C35.2976 35.4325 28.9824 34.9359 28.3316 34.9359C27.9844 34.9359 27.7822 34.8048 27.8827 34.6446C27.9897 34.4739 27.6805 34.3533 27.137 34.3533C26.5149 34.3533 25.7953 34.6874 24.9541 35.3667C23.2956 36.7063 21.8636 37.2661 20.0963 37.2661C17.7083 37.2661 15.9078 36.179 13.7504 33.4346C13.0443 32.5366 10.0023 26.485 10.0023 25.9787C10.0023 25.7623 9.54152 25.3956 8.97851 25.1637C7.75703 24.6607 7.27441 23.8821 7.39853 22.6159C7.48927 21.6917 7.50907 21.6806 9.48862 21.4651C11.8379 21.2093 14.3494 20.2635 16.616 18.7806C18.3656 17.6362 23.3018 12.7139 23.3018 12.1138C23.3018 11.8121 23.8547 11.051 24.0737 11.051C24.1083 11.051 24.7677 12.1322 25.5387 13.454ZM37.0327 20.0049C37.6794 20.6923 37.7834 21.0698 37.7834 22.7295C37.7834 24.3709 37.6761 24.7702 37.0587 25.4268C36.6601 25.8506 36.139 26.1975 35.9008 26.1975C35.6623 26.1975 35.2571 26.277 35 26.3743C34.5889 26.5298 34.5324 26.1078 34.5324 22.8789V19.2068H35.4072C35.9809 19.2068 36.5401 19.4815 37.0327 20.0049ZM21.9632 32.1265C22.2987 32.3682 22.4388 32.707 22.3247 33.0003C22.0549 33.6936 19.5989 33.6749 19.3276 32.9773C18.9289 31.9537 20.8588 31.3307 21.9632 32.1265Z" fill="#D70000"/>
</svg>
