<svg width="27" height="25" viewBox="0 0 27 25" fill="none" xmlns="http://www.w3.org/2000/svg">
<path fill-rule="evenodd" clip-rule="evenodd" d="M0.100586 12.8301V24.9471H13.4711H26.8415V12.8301V0.713135H13.4711H0.100586V12.8301ZM2.80652 2.67805C2.80652 3.32779 2.6257 3.51805 1.93107 3.60025C1.19123 3.68802 1.05562 3.58224 1.05562 2.9181C1.05562 1.93138 1.33162 1.64221 2.15677 1.76371C2.61264 1.83085 2.80652 2.10331 2.80652 2.67805ZM6.14913 2.67805C6.14913 3.58257 6.06063 3.66051 5.03493 3.66051C4.07989 3.66051 3.92072 3.55146 3.92072 2.89649C3.92072 1.90453 4.15152 1.69559 5.24726 1.69559C6.03708 1.69559 6.14913 1.81775 6.14913 2.67805ZM9.59235 2.75992C9.68562 3.59338 9.60858 3.66051 8.55773 3.66051C7.50337 3.66051 7.42251 3.58912 7.42251 2.65742C7.42251 1.72277 7.49318 1.66121 8.45713 1.75683C9.31921 1.84231 9.50863 2.00965 9.59235 2.75992ZM12.8344 2.67805C12.8344 3.58257 12.7459 3.66051 11.7202 3.66051C10.7651 3.66051 10.606 3.55146 10.606 2.89649C10.606 1.90453 10.8368 1.69559 11.9325 1.69559C12.7223 1.69559 12.8344 1.81775 12.8344 2.67805ZM16.2776 2.75992C16.3709 3.59338 16.2938 3.66051 15.243 3.66051C14.1886 3.66051 14.1077 3.58912 14.1077 2.65742C14.1077 1.72277 14.1784 1.66121 15.1424 1.75683C16.0044 1.84231 16.1939 2.00965 16.2776 2.75992ZM19.5196 2.67805C19.5196 3.58257 19.4311 3.66051 18.4054 3.66051C17.4504 3.66051 17.2912 3.55146 17.2912 2.89649C17.2912 1.90453 17.522 1.69559 18.6177 1.69559C19.4076 1.69559 19.5196 1.81775 19.5196 2.67805ZM22.9628 2.75992C23.0561 3.59338 22.9791 3.66051 21.9282 3.66051C20.8738 3.66051 20.793 3.58912 20.793 2.65742C20.793 1.72277 20.8637 1.66121 21.8276 1.75683C22.6897 1.84231 22.8791 2.00965 22.9628 2.75992ZM25.8279 2.75992C25.9152 3.5377 25.8161 3.66051 25.1018 3.66051C24.2212 3.66051 23.7848 3.00881 24.1003 2.1639C24.4301 1.27936 25.712 1.72146 25.8279 2.75992ZM25.8123 12.9159L25.8976 21.0251L13.5561 20.9393L1.21479 20.8535L1.12979 12.7443L1.04448 4.63511L13.3861 4.72091L25.7273 4.80671L25.8123 12.9159ZM10.8183 9.11872C10.7015 9.23858 10.606 10.9379 10.606 12.895C10.606 15.6039 10.7101 16.494 11.0418 16.625C11.6097 16.8494 17.132 13.4078 17.132 12.8295C17.132 12.4024 12.0789 8.97496 11.3754 8.92485C11.1857 8.91143 10.9348 8.99854 10.8183 9.11872ZM15.222 12.8301C15.222 13.0289 14.47 13.638 13.5506 14.184L11.8793 15.1766V12.8301V10.4837L13.5506 11.4763C14.47 12.0222 15.222 12.6313 15.222 12.8301ZM2.80652 22.9822C2.80652 23.6372 2.64734 23.8009 2.01065 23.8009C1.37396 23.8009 1.1941 23.6159 1.11165 22.8761C1.01806 22.0351 1.09 21.9611 1.90751 22.0574C2.62665 22.1422 2.80652 22.3272 2.80652 22.9822ZM6.14913 23.0028C6.14913 23.9375 6.07846 23.999 5.11451 23.9034C4.25244 23.8179 4.06302 23.6506 3.9793 22.9003C3.88602 22.0669 3.96306 21.9997 5.01392 21.9997C6.06827 21.9997 6.14913 22.0711 6.14913 23.0028ZM9.59235 22.9003C9.50863 23.6506 9.31921 23.8179 8.45713 23.9034C7.49318 23.999 7.42251 23.9375 7.42251 23.0028C7.42251 22.0711 7.50337 21.9997 8.55773 21.9997C9.60858 21.9997 9.68562 22.0669 9.59235 22.9003ZM12.8344 23.0028C12.8344 23.9375 12.7637 23.999 11.7998 23.9034C10.9377 23.8179 10.7483 23.6506 10.6645 22.9003C10.5713 22.0669 10.6483 21.9997 11.6992 21.9997C12.7535 21.9997 12.8344 22.0711 12.8344 23.0028ZM16.2776 22.9003C16.1939 23.6506 16.0044 23.8179 15.1424 23.9034C14.1784 23.999 14.1077 23.9375 14.1077 23.0028C14.1077 22.0711 14.1886 21.9997 15.243 21.9997C16.2938 21.9997 16.3709 22.0669 16.2776 22.9003ZM19.5196 23.0028C19.5196 23.9375 19.4489 23.999 18.485 23.9034C17.6229 23.8179 17.4335 23.6506 17.3498 22.9003C17.2565 22.0669 17.3335 21.9997 18.3844 21.9997C19.4387 21.9997 19.5196 22.0711 19.5196 23.0028ZM22.9628 22.9003C22.8791 23.6506 22.6897 23.8179 21.8276 23.9034C20.8637 23.999 20.793 23.9375 20.793 23.0028C20.793 22.0711 20.8738 21.9997 21.9282 21.9997C22.9791 21.9997 23.0561 22.0669 22.9628 22.9003ZM25.8279 22.9003C25.712 23.9388 24.4301 24.3809 24.1003 23.4964C23.7848 22.6514 24.2212 21.9997 25.1018 21.9997C25.8161 21.9997 25.9152 22.1226 25.8279 22.9003Z" fill="#D70000"/>
</svg>
