<svg width="29" height="41" viewBox="0 0 29 41" fill="none" xmlns="http://www.w3.org/2000/svg">
<path fill-rule="evenodd" clip-rule="evenodd" d="M11.2317 0.427536C7.91746 1.67994 5.89653 3.64235 4.59895 6.8684C3.89281 8.62335 3.74656 9.62556 3.74656 12.7064C3.74656 16.368 3.72721 16.4535 2.50669 18.1874C0.713734 20.7349 -0.00782197 23.1452 6.38854e-05 26.5617C0.00938353 30.7694 1.27542 33.8857 4.19175 36.8807C5.66784 38.3967 6.19261 38.7577 8.76483 40.0271C10.523 40.895 11.1435 41 14.5 41C17.8565 41 18.477 40.895 20.2352 40.0271C22.8074 38.7577 23.3322 38.3967 24.8082 36.8807C27.7246 33.8857 28.9906 30.7694 28.9999 26.5617C29.0078 23.1452 28.2863 20.7349 26.4933 18.1874C25.2732 16.4542 25.2534 16.3666 25.2534 12.7176C25.2534 6.92126 23.5099 3.44611 19.4935 1.23821C17.2353 -0.00332719 13.3741 -0.382052 11.2317 0.427536ZM17.4436 2.47794C20.918 3.79406 22.5529 6.03962 23.1748 10.3497C23.7713 14.4824 23.639 14.6489 20.8811 13.2361C18.7293 12.134 18.4261 12.0789 14.5 12.0789C10.5739 12.0789 10.2707 12.134 8.11891 13.2361C5.36101 14.6489 5.22874 14.4824 5.8252 10.3497C6.43958 6.09248 8.07159 3.8147 11.4532 2.4964C13.762 1.5963 15.1058 1.59231 17.4436 2.47794ZM19.5183 14.7249C21.8704 15.8166 23.9548 17.7692 25.4993 20.328C26.8446 22.5565 26.8582 22.617 26.8575 26.3807C26.8571 29.8196 26.7636 30.3624 25.8779 32.0674C23.8781 35.9173 20.8155 38.1972 16.4435 39.0897C14.5674 39.4728 13.9197 39.4471 11.7837 38.9051C10.4191 38.5589 8.73795 37.9369 8.04794 37.5223C6.28903 36.4665 4.1957 34.1312 3.09275 31.9957C2.2651 30.3924 2.15505 29.7541 2.14502 26.4861C2.13498 23.2401 2.24216 22.5786 3.02608 21.055C4.05339 19.0575 7.26759 15.6743 8.69099 15.0917C11.9091 13.7745 12.2748 13.7025 15.0377 13.8368C16.9299 13.9291 18.454 14.2311 19.5183 14.7249ZM12.5809 24.3719C11.3353 25.5382 11.3141 27.1783 12.5285 28.405C13.1257 29.0082 13.4247 29.7125 13.4247 30.5166C13.4247 31.1803 13.6666 31.9258 13.9623 32.1738C14.7595 32.8418 15.5753 32.0036 15.5753 30.5166C15.5753 29.7125 15.8743 29.0082 16.4715 28.405C17.6859 27.1783 17.6647 25.5382 16.4191 24.3719C15.2112 23.2412 13.7888 23.2412 12.5809 24.3719Z" fill="#D70000"/>
</svg>
