<?xml version="1.0" encoding="utf-8"?><svg width="358" height="309" viewBox="0 0 358 309" xmlns="http://www.w3.org/2000/svg" xmlns:xlink="http://www.w3.org/1999/xlink"><view id="arrow_down" viewBox="183 271 19 36"/><svg width="19" height="36" fill="none" viewBox="-2 -2 19 36" x="183" y="271" xmlns="http://www.w3.org/2000/svg"><path d="M6.832 1.234V30.62H8.17V.286H6.832v.948z" fill="#fff"/><path d="M7.5 30.786l-6-6M13.5 24.786l-6 6" stroke="#fff" stroke-linecap="square"/></svg><view id="arrow_left" viewBox="210 98 14 22"/><svg width="14" height="22" fill="none" viewBox="-2 -2 14 22" x="210" y="98" xmlns="http://www.w3.org/2000/svg"><path d="M9 17L1 9l8-8" stroke="#fff" stroke-width="2" stroke-linejoin="round"/></svg><view id="arrow_right" viewBox="211 56 14 22"/><svg width="14" height="22" fill="none" viewBox="-2 -2 14 22" x="211" y="56" xmlns="http://www.w3.org/2000/svg"><path d="M1 1l8 8-8 8" stroke="#fff" stroke-width="2" stroke-linejoin="round"/></svg><view id="burger" viewBox="164 140 30 27"/><svg width="30" height="27" fill="none" viewBox="-2 -2 30 27" x="164" y="140" xmlns="http://www.w3.org/2000/svg"><rect y="18.568" width="26" height="3.882" rx="1" fill="#fff"/><rect y="9.509" width="26" height="3.882" rx="1" fill="#fff"/><rect y=".45" width="26" height="3.882" rx="1" fill="#fff"/></svg><view id="burger_close" viewBox="194 140 27 26"/><svg width="27" height="26" fill="none" viewBox="-2 -2 27 26" x="194" y="140" xmlns="http://www.w3.org/2000/svg"><path fill="#fff" d="M1.734 0l19.943 19.943-1.734 1.735L0 1.734z"/><path fill="#fff" d="M22.094 1.734L2.15 21.678.416 19.943 20.359 0z"/></svg><view id="burger_close_small" viewBox="237 202 23 22"/><svg width="23" height="22" fill="none" viewBox="-2 -2 23 22" x="237" y="202" xmlns="http://www.w3.org/2000/svg"><path fill="#fff" d="M1.414 0l16.263 16.263-1.414 1.415L0 1.414z"/><path fill="#fff" d="M18.017 1.415L1.753 17.678.34 16.264 16.602.001z"/></svg><view id="burger_small" viewBox="133 171 24 21"/><svg width="24" height="21" fill="none" viewBox="-2 -2 24 21" x="133" y="171" xmlns="http://www.w3.org/2000/svg"><rect y="14" width="20" height="3" rx="1" fill="#fff"/><rect y="7" width="20" height="3" rx="1" fill="#fff"/><rect width="20" height="3" rx="1" fill="#fff"/></svg><view id="circled_arrow" viewBox="314 158 40 41"/><svg width="40" height="41" fill="none" viewBox="-2 -2 40 41" x="314" y="158" xmlns="http://www.w3.org/2000/svg"><path d="M22.307 19.207a1 1 0 000-1.415l-6.364-6.364a1 1 0 00-1.414 1.415l5.657 5.657-5.657 5.656a1 1 0 001.414 1.415l6.364-6.364zM0 19.5h21.6v-2H0v2z" fill="#fff"/><path fill-rule="evenodd" clip-rule="evenodd" d="M34 18.5C34 27.611 26.608 35 17.486 35c-3.91 0-7.502-1.358-10.33-3.626-.541.43-1.11.826-1.703 1.187A18.45 18.45 0 0017.486 37C27.71 37 36 28.717 36 18.5S27.711 0 17.486 0A18.45 18.45 0 005.453 4.44c.593.36 1.162.756 1.702 1.186A16.453 16.453 0 0117.485 2C26.609 2 34 9.389 34 18.5z" fill="#B82800"/></svg><view id="circled_arrow_small" viewBox="76 271 35 36"/><svg width="35" height="36" fill="none" viewBox="-2 -2 35 36" x="76" y="271" xmlns="http://www.w3.org/2000/svg"><path d="M19.454 17.04a.863.863 0 000-1.222l-5.494-5.494a.863.863 0 10-1.221 1.221l4.883 4.884-4.883 4.883a.863.863 0 101.22 1.221l5.495-5.494zm-18.74.252h18.13v-1.727H.713v1.727z" fill="#2B2B2B"/><path fill-rule="evenodd" clip-rule="evenodd" d="M8.223 28.24c-.465.398-.955.77-1.466 1.112a15.468 15.468 0 008.633 2.616c8.582 0 15.54-6.957 15.54-15.54C30.93 7.847 23.973.89 15.39.89c-3.194 0-6.164.964-8.633 2.617.511.342 1 .714 1.466 1.112a13.749 13.749 0 017.167-2.002c7.629 0 13.813 6.184 13.813 13.813 0 7.629-6.184 13.813-13.813 13.813a13.75 13.75 0 01-7.167-2.003z" fill="#B82800"/></svg><view id="clipper" viewBox="157 171 21 20"/><svg width="21" height="20" fill="none" viewBox="-2 -2 21 20" x="157" y="171" xmlns="http://www.w3.org/2000/svg"><path d="M2.808 13.052a3.617 3.617 0 01.006-4.947h0l4.94-5.324a.38.38 0 000-.507.316.316 0 00-.472 0l-4.945 5.33a4.374 4.374 0 000 5.955c1.561 1.682 4.091 1.682 5.652 0l-.476-.502c-1.302 1.396-3.406 1.395-4.705-.005zm2.826-2.91c.52.56 1.364.56 1.884 0l3.532-3.807a.378.378 0 000-.508.316.316 0 00-.471 0L7.047 9.633a.632.632 0 01-.942 0 .758.758 0 010-1.015l.942-1.015 4.71-5.075-.471-.508-5.652 6.09c-.52.561-.52 1.47 0 2.031zm9.42-8.122C14.012.9 12.325.9 11.285 2.02l.47.508c.781-.841 2.046-.841 2.827 0 .78.84.78 2.204 0 3.045l-7.065 7.479.47.508 7.065-7.48c1.04-1.12 1.04-2.938 0-4.06z" fill="#2E71F0" stroke="#2E71F0" stroke-width=".5" stroke-miterlimit="10"/></svg><view id="dot_city" viewBox="0 202 45 69"/><svg width="45" height="69" fill="none" viewBox="-2 -2 45 69" y="202" xmlns="http://www.w3.org/2000/svg"><path d="M20.499 63.476l-.202-.334a334.431 334.431 0 01-2.317-3.908 340.96 340.96 0 01-7.03-12.625c-2.556-4.848-5.105-10.034-7.013-14.705C2.014 27.2.793 23.132.793 20.477.793 9.606 9.613.793 20.499.793c10.888 0 19.708 8.812 19.708 19.684 0 2.655-1.221 6.722-3.144 11.427-1.908 4.67-4.458 9.857-7.015 14.705a340.856 340.856 0 01-7.03 12.625 335.11 335.11 0 01-2.519 4.242z" fill="red" stroke="#fff" stroke-width="1.585"/><path d="M20.5 4C11.385 4 4 11.475 4 20.696 4 29.916 20.5 57 20.5 57S37 29.917 37 20.696C37 11.474 29.615 4 20.5 4z" fill="#fff"/><path d="M26.263 29.058h-4.606l2.585-10.392H17.11l1.842.893-2.377 9.5H12l2.466-9.947-.713-.446.921-3.666H29.8l-3.536 14.058z" fill="#D70000"/></svg><view id="logo_big" viewBox="0 56 182 42"/><svg width="182" height="42" fill="none" viewBox="-2 -2 182 42" y="56" xmlns="http://www.w3.org/2000/svg"><path d="M56.546 28.734h.666v1.67h.502l1.497-1.67h.744l-1.687 1.904 1.783 2.034h-.77l-1.558-1.766h-.51v1.766h-.667v-3.938zM62.745 28.637c1.246 0 2.138.851 2.138 2.066 0 1.216-.892 2.067-2.138 2.067-1.255 0-2.146-.85-2.146-2.067 0-1.215.891-2.066 2.146-2.066zm0 3.614c.84 0 1.437-.632 1.437-1.548 0-.908-.597-1.547-1.437-1.547-.848 0-1.436.64-1.436 1.547 0 .916.588 1.548 1.436 1.548zM66.15 28.735h.658l1.445 1.847 1.472-1.847h.666v3.938h-.64V29.61l-1.316 1.637h-.363L66.79 29.61v3.063h-.64v-3.938zM71.92 28.735h.64v3.063l2.38-3.063h.666v3.938h-.64V29.61l-2.389 3.063h-.658v-3.938zM78.99 28.637c.51 0 1.012.146 1.488.445l-.285.446c-.364-.234-.728-.356-1.117-.356-.882 0-1.497.624-1.497 1.531 0 .908.615 1.54 1.497 1.54.39 0 .753-.13 1.117-.364l.285.445c-.476.3-.978.446-1.488.446-1.238 0-2.12-.85-2.12-2.067 0-1.207.882-2.066 2.12-2.066zM83.28 28.637c.51 0 1.012.146 1.488.445l-.286.446c-.364-.234-.727-.356-1.117-.356-.882 0-1.497.624-1.497 1.531 0 .908.615 1.54 1.497 1.54.39 0 .753-.13 1.117-.364l.286.445c-.476.3-.978.446-1.489.446-1.238 0-2.12-.85-2.12-2.067 0-1.207.882-2.066 2.12-2.066zM85.86 28.735h.64v3.063l2.38-3.063h.666v3.938h-.64V29.61l-2.39 3.063h-.657v-3.938zM92.955 28.637c1.247 0 2.138.851 2.138 2.066 0 1.216-.891 2.067-2.138 2.067-1.254 0-2.146-.85-2.146-2.067 0-1.215.892-2.066 2.146-2.066zm0 3.614c.84 0 1.437-.632 1.437-1.548 0-.908-.597-1.547-1.437-1.547-.848 0-1.436.64-1.436 1.547 0 .916.589 1.548 1.436 1.548zM96.361 28.735h.684v1.677h2.31v-1.677h.693v3.938h-.693v-1.75h-2.31v1.75h-.684v-3.938zM101.572 28.735h.684v1.677h2.311v-1.677h.692v3.938h-.692v-1.75h-2.311v1.75h-.684v-3.938zM106.784 28.735h.64v1.523h1.281c.805 0 1.385.486 1.385 1.207 0 .713-.571 1.208-1.376 1.208h-1.93v-3.938zm.64 3.452h1.186c.493 0 .831-.291.831-.721s-.347-.721-.831-.721h-1.186v1.442zm3.661-3.452h.666v3.938h-.666v-3.938zM113.284 28.735h.641v3.062l2.379-3.063h.667v3.938h-.64V29.61l-2.389 3.063h-.657v-3.937h-.001zm.986-1.686c.035.421.364.705.823.705.458 0 .788-.284.822-.705h.458c-.025.705-.562 1.159-1.28 1.159-.719 0-1.255-.454-1.281-1.159h.458zM120.836 28.735h.658l1.446 1.847 1.47-1.847h.667v3.938h-.64V29.61l-1.316 1.637h-.363l-1.281-1.637v3.063h-.641v-3.938zM128.219 30.282c.294 0 .614.032.944.114v-.405c0-.503-.416-.86-1.03-.86-.45 0-.909.098-1.393.292l-.19-.47c.588-.21 1.125-.316 1.661-.316.952 0 1.61.552 1.61 1.37v1.904c0 .219.138.356.381.356.069 0 .172-.016.224-.024l.052.486c-.138.025-.294.04-.45.04-.459 0-.753-.25-.805-.655-.337.413-.882.656-1.462.656-.831 0-1.463-.511-1.463-1.184 0-.826.727-1.304 1.921-1.304zm-.294 2.018c.727 0 1.238-.486 1.238-1.183v-.333a3.986 3.986 0 00-.866-.097c-.831 0-1.324.325-1.324.86 0 .428.407.753.952.753zM131.515 28.735h2.769v.51h-2.086v3.428h-.684v-3.938h.001zM137.031 30.282c.294 0 .614.032.943.114v-.405c0-.503-.415-.86-1.029-.86-.45 0-.909.098-1.394.292l-.19-.47c.589-.21 1.125-.316 1.662-.316.952 0 1.609.552 1.609 1.37v1.904c0 .219.139.356.381.356.07 0 .173-.016.225-.024l.052.486c-.138.025-.294.04-.45.04-.459 0-.753-.25-.805-.655-.337.413-.882.656-1.462.656-.831 0-1.463-.511-1.463-1.184-.001-.826.727-1.304 1.921-1.304zm-.295 2.018c.728 0 1.238-.486 1.238-1.183v-.333a3.98 3.98 0 00-.866-.097c-.83 0-1.324.325-1.324.86 0 .428.407.753.952.753zM141.099 30.452h.398c.589 0 .969-.275.969-.664 0-.38-.329-.64-.857-.64-.372 0-.796.097-1.22.275l-.208-.47c.545-.21 1.03-.316 1.506-.316.874 0 1.445.438 1.445 1.078 0 .43-.294.81-.778.931.545.13.89.543.89 1.005 0 .656-.64 1.118-1.557 1.118-.51 0-1.056-.12-1.61-.348l.208-.462c.442.202.9.308 1.315.308.571 0 .97-.275.97-.68 0-.414-.424-.722-1.073-.722h-.398v-.413zM144.535 28.735h.64v3.063l2.38-3.063h.667v3.938h-.641V29.61l-2.388 3.063h-.658v-3.938zM149.746 28.735h.684v1.677h2.31v-1.677h.693v3.938h-.693v-1.75h-2.31v1.75h-.684v-3.938zM123.877 9.837l1.936 1.05-.3 1.048h10.068l-1.05 3.665h-10.062l-.749 2.614h11.159l-1.052 3.663-16.751.005.003-.005h-.003l3.298-11.51-.968-.53 1.045-3.662h16.777l-1.046 3.663h-12.305zM59.235 6.174l-1.05 3.663.969.542-3.296 11.503h5.593l3.146-10.996-1.934-1.049h8.958l-3.449 12.045h5.59L78.26 6.174H59.235zm57.225 10.742c-.79 2.74-4.925 4.966-9.235 4.966h-.008v-.005l-8.938.005 3.446-12.045-.972-.524.902-3.14h15.66l-1.049 3.664h-11.187l1.931 1.076-.294 1.022h3.37l.003.007c4.311 0 7.16 2.228 6.371 4.974zm-7.178-1.316h-3.616l-.747 2.614h3.74c1.001-.113 1.888-.65 2.076-1.298.198-.682-.442-1.236-1.453-1.316zm63.98 6.282l-7.206-4-2.855 4h-5.594l4.441-6.22-1.991-1.11h2.786l5.962-8.34h5.595l3.337 15.67h-4.475zm-1.117-5.269l-1.185-5.594-2.529 3.532 3.714 2.062zm-16.231 1.601h1.056l-1.048 3.663h-20.063l1.049-3.663h1.071c2.203-2.356 3.812-5.216 4.599-8.377l-.984-.506.902-3.157h16.857l-3.439 12.04zm-5.597 0l2.399-8.377h-6.769l2.071 1.05a7.391 7.391 0 01-.134.523 22.684 22.684 0 01-3.164 6.804h5.597zm-51.868-4.172c-1.33 4.645-6.976 8.41-12.603 8.41-5.633 0-9.112-3.765-7.785-8.41 1.333-4.64 6.978-8.403 12.609-8.403 5.627 0 9.114 3.762 7.78 8.403zM89.446 9.9c-2.776 0-5.558 1.857-6.215 4.14-.656 2.29 1.063 4.15 3.835 4.15 2.778 0 5.56-1.86 6.218-4.15.653-2.283-1.062-4.14-3.838-4.14zM38.99 0H1.592C.718 0 .007.664 0 1.484L0 1.492l.001.005v35.018C.007 37.335.718 38 1.593 38h37.396c.879 0 1.593-.667 1.593-1.49V1.492C40.58.669 39.867 0 38.989 0zM28.944 28.553h-7.419l4.193-14.651H14.2l2.975 1.275-3.83 13.376h-7.42L9.93 14.556l-1.17-.654 1.478-5.182h24.378l-5.67 19.833z" fill="#fff"/></svg><view id="logo_red" viewBox="0 0 226 56"/><svg width="226" height="56" fill="none" viewBox="-2 -2 226 56" xmlns="http://www.w3.org/2000/svg"><g clip-path="url(#amclip0)"><path d="M70.455 38.868h.836v2.213h.597l1.85-2.213h.956l-2.09 2.512 2.21 2.692h-.956l-1.91-2.333h-.657v2.333h-.836v-5.204zM78.157 38.748c1.553 0 2.687 1.136 2.687 2.752 0 1.615-1.134 2.751-2.686 2.751-1.553 0-2.687-1.136-2.687-2.752 0-1.615 1.134-2.751 2.686-2.751zm0 4.785c1.075 0 1.792-.837 1.792-2.034 0-1.196-.717-2.033-1.791-2.033-1.075 0-1.792.837-1.792 2.033 0 1.197.717 2.034 1.791 2.034zM82.396 38.868h.836l1.791 2.452 1.851-2.452h.836v5.264h-.776v-4.068l-1.612 2.154h-.538l-1.612-2.154v4.068h-.776v-5.264zM89.561 38.868h.776v4.067l2.986-4.067h.836v5.264h-.777v-4.068l-2.985 4.068h-.836v-5.264zM98.398 38.748c.657 0 1.254.18 1.851.598l-.358.598c-.478-.299-.896-.478-1.374-.478-1.074 0-1.85.837-1.85 2.033 0 1.197.776 2.034 1.85 2.034.478 0 .956-.18 1.374-.478l.358.598c-.597.419-1.194.598-1.851.598-1.552 0-2.627-1.136-2.627-2.752-.06-1.615 1.075-2.751 2.627-2.751zM103.711 38.748c.657 0 1.254.18 1.851.598l-.358.598c-.478-.299-.896-.478-1.373-.478-1.075 0-1.851.837-1.851 2.033 0 1.197.776 2.034 1.851 2.034.477 0 .955-.18 1.373-.478l.358.598c-.597.419-1.194.598-1.851.598-1.552 0-2.627-1.136-2.627-2.752 0-1.615 1.075-2.751 2.627-2.751zM106.936 38.868h.776v4.067l2.986-4.067h.836v5.264h-.776v-4.068l-2.986 4.068h-.836v-5.264zM115.772 38.748c1.553 0 2.687 1.136 2.687 2.752 0 1.615-1.134 2.751-2.687 2.751-1.552 0-2.686-1.136-2.686-2.752 0-1.615 1.134-2.751 2.686-2.751zm0 4.785c1.075 0 1.792-.837 1.792-2.034 0-1.196-.717-2.033-1.792-2.033-1.074 0-1.791.837-1.791 2.033 0 1.197.717 2.034 1.791 2.034zM120.012 38.868h.836v2.213h2.866v-2.213h.836v5.264h-.836v-2.333h-2.866v2.333h-.836v-5.264zM126.52 38.868h.836v2.213h2.866v-2.213h.835v5.264h-.835v-2.333h-2.866v2.333h-.836v-5.264zM132.969 38.868h.776v2.034h1.612c1.015 0 1.732.658 1.732 1.615s-.717 1.615-1.732 1.615h-2.388v-5.264zm.836 4.606h1.492c.597 0 1.015-.36 1.015-.957 0-.598-.418-.957-1.015-.957h-1.492v1.914zm4.537-4.606h.836v5.264h-.836v-5.264zM141.088 38.867h.777v4.068l2.985-4.068h.836v5.264h-.776v-4.067l-2.986 4.067h-.836v-5.264zm1.254-2.213c.06.538.478.957 1.015.957.597 0 .956-.359 1.015-.957h.597c-.059.957-.716 1.555-1.612 1.555-.895 0-1.552-.598-1.612-1.555h.597zM150.522 38.868h.836l1.791 2.452L155 38.868h.836v5.264h-.776v-4.068l-1.612 2.154h-.478l-1.612-2.154v4.068h-.776l-.06-5.264zM159.717 40.96c.358 0 .776.06 1.194.18v-.538c0-.658-.537-1.137-1.254-1.137-.537 0-1.134.12-1.731.36l-.239-.599a5.214 5.214 0 012.09-.419c1.194 0 2.03.718 2.03 1.855v2.512c0 .3.179.479.477.479.06 0 .239 0 .299-.06l.06.658c-.179.06-.359.06-.538.06-.597 0-.955-.36-1.015-.898a2.318 2.318 0 01-1.851.898c-1.015 0-1.851-.658-1.851-1.556-.119-1.196.836-1.794 2.329-1.794zm-.418 2.693c.896 0 1.552-.658 1.552-1.556v-.418c-.358-.06-.716-.12-1.074-.12-1.015 0-1.672.419-1.672 1.137.06.478.537.957 1.194.957zM163.777 38.868h3.463v.658h-2.627v4.546h-.836v-5.204zM170.643 40.96c.358 0 .776.06 1.194.18v-.538c0-.658-.537-1.137-1.254-1.137-.537 0-1.134.12-1.731.36l-.239-.599a5.214 5.214 0 012.09-.419c1.194 0 2.03.718 2.03 1.855v2.512c0 .3.179.479.477.479.06 0 .239 0 .299-.06l.06.658c-.18.06-.359.06-.538.06-.597 0-.955-.36-1.015-.898a2.32 2.32 0 01-1.851.898c-1.015 0-1.851-.658-1.851-1.556-.059-1.196.836-1.794 2.329-1.794zm-.358 2.693c.895 0 1.552-.658 1.552-1.556v-.418c-.358-.06-.716-.12-1.075-.12-1.015 0-1.671.419-1.671 1.137 0 .478.537.957 1.194.957zM175.718 41.14h.477c.717 0 1.194-.358 1.194-.897 0-.478-.417-.837-1.074-.837a3.42 3.42 0 00-1.493.359l-.239-.599a4.353 4.353 0 011.851-.418c1.075 0 1.791.598 1.791 1.436 0 .598-.358 1.076-.955 1.256.657.18 1.134.718 1.134 1.316 0 .897-.776 1.495-1.91 1.495-.657 0-1.314-.18-2.03-.478l.239-.599c.537.3 1.134.42 1.612.42.716 0 1.194-.36 1.194-.898s-.537-.957-1.314-.957h-.477v-.598zM180.017 38.868h.777v4.067l2.985-4.067h.836v5.264h-.776v-4.068l-2.986 4.068h-.836v-5.264zM186.525 38.868h.836v2.213h2.866v-2.213h.835v5.264h-.835v-2.333h-2.866v2.333h-.836v-5.264z" fill="#868685"/><path d="M154.283 13.684l2.388 1.376-.358 1.376h12.539l-1.314 4.905H155l-.956 3.47h13.912l-1.314 4.905h-20.837l4.12-15.314-1.195-.718 1.314-4.905h20.897l-1.313 4.905h-15.345zM73.798 8.84l-1.313 4.905 1.194.718-4.12 15.313h6.986l3.94-14.655-2.388-1.376h11.165l-4.299 16.031h6.986L97.562 8.84H73.798zm71.231 14.296c-.956 3.65-6.15 6.64-11.524 6.64H122.4l4.299-16.031-1.195-.718 1.135-4.187h19.524l-1.314 4.905h-13.911l2.388 1.436-.358 1.375h4.179c5.314-.06 8.897 2.932 7.882 6.58zm-8.897-1.734h-4.478l-.955 3.47h4.657c1.254-.18 2.329-.838 2.567-1.735.239-.898-.537-1.675-1.791-1.735zm79.649 8.315l-8.956-5.324-3.582 5.324h-6.986l5.553-8.315-2.508-1.496h3.463l7.404-11.126h6.985l4.18 20.877h-5.553v.06zm-1.373-7l-1.493-7.477-3.164 4.726 4.657 2.752zm-20.241 2.154h1.314l-1.314 4.905H169.15l1.314-4.905h1.313a25.314 25.314 0 005.732-11.186l-1.254-.658 1.135-4.187h21.016l-4.239 16.031zm-6.926 0l2.986-11.186h-8.419l2.567 1.376-.179.718c-.836 3.29-2.209 6.28-3.94 9.092h6.985zm-64.603-5.563c-1.671 6.162-8.717 11.186-15.702 11.186-7.046 0-11.345-5.024-9.673-11.186 1.672-6.161 8.717-11.186 15.703-11.186 6.986 0 11.285 4.965 9.672 11.186zm-11.224-5.503c-3.463 0-6.926 2.452-7.762 5.503-.836 3.05 1.313 5.504 4.776 5.504s6.926-2.453 7.762-5.504c.776-3.05-1.313-5.503-4.776-5.503zM48.542.583H1.97A1.99 1.99 0 000 2.557v46.659a1.99 1.99 0 001.97 1.974h46.572a1.99 1.99 0 001.97-1.974V2.557c0-1.077-.836-1.974-1.97-1.974zm-12.48 38.045h-9.254l5.195-19.501h-14.33l3.702 1.675L16.6 38.628H7.404l4.955-18.664-1.433-.837 1.851-6.88h30.391l-7.105 26.38z" fill="#D70000"/></g><defs><clipPath id="amclip0"><path fill="#fff" d="M0 .583h221.333V51.25H0z"/></clipPath></defs></svg><view id="logo_red_small" viewBox="226 0 132 33"/><svg width="132" height="33" fill="none" viewBox="-2 -2 132 33" x="226" xmlns="http://www.w3.org/2000/svg"><path d="M40.745 21.913h.483v1.267h.345l1.07-1.267h.553l-1.208 1.438 1.277 1.54h-.552l-1.105-1.335h-.38v1.336h-.483v-2.98zM45.2 21.844c.897 0 1.553.65 1.553 1.575 0 .925-.656 1.575-1.554 1.575s-1.554-.65-1.554-1.575c0-.924.656-1.575 1.554-1.575zm0 2.74c.62 0 1.035-.48 1.035-1.165 0-.684-.414-1.164-1.036-1.164-.621 0-1.036.48-1.036 1.164 0 .685.415 1.164 1.036 1.164zM47.65 21.913h.484l1.036 1.404 1.07-1.404h.484v3.013h-.45v-2.328l-.931 1.232h-.311l-.932-1.232v2.328h-.45v-3.013zM51.794 21.913h.449v2.328l1.726-2.328h.484v3.013h-.45v-2.328l-1.726 2.328h-.483v-3.013zM56.904 21.844c.38 0 .725.103 1.07.343l-.206.342c-.277-.171-.518-.274-.795-.274-.621 0-1.07.48-1.07 1.164 0 .685.449 1.164 1.07 1.164.277 0 .553-.102.795-.273l.207.342c-.346.24-.69.342-1.07.342-.898 0-1.52-.65-1.52-1.575-.034-.924.622-1.575 1.52-1.575zM59.977 21.844c.38 0 .725.103 1.07.343l-.206.342c-.277-.171-.518-.274-.795-.274-.621 0-1.07.48-1.07 1.164 0 .685.449 1.164 1.07 1.164.277 0 .553-.102.795-.273l.207.342c-.346.24-.69.342-1.07.342-.898 0-1.52-.65-1.52-1.575 0-.924.622-1.575 1.52-1.575zM61.842 21.913h.449v2.328l1.726-2.328h.484v3.013h-.45v-2.328l-1.726 2.328h-.483v-3.013zM66.953 21.844c.897 0 1.553.65 1.553 1.575 0 .925-.656 1.575-1.553 1.575-.898 0-1.554-.65-1.554-1.575 0-.924.656-1.575 1.553-1.575zm0 2.74c.621 0 1.035-.48 1.035-1.165 0-.684-.414-1.164-1.035-1.164-.622 0-1.036.48-1.036 1.164 0 .685.414 1.164 1.035 1.164zM69.404 21.913h.483v1.267h1.658v-1.267h.483v3.013h-.483V23.59h-1.658v1.335h-.483v-3.013zM73.168 21.913h.483v1.267h1.657v-1.267h.484v3.013h-.484V23.59h-1.657v1.335h-.483v-3.013zM76.897 21.913h.449v1.164h.932c.587 0 1.001.377 1.001.924 0 .548-.414.925-1.001.925h-1.381v-3.013zm.483 2.636h.863c.346 0 .587-.205.587-.548 0-.342-.241-.547-.587-.547h-.863v1.095zm2.624-2.636h.484v3.013h-.484v-3.013zM81.593 21.913h.448v2.328l1.727-2.328h.483v3.013h-.449v-2.328l-1.726 2.328h-.483v-3.013zm.725-1.267a.597.597 0 00.587.548c.345 0 .552-.206.587-.548h.345c-.035.548-.414.89-.932.89s-.898-.342-.933-.89h.346zM87.048 21.913h.483l1.036 1.404 1.07-1.404h.484v3.013h-.449v-2.328l-.932 1.232h-.276l-.933-1.232v2.328h-.448l-.035-3.013zM92.366 23.111c.207 0 .449.034.69.103v-.308c0-.377-.31-.65-.725-.65-.31 0-.656.068-1.001.205l-.138-.343c.414-.17.794-.24 1.208-.24.691 0 1.174.412 1.174 1.062v1.438c0 .171.104.274.277.274.034 0 .138 0 .172-.034l.035.376c-.104.035-.207.035-.31.035-.346 0-.553-.206-.588-.514a1.346 1.346 0 01-1.07.514c-.587 0-1.07-.377-1.07-.89-.07-.685.483-1.028 1.346-1.028zm-.242 1.54c.518 0 .898-.376.898-.89v-.239a3.838 3.838 0 00-.622-.068c-.587 0-.966.24-.966.65.034.274.31.548.69.548zM94.714 21.913h2.003v.377h-1.52v2.602h-.483v-2.98zM98.685 23.111c.207 0 .449.034.69.103v-.308c0-.377-.31-.65-.725-.65-.31 0-.656.068-1.001.205l-.138-.343c.414-.17.794-.24 1.208-.24.69 0 1.174.412 1.174 1.062v1.438c0 .171.104.274.276.274.035 0 .139 0 .173-.034l.035.376c-.104.035-.208.035-.311.035-.345 0-.553-.206-.587-.514a1.346 1.346 0 01-1.07.514c-.588 0-1.07-.377-1.07-.89-.035-.685.483-1.028 1.346-1.028zm-.207 1.54c.518 0 .897-.376.897-.89v-.239c-.207-.034-.414-.068-.621-.068-.587 0-.967.24-.967.65 0 .274.31.548.69.548zM101.62 23.214h.276c.414 0 .691-.206.691-.514 0-.274-.242-.48-.622-.48-.276 0-.587.07-.863.206l-.138-.342c.38-.171.725-.24 1.07-.24.622 0 1.036.343 1.036.822 0 .342-.207.616-.552.719.379.103.656.41.656.753 0 .514-.449.856-1.105.856-.38 0-.76-.102-1.174-.274l.138-.342c.311.171.656.24.932.24.415 0 .691-.206.691-.514 0-.308-.311-.548-.76-.548h-.276v-.342zM104.106 21.913h.449v2.328l1.726-2.328h.483v3.013h-.448v-2.328l-1.727 2.328h-.483v-3.013zM107.87 21.913h.483v1.267h1.657v-1.267h.484v3.013h-.484V23.59h-1.657v1.335h-.483v-3.013z" fill="#868685"/><path d="M89.224 7.498l1.38.788-.206.787h7.25l-.759 2.808h-7.251l-.553 1.986h8.046l-.76 2.807h-12.05l2.382-8.765-.69-.41.759-2.808h12.085l-.76 2.807h-8.873zM42.678 4.725l-.76 2.808.691.41-2.382 8.765h4.04l2.278-8.388-1.38-.788h6.456l-2.486 9.176h4.04l3.246-11.983H42.678zm41.194 8.183c-.553 2.088-3.557 3.8-6.665 3.8h-6.422l2.486-9.175-.69-.411.656-2.397h11.29l-.759 2.808h-8.045l1.38.821-.206.788h2.417c3.073-.035 5.145 1.677 4.558 3.766zm-5.145-.993h-2.59l-.552 1.986h2.693c.725-.103 1.346-.48 1.485-.993.138-.514-.311-.959-1.036-.993zm46.062 4.76l-5.18-3.048-2.071 3.047h-4.04l3.211-4.759-1.45-.856h2.002l4.282-6.368h4.04L128 16.64h-3.211v.034zm-.794-4.007l-.864-4.28-1.83 2.705 2.694 1.575zm-11.706 1.233h.76l-.76 2.807H97.821l.76-2.807h.76a14.436 14.436 0 003.314-6.403l-.725-.376.656-2.397h12.155l-2.452 9.176zm-4.005 0l1.726-6.403h-4.868l1.484.788-.103.41c-.484 1.884-1.278 3.596-2.279 5.205h4.04zm-37.36-3.184c-.968 3.526-5.042 6.402-9.082 6.402-4.075 0-6.56-2.876-5.594-6.402.967-3.527 5.041-6.403 9.081-6.403 4.04 0 6.526 2.842 5.594 6.403zm-6.492-3.15c-2.003 0-4.006 1.404-4.49 3.15-.483 1.746.76 3.15 2.763 3.15s4.005-1.404 4.489-3.15c.449-1.746-.76-3.15-2.762-3.15zM28.072 0H1.14C.518 0 0 .514 0 1.13v26.706c0 .616.518 1.13 1.14 1.13h26.932c.622 0 1.14-.514 1.14-1.13V1.13c0-.616-.484-1.13-1.14-1.13zm-7.216 21.776h-5.352l3.004-11.162H10.22l2.14.959L9.6 21.776H4.282l2.866-10.683-.83-.479L7.39 6.677h17.576l-4.11 15.099z" fill="#D70000"/></svg><view id="logo_small" viewBox="0 171 133 31"/><svg width="133" height="31" fill="none" viewBox="-2 -2 133 31" y="171" xmlns="http://www.w3.org/2000/svg"><path d="M41.041 20.416h.484v1.186h.364l1.087-1.186h.54L42.29 21.77l1.294 1.445h-.559l-1.13-1.255h-.371v1.255h-.484v-2.797zM45.541 20.348c.905 0 1.551.604 1.551 1.468s-.646 1.468-1.55 1.468c-.912 0-1.559-.604-1.559-1.468s.647-1.468 1.558-1.468zm0 2.567c.61 0 1.043-.449 1.043-1.1 0-.644-.434-1.099-1.043-1.099-.615 0-1.043.455-1.043 1.1 0 .65.428 1.1 1.043 1.1zM48.012 20.417h.477l1.05 1.313 1.067-1.313h.484v2.798h-.465v-2.176l-.955 1.163h-.264l-.93-1.163v2.176h-.464v-2.798zM52.2 20.417h.464v2.176l1.727-2.176h.484v2.798h-.465v-2.176l-1.733 2.176h-.478v-2.798zM57.33 20.348c.371 0 .736.103 1.081.316l-.207.317a1.488 1.488 0 00-.81-.254c-.641 0-1.087.444-1.087 1.088 0 .645.446 1.095 1.086 1.095.283 0 .547-.092.81-.26l.208.317c-.346.213-.71.317-1.08.317-.899 0-1.539-.604-1.539-1.468 0-.858.64-1.468 1.539-1.468zM60.444 20.348c.37 0 .735.103 1.08.316l-.207.317a1.488 1.488 0 00-.81-.254c-.641 0-1.087.444-1.087 1.088 0 .645.446 1.095 1.087 1.095.282 0 .546-.092.81-.26l.207.317c-.345.213-.71.317-1.08.317-.899 0-1.539-.604-1.539-1.468 0-.858.64-1.468 1.539-1.468zM62.317 20.417h.464v2.176l1.727-2.176h.484v2.798h-.465v-2.176l-1.734 2.176h-.477v-2.798zM67.466 20.348c.905 0 1.551.604 1.551 1.468s-.646 1.468-1.551 1.468c-.91 0-1.558-.604-1.558-1.468s.647-1.468 1.558-1.468zm0 2.567c.61 0 1.043-.449 1.043-1.1 0-.644-.434-1.099-1.043-1.099-.616 0-1.042.455-1.042 1.1 0 .65.427 1.1 1.042 1.1zM69.939 20.417h.496v1.192h1.677v-1.192h.502v2.798h-.502V21.97h-1.677v1.244h-.496v-2.798zM73.72 20.417h.497v1.192h1.677v-1.192h.502v2.798h-.502V21.97h-1.677v1.244h-.496v-2.798zM77.503 20.417h.465v1.082h.93c.584 0 1.004.346 1.004.858 0 .507-.414.858-.998.858h-1.4v-2.798h-.001zm.465 2.453h.86c.358 0 .603-.207.603-.512 0-.306-.251-.513-.603-.513h-.86v1.025zm2.657-2.453h.483v2.798h-.483v-2.798zM82.22 20.417h.466v2.176l1.727-2.176h.484v2.797h-.465v-2.176L82.7 23.215h-.478v-2.798zm.717-1.198c.025.3.264.501.597.501.332 0 .571-.202.596-.5h.333c-.019.5-.408.823-.93.823-.52 0-.91-.323-.929-.824h.333zM87.703 20.417h.477l1.05 1.313 1.067-1.313h.484v2.798h-.465v-2.176l-.955 1.163h-.263l-.93-1.163v2.176h-.465v-2.798zM93.06 21.516c.214 0 .446.023.685.081v-.288c0-.357-.301-.61-.747-.61-.327 0-.66.069-1.011.207l-.138-.334c.427-.15.816-.224 1.206-.224.69 0 1.168.391 1.168.973v1.352c0 .156.1.254.276.254.05 0 .126-.011.163-.017l.038.345c-.1.018-.213.029-.327.029-.333 0-.546-.179-.584-.466-.245.293-.64.466-1.061.466-.603 0-1.062-.363-1.062-.84 0-.588.528-.928 1.395-.928zm-.213 1.434c.528 0 .898-.345.898-.84v-.237a2.952 2.952 0 00-.628-.069c-.603 0-.961.23-.961.61 0 .305.295.536.69.536zM95.453 20.417h2.01v.363h-1.514v2.435h-.497v-2.798zM99.457 21.516c.213 0 .445.023.684.081v-.288c0-.357-.301-.61-.747-.61-.326 0-.66.069-1.011.207l-.138-.334c.427-.15.816-.224 1.206-.224.691 0 1.168.391 1.168.973v1.352c0 .156.1.254.276.254.051 0 .126-.011.164-.017l.037.345c-.1.018-.213.029-.326.029-.333 0-.546-.179-.584-.466-.245.293-.64.466-1.062.466-.603 0-1.061-.363-1.061-.84 0-.588.527-.928 1.394-.928zm-.214 1.434c.528 0 .898-.345.898-.84v-.237a2.945 2.945 0 00-.628-.069c-.603 0-.96.23-.96.61 0 .305.294.536.69.536zM102.408 21.637h.289c.428 0 .703-.195.703-.471 0-.271-.238-.456-.621-.456-.27 0-.578.07-.886.196l-.151-.334c.396-.15.748-.224 1.093-.224.634 0 1.049.31 1.049.765 0 .305-.213.576-.565.662.396.093.647.386.647.714 0 .466-.465.795-1.131.795-.37 0-.766-.086-1.168-.248l.151-.328c.32.144.653.22.954.22.415 0 .704-.197.704-.485 0-.294-.308-.512-.779-.512h-.289v-.294zM104.902 20.417h.465v2.176l1.727-2.176h.484v2.798h-.464v-2.176l-1.734 2.176h-.477v-2.798h-.001zM108.685 20.417h.496v1.192h1.677v-1.192h.502v2.798h-.502V21.97h-1.677v1.244h-.496v-2.798zM89.909 6.99l1.405.745-.218.745h7.307l-.762 2.604H90.34l-.544 1.857h8.099l-.764 2.603-12.158.004.003-.004h-.003l2.394-8.179-.703-.375.76-2.603h12.176l-.76 2.603h-8.93zM42.992 4.386l-.762 2.602.704.385-2.393 8.174h4.06l2.283-7.813-1.404-.746h6.502l-2.503 8.559h4.057L56.8 4.387H42.992zm41.533 7.632c-.573 1.947-3.574 3.528-6.702 3.528h-.006v-.003l-6.487.003L73.83 6.99l-.706-.372.655-2.23h11.366l-.761 2.602h-8.12l1.401.765-.212.726h2.445l.003.005c3.128 0 5.196 1.583 4.623 3.534zm-5.21-.935h-2.623l-.542 1.857h2.714c.726-.08 1.37-.461 1.506-.922.144-.484-.32-.878-1.054-.935zm46.437 4.464l-5.23-2.842-2.072 2.842h-4.06l3.223-4.42-1.446-.79h2.023l4.327-5.924h4.061L129 15.548h-3.248zm-.811-3.744l-.86-3.975-1.835 2.51 2.695 1.465zm-11.78 1.137h.766l-.76 2.603H98.605l.761-2.603h.777c1.6-1.674 2.768-3.706 3.339-5.952l-.715-.359.655-2.243h12.235l-2.496 8.555zm-4.062 0l1.741-5.952h-4.913l1.503.746c-.028.126-.06.25-.097.372a15.988 15.988 0 01-2.296 4.835h4.062zM71.454 9.977c-.966 3.3-5.064 5.976-9.148 5.976-4.088 0-6.613-2.676-5.65-5.976.968-3.297 5.065-5.97 9.152-5.97 4.084 0 6.614 2.673 5.646 5.97zm-6.535-2.942c-2.015 0-4.034 1.32-4.51 2.942-.477 1.626.77 2.948 2.783 2.948 2.016 0 4.035-1.322 4.513-2.948.474-1.623-.771-2.942-2.786-2.942zM28.298 0H1.156C.52 0 .005.472 0 1.054L0 1.06v24.885C.006 26.528.522 27 1.157 27h27.142c.638 0 1.156-.474 1.156-1.058V1.06c0-.584-.518-1.06-1.156-1.06zm-7.29 20.288h-5.384l3.042-10.41h-8.36l2.16.905-2.78 9.505H4.302l2.905-9.945-.85-.466L7.43 6.196h17.694l-4.116 14.092z" fill="#fff"/></svg><view id="map_marker_red" viewBox="226 33 93 125"/><svg width="93" height="125" fill="none" viewBox="-2 -2 93 125" x="226" y="33" xmlns="http://www.w3.org/2000/svg"><path d="M44.454 0C20.291 0 .632 19.658.632 43.821c0 29.988 39.216 74.011 40.886 75.87a3.947 3.947 0 005.872 0c1.67-1.859 40.886-45.882 40.886-75.87C88.276 19.658 68.617 0 44.454 0zm0 65.87c-12.157 0-22.048-9.891-22.048-22.049 0-12.157 9.891-22.047 22.048-22.047 12.157 0 22.047 9.89 22.047 22.048 0 12.157-9.89 22.047-22.047 22.047z" fill="#B82800"/></svg><view id="new_logo" viewBox="0 98 181 42"/><svg width="181" height="42" fill="none" viewBox="-2 -2 181 42" y="98" xmlns="http://www.w3.org/2000/svg"><path d="M123.02 15.198l1.936 1.05-.301 1.048h10.068l-1.05 3.665h-10.061l-.75 2.614h11.16l-1.053 3.663-16.751.005.003-.005h-.003l3.298-11.511-.968-.528 1.045-3.663h16.777l-1.045 3.663H123.02zm-64.643-3.663l-1.05 3.663.97.541L55 27.243h5.594l3.145-10.996-1.934-1.049h8.958l-3.449 12.045h5.591l4.496-15.708H58.377zm57.225 10.742c-.789 2.74-4.925 4.966-9.234 4.966h-.009v-.005l-8.938.005 3.446-12.045-.972-.524.902-3.14h15.661l-1.049 3.664h-11.187l1.93 1.076-.293 1.022h3.369l.004.007c4.31 0 7.159 2.227 6.37 4.974zm-7.178-1.316h-3.615l-.747 2.614h3.74c1.001-.113 1.887-.65 2.075-1.298.198-.682-.442-1.236-1.453-1.316zm63.981 6.282l-7.207-4-2.855 4h-5.593l4.441-6.22-1.992-1.111h2.786l5.962-8.338h5.596l3.337 15.67h-4.475zm-1.117-5.27l-1.186-5.593-2.528 3.532 3.714 2.062zm-16.232 1.602h1.056l-1.048 3.663h-20.063l1.049-3.663h1.071c2.203-2.357 3.813-5.217 4.599-8.377l-.984-.506.902-3.157h16.857l-3.439 12.04zm-5.596 0l2.399-8.377h-6.77l2.072 1.05a7.398 7.398 0 01-.135.523 22.684 22.684 0 01-3.163 6.804h5.597zm-51.868-4.172c-1.33 4.645-6.977 8.41-12.603 8.41-5.633 0-9.113-3.765-7.786-8.41C78.537 14.762 84.181 11 89.813 11c5.627 0 9.113 3.762 7.779 8.402zm-9.004-4.141c-2.776 0-5.557 1.857-6.214 4.14-.657 2.289 1.062 4.15 3.834 4.15 2.779 0 5.56-1.861 6.219-4.15.652-2.283-1.063-4.14-3.839-4.14zM38.99 0H1.592C.718 0 .007.664 0 1.484L0 1.492l.001.005v35.018C.007 37.335.718 38 1.593 38h37.396c.879 0 1.593-.667 1.593-1.49V1.492C40.58.669 39.867 0 38.989 0zM28.944 28.553h-7.419l4.193-14.651H14.2l2.975 1.275-3.83 13.376h-7.42L9.93 14.556l-1.17-.654 1.478-5.182h24.378l-5.67 19.833z" fill="#fff"/></svg><view id="new_logo_min" viewBox="0 140 133 31"/><svg width="133" height="31" fill="none" viewBox="-2 -2 133 31" y="140" xmlns="http://www.w3.org/2000/svg"><path d="M89.909 10.99l1.405.745-.218.745h7.307l-.762 2.604H90.34l-.544 1.858h8.099l-.764 2.602-12.158.004.003-.004h-.003l2.394-8.179-.703-.375.76-2.603h12.176l-.76 2.603h-8.93zM42.992 8.386l-.762 2.602.704.385-2.393 8.174h4.06l2.283-7.813-1.404-.745h6.502l-2.503 8.558h4.057L56.8 8.387H42.992zm41.533 7.632c-.573 1.947-3.574 3.528-6.702 3.528h-.006v-.003l-6.487.003 2.501-8.558-.706-.372.655-2.23h11.366l-.761 2.602h-8.12l1.401.765-.212.726h2.445l.003.005c3.128 0 5.196 1.583 4.623 3.534zm-5.21-.935h-2.623l-.542 1.858h2.714c.726-.081 1.37-.462 1.506-.923.144-.484-.32-.878-1.054-.935zm46.437 4.464l-5.23-2.842-2.072 2.842h-4.06l3.223-4.42-1.446-.79h2.023l4.327-5.924h4.061L129 19.548h-3.248zm-.811-3.744l-.86-3.975-1.835 2.51 2.695 1.465zm-11.78 1.138h.766l-.76 2.602H98.605l.761-2.602h.777c1.6-1.675 2.768-3.707 3.339-5.953l-.715-.359.655-2.243h12.235l-2.496 8.555zm-4.062 0l1.741-5.953h-4.913l1.503.746c-.028.126-.06.25-.097.372a15.988 15.988 0 01-2.296 4.835h4.062zm-37.645-2.965c-.966 3.3-5.064 5.976-9.148 5.976-4.088 0-6.613-2.676-5.65-5.976.968-3.297 5.065-5.97 9.152-5.97 4.084 0 6.614 2.673 5.646 5.97zm-6.535-2.942c-2.015 0-4.034 1.32-4.51 2.942-.477 1.626.77 2.948 2.783 2.948 2.016 0 4.035-1.322 4.513-2.948.474-1.623-.771-2.942-2.786-2.942zM28.298 0H1.156C.52 0 .005.472 0 1.054L0 1.06v24.885C.006 26.528.522 27 1.157 27h27.142c.638 0 1.156-.474 1.156-1.058V1.06c0-.584-.518-1.06-1.156-1.06zm-7.29 20.288h-5.384l3.042-10.41h-8.36l2.16.905-2.78 9.505H4.302l2.905-9.945-.85-.466L7.43 6.196h17.694l-4.116 14.092z" fill="#fff"/></svg><view id="phone" viewBox="178 171 17 18"/><svg width="17" height="18" fill="none" viewBox="-2 -2 17 18" x="178" y="171" xmlns="http://www.w3.org/2000/svg"><path d="M11.547 9.728c-.818-.711-1.69-1.15-2.507-.438l-.49.438c-.382.329-1.037 1.807-3.653-1.204-2.616-3.01-1.035-3.504-.708-3.832l.49-.438c.818-.712.49-1.642-.109-2.573l-.381-.547C3.644.203 2.989-.4 2.118.312l-.436.384A4.096 4.096 0 00.046 3.488c-.272 1.97.654 4.27 2.835 6.788 2.18 2.518 4.305 3.777 6.268 3.722 1.69 0 2.67-.93 2.997-1.259l.436-.383c.818-.712.327-1.478-.545-2.19l-.49-.438z" fill="#B82800"/></svg><view id="placemarker" viewBox="319 33 39 51"/><svg width="39" height="51" fill="none" viewBox="-2 -2 39 51" x="319" y="33" xmlns="http://www.w3.org/2000/svg"><path d="M17.022 0C7.636 0 0 7.636 0 17.021 0 28.67 15.233 45.77 15.881 46.492c.61.679 1.673.678 2.281 0 .649-.722 15.881-17.822 15.881-29.47C34.043 7.636 26.407 0 17.022 0zm0 25.585c-4.723 0-8.564-3.841-8.564-8.564 0-4.722 3.841-8.563 8.564-8.563 4.722 0 8.563 3.841 8.563 8.564 0 4.722-3.841 8.564-8.563 8.564z" fill="#757575"/></svg><view id="placemarker_small" viewBox="260 202 17 22"/><svg width="17" height="22" fill="none" viewBox="-2 -2 17 22" x="260" y="202" xmlns="http://www.w3.org/2000/svg"><path d="M6.5 0C2.92 0 0 2.937 0 6.537 0 11.842 6.5 18 6.5 18S13 11.842 13 6.537C13 2.937 10.08 0 6.5 0z" fill="#C20000"/><ellipse cx="6.65" cy="6.59" rx="3.325" ry="3.295" fill="#fff"/></svg><view id="questions_iphone" viewBox="111 271 36 36"/><svg width="36" height="36" fill="none" viewBox="-2 -2 36 36" x="111" y="271" xmlns="http://www.w3.org/2000/svg"><path fill-rule="evenodd" clip-rule="evenodd" d="M.578.59L0 1.182v20.454l.645.611c.625.593.74.611 3.882.611h3.238v-.582c0-.582-.002-.583-3.04-.662-1.672-.044-3.128-.17-3.236-.28-.306-.314-.378-19.075-.075-19.654.246-.469.448-.482 6.42-.42L14 1.323l.071 1.263c.066 1.16.118 1.264.647 1.264.542 0 .576-.08.576-1.335 0-1.095-.103-1.44-.578-1.924L14.14 0H1.155L.578.59zm2.119 2.355c-.064.17-.088 3.663-.053 7.764l.062 7.456 2.53.069 2.529.068v-.6c0-.585-.047-.602-1.941-.67l-1.942-.07-.062-6.556-.063-6.556h8.982l-.075-.542c-.075-.539-.096-.541-4.964-.606-3.8-.05-4.913.003-5.003.243zM8.94 5.108c-.269.295-.542.755-.606 1.023-.065.267-.087 4.907-.05 10.311l.068 9.826.66.58c.627.552.82.58 3.824.58H16v-1.202h-2.779c-1.852 0-2.912-.1-3.18-.301-.367-.276-.395-1.105-.338-10.166l.062-9.864h12.47l.071 1.263c.07 1.222.094 1.263.765 1.263s.694-.037.694-1.15c0-1.075-.412-2.066-1.046-2.516-.136-.097-3.183-.178-6.769-.18-6.443-.004-6.526.003-7.009.533zm2.044 2.266c-.089.09-.162 3.481-.162 7.535 0 5.412.076 7.447.283 7.66.181.185 1.108.288 2.588.288 2.303 0 2.306 0 2.306-.601 0-.592-.031-.602-1.882-.602h-1.883V8.421h8.974l-.075-.541c-.075-.54-.093-.542-5.031-.606-2.726-.036-5.03.009-5.118.1zm6.299 2.36l-.578.59V30.819l.578.59.577.591h12.82l.659-.646.66-.647V10.324l-.578-.59a1.962 1.962 0 00-1.403-.591H17.86l-.578.59zm13.304 1.092c.301.576.227 19.338-.078 19.65-.307.315-11.587.393-12.15.084-.468-.256-.478-.465-.478-9.949 0-7.214.072-9.761.283-9.976.204-.21 1.917-.29 6.227-.29 5.7 0 5.955.02 6.196.481zm-11.185 1.262c-.064.169-.088 3.663-.054 7.764l.063 7.456H29.294V11.91l-4.888-.064c-3.801-.051-4.913.003-5.003.243zm8.777 7.46l-.062 6.557-3.824.066-3.823.067V12.993h7.772l-.063 6.556zm-21.2-.38c-.27.277-.17 1.212.16 1.492.43.366.625.102.625-.85 0-.755-.375-1.061-.785-.642zm8.373 4.57c-.588.243-.192 1.766.459 1.766.103 0 .188-.433.188-.963 0-.95-.072-1.04-.647-.803zm8.234 4.69c-.417.427-.364.785.192 1.299.637.59 1.28.207 1.28-.76 0-.564-.112-.71-.59-.767-.325-.039-.722.064-.882.229z" fill="#8F8F8F"/></svg><view id="questions_iphone_hover" viewBox="147 271 36 36"/><svg width="36" height="36" fill="none" viewBox="-2 -2 36 36" x="147" y="271" xmlns="http://www.w3.org/2000/svg"><path fill-rule="evenodd" clip-rule="evenodd" d="M.578.59L0 1.182v20.454l.645.611c.625.593.74.611 3.882.611h3.238v-.582c0-.582-.002-.583-3.04-.662-1.672-.044-3.128-.17-3.236-.28-.306-.314-.378-19.075-.075-19.654.246-.469.448-.482 6.42-.42L14 1.323l.071 1.263c.066 1.16.118 1.264.647 1.264.542 0 .576-.08.576-1.335 0-1.095-.103-1.44-.578-1.924L14.14 0H1.155L.578.59zm2.119 2.355c-.064.17-.088 3.663-.053 7.764l.062 7.456 2.53.069 2.529.068v-.6c0-.585-.047-.602-1.941-.67l-1.942-.07-.062-6.556-.063-6.556h8.982l-.075-.542c-.075-.539-.096-.541-4.964-.606-3.8-.05-4.913.003-5.003.243zM8.94 5.108c-.269.295-.542.755-.606 1.023-.065.267-.087 4.907-.05 10.311l.068 9.826.66.58c.627.552.82.58 3.824.58H16v-1.202h-2.779c-1.852 0-2.912-.1-3.18-.301-.367-.276-.395-1.105-.338-10.166l.062-9.864h12.47l.071 1.263c.07 1.222.094 1.263.765 1.263s.694-.037.694-1.15c0-1.075-.412-2.066-1.046-2.516-.136-.097-3.183-.178-6.769-.18-6.443-.004-6.526.003-7.009.533zm2.044 2.266c-.089.09-.162 3.481-.162 7.535 0 5.412.076 7.447.283 7.66.181.185 1.108.288 2.588.288 2.303 0 2.306 0 2.306-.601 0-.592-.031-.602-1.882-.602h-1.883V8.421h8.974l-.075-.541c-.075-.54-.093-.542-5.031-.606-2.726-.036-5.03.009-5.118.1zm6.299 2.36l-.578.59V30.819l.578.59.577.591h12.82l.659-.646.66-.647V10.324l-.578-.59a1.962 1.962 0 00-1.403-.591H17.86l-.578.59zm13.304 1.092c.301.576.227 19.338-.078 19.65-.307.315-11.587.393-12.15.084-.468-.256-.478-.465-.478-9.949 0-7.214.072-9.761.283-9.976.204-.21 1.917-.29 6.227-.29 5.7 0 5.955.02 6.196.481zm-11.185 1.262c-.064.169-.088 3.663-.054 7.764l.063 7.456H29.294V11.91l-4.888-.064c-3.801-.051-4.913.003-5.003.243zm8.777 7.46l-.062 6.557-3.824.066-3.823.067V12.993h7.772l-.063 6.556zm-21.2-.38c-.27.277-.17 1.212.16 1.492.43.366.625.102.625-.85 0-.755-.375-1.061-.785-.642zm8.373 4.57c-.588.243-.192 1.766.459 1.766.103 0 .188-.433.188-.963 0-.95-.072-1.04-.647-.803zm8.234 4.69c-.417.427-.364.785.192 1.299.637.59 1.28.207 1.28-.76 0-.564-.112-.71-.59-.767-.325-.039-.722.064-.882.229z" fill="#D70000"/></svg><view id="questions_iphone_small" viewBox="183 202 31 32"/><svg width="31" height="32" fill="none" viewBox="-2 -2 31 32" x="183" y="202" xmlns="http://www.w3.org/2000/svg"><path fill-rule="evenodd" clip-rule="evenodd" d="M.525 1.371l-.483.493v17.092l.539.511c.522.496.619.511 3.244.511h2.706v-.487c0-.486-.002-.486-2.54-.553-1.398-.036-2.615-.141-2.704-.233-.256-.263-.316-15.94-.063-16.424.205-.392.374-.403 5.364-.351l5.153.053.06 1.056c.054.97.098 1.055.54 1.055.453 0 .482-.066.482-1.114 0-.916-.087-1.204-.483-1.609l-.483-.494H1.007l-.482.494zm1.77 1.967c-.053.142-.072 3.062-.044 6.489l.052 6.23 2.114.058 2.114.057v-.502c0-.489-.04-.502-1.623-.56l-1.622-.058-.052-5.479-.052-5.479h7.505l-.063-.452c-.062-.45-.08-.453-4.147-.507-3.177-.042-4.106.003-4.181.203zm5.219 1.808c-.225.247-.453.631-.507.854-.054.224-.073 4.101-.042 8.617l.057 8.211.552.485c.524.46.684.485 3.195.485h2.643v-1.005H11.09c-1.547 0-2.433-.084-2.656-.251-.308-.231-.331-.924-.284-8.495l.052-8.244h10.421l.06 1.056c.057 1.021.078 1.056.638 1.056.561 0 .58-.032.58-.96 0-.9-.344-1.728-.873-2.104-.115-.08-2.66-.149-5.657-.15-5.385-.003-5.453.002-5.857.445zm1.708 1.893c-.075.076-.135 2.91-.135 6.297 0 4.523.062 6.224.236 6.4.151.156.926.242 2.162.242 1.925 0 1.928 0 1.928-.503 0-.494-.027-.502-1.574-.502h-1.572V7.915h7.498l-.062-.453c-.063-.45-.078-.452-4.205-.506-2.278-.03-4.202.008-4.276.083zm5.263 1.972l-.483.494V26.63l.483.494.483.493H25.68l.551-.54.552-.54V9.505L26.3 9.01a1.64 1.64 0 00-1.173-.493H14.968l-.483.493zm11.118.913c.252.482.19 16.16-.065 16.421-.257.263-9.683.328-10.154.07-.39-.214-.399-.388-.399-8.314 0-6.028.06-8.157.236-8.337.171-.175 1.602-.241 5.204-.241 4.764 0 4.976.017 5.178.401zm-9.347 1.055c-.053.141-.073 3.06-.045 6.488l.053 6.23h8.258V10.83l-4.085-.054c-3.176-.043-4.106.002-4.18.203zm7.335 6.235l-.052 5.478-3.196.056-3.195.055V11.735h6.495l-.052 5.479zm-17.716-.319c-.226.232-.143 1.013.133 1.247.36.306.523.085.523-.71 0-.631-.313-.887-.656-.537zm6.997 3.82c-.491.202-.16 1.475.383 1.475.087 0 .157-.362.157-.805 0-.794-.06-.869-.54-.67zm6.88 3.92c-.348.355-.304.654.16 1.084.533.493 1.07.173 1.07-.636 0-.47-.093-.592-.492-.64-.272-.032-.603.053-.738.191z" fill="#8F8F8F"/></svg><view id="questions_iphone_small_hover" viewBox="152 202 31 32"/><svg width="31" height="32" fill="none" viewBox="-2 -2 31 32" x="152" y="202" xmlns="http://www.w3.org/2000/svg"><path fill-rule="evenodd" clip-rule="evenodd" d="M.525 1.371l-.483.493v17.092l.539.511c.522.496.619.511 3.244.511h2.706v-.487c0-.486-.002-.486-2.54-.553-1.398-.036-2.615-.141-2.704-.233-.256-.263-.316-15.94-.063-16.424.205-.392.374-.403 5.364-.351l5.153.053.06 1.056c.054.97.098 1.055.54 1.055.453 0 .482-.066.482-1.114 0-.916-.087-1.204-.483-1.609l-.483-.494H1.007l-.482.494zm1.77 1.967c-.053.142-.072 3.062-.044 6.489l.052 6.23 2.114.058 2.114.057v-.502c0-.489-.04-.502-1.623-.56l-1.622-.058-.052-5.479-.052-5.479h7.505l-.063-.452c-.062-.45-.08-.453-4.147-.507-3.177-.042-4.106.003-4.181.203zm5.219 1.808c-.225.247-.453.631-.507.854-.054.224-.073 4.101-.042 8.617l.057 8.211.552.485c.524.46.684.485 3.195.485h2.643v-1.005H11.09c-1.547 0-2.433-.084-2.656-.251-.308-.231-.331-.924-.284-8.495l.052-8.244h10.421l.06 1.056c.057 1.021.078 1.056.638 1.056.561 0 .58-.032.58-.96 0-.9-.344-1.728-.873-2.104-.115-.08-2.66-.149-5.657-.15-5.385-.003-5.453.002-5.857.445zm1.708 1.893c-.075.076-.135 2.91-.135 6.297 0 4.523.062 6.224.236 6.4.151.156.926.242 2.162.242 1.925 0 1.928 0 1.928-.503 0-.494-.027-.502-1.574-.502h-1.572V7.915h7.498l-.062-.453c-.063-.45-.078-.452-4.205-.506-2.278-.03-4.202.008-4.276.083zm5.263 1.972l-.483.494V26.63l.483.494.483.493H25.68l.551-.54.552-.54V9.505L26.3 9.01a1.64 1.64 0 00-1.173-.493H14.968l-.483.493zm11.118.913c.252.482.19 16.16-.065 16.421-.257.263-9.683.328-10.154.07-.39-.214-.399-.388-.399-8.314 0-6.028.06-8.157.236-8.337.171-.175 1.602-.241 5.204-.241 4.764 0 4.976.017 5.178.401zm-9.347 1.055c-.053.141-.073 3.06-.045 6.488l.053 6.23h8.258V10.83l-4.085-.054c-3.176-.043-4.106.002-4.18.203zm7.335 6.235l-.052 5.478-3.196.056-3.195.055V11.735h6.495l-.052 5.479zm-17.716-.319c-.226.232-.143 1.013.133 1.247.36.306.523.085.523-.71 0-.631-.313-.887-.656-.537zm6.997 3.82c-.491.202-.16 1.475.383 1.475.087 0 .157-.362.157-.805 0-.794-.06-.869-.54-.67zm6.88 3.92c-.348.355-.304.654.16 1.084.533.493 1.07.173 1.07-.636 0-.47-.093-.592-.492-.64-.272-.032-.603.053-.738.191z" fill="#D70000"/></svg><view id="questions_lock" viewBox="45 202 33 45"/><svg width="33" height="45" fill="none" viewBox="-2 -2 33 45" x="45" y="202" xmlns="http://www.w3.org/2000/svg"><path opacity=".5" fill-rule="evenodd" clip-rule="evenodd" d="M11.232.428C7.917 1.68 5.897 3.642 4.599 6.868c-.706 1.755-.852 2.758-.852 5.838 0 3.662-.02 3.747-1.24 5.481C.714 20.735-.008 23.145 0 26.562c.01 4.207 1.275 7.324 4.192 10.319 1.476 1.516 2 1.877 4.573 3.146 1.758.868 2.378.973 5.735.973s3.977-.105 5.735-.973c2.572-1.27 3.097-1.63 4.573-3.146 2.917-2.995 4.183-6.112 4.192-10.32.008-3.416-.714-5.826-2.507-8.374-1.22-1.733-1.24-1.82-1.24-5.47 0-5.796-1.743-9.27-5.76-11.479-2.258-1.241-6.119-1.62-8.261-.81zm6.212 2.05c3.474 1.316 5.109 3.562 5.73 7.872.597 4.132.465 4.299-2.293 2.886-2.152-1.102-2.455-1.157-6.381-1.157s-4.23.055-6.381 1.157c-2.758 1.413-2.89 1.246-2.294-2.886.615-4.258 2.247-6.535 5.628-7.854 2.309-.9 3.653-.904 5.99-.018zm2.074 12.247c2.352 1.092 4.437 3.044 5.981 5.603 1.346 2.229 1.36 2.289 1.359 6.053 0 3.439-.094 3.981-.98 5.686-2 3.85-5.063 6.13-9.434 7.023-1.877.383-2.524.357-4.66-.185-1.365-.346-3.046-.968-3.736-1.383-1.759-1.055-3.852-3.39-4.955-5.526-.828-1.604-.938-2.242-.948-5.51-.01-3.246.097-3.907.881-5.431 1.027-1.997 4.242-5.38 5.665-5.963 3.218-1.318 3.584-1.39 6.347-1.255 1.892.092 3.416.394 4.48.888zm-6.937 9.647c-1.246 1.166-1.267 2.806-.053 4.033.598.603.897 1.307.897 2.112 0 .663.242 1.409.537 1.657.797.668 1.613-.17 1.613-1.657 0-.805.3-1.509.896-2.112 1.215-1.227 1.194-2.867-.052-4.033-1.208-1.13-2.63-1.13-3.838 0z" fill="#1E1E1E"/></svg><view id="questions_lock_hover" viewBox="319 84 33 45"/><svg width="33" height="45" fill="none" viewBox="-2 -2 33 45" x="319" y="84" xmlns="http://www.w3.org/2000/svg"><path fill-rule="evenodd" clip-rule="evenodd" d="M11.232.428C7.917 1.68 5.897 3.642 4.599 6.868c-.706 1.755-.852 2.758-.852 5.838 0 3.662-.02 3.747-1.24 5.481C.714 20.735-.008 23.145 0 26.562c.01 4.207 1.275 7.324 4.192 10.319 1.476 1.516 2 1.877 4.573 3.146 1.758.868 2.378.973 5.735.973s3.977-.105 5.735-.973c2.572-1.27 3.097-1.63 4.573-3.146 2.917-2.995 4.183-6.112 4.192-10.32.008-3.416-.714-5.826-2.507-8.374-1.22-1.733-1.24-1.82-1.24-5.47 0-5.796-1.743-9.27-5.76-11.479-2.258-1.241-6.119-1.62-8.261-.81zm6.212 2.05c3.474 1.316 5.109 3.562 5.73 7.872.597 4.132.465 4.299-2.293 2.886-2.152-1.102-2.455-1.157-6.381-1.157s-4.23.055-6.381 1.157c-2.758 1.413-2.89 1.246-2.294-2.886.615-4.258 2.247-6.535 5.628-7.854 2.309-.9 3.653-.904 5.99-.018zm2.074 12.247c2.352 1.092 4.437 3.044 5.981 5.603 1.346 2.229 1.36 2.289 1.359 6.053 0 3.439-.094 3.981-.98 5.686-2 3.85-5.063 6.13-9.434 7.023-1.877.383-2.524.357-4.66-.185-1.365-.346-3.046-.968-3.736-1.383-1.759-1.055-3.852-3.39-4.955-5.526-.828-1.604-.938-2.242-.948-5.51-.01-3.246.097-3.907.881-5.431 1.027-1.997 4.242-5.38 5.665-5.963 3.218-1.318 3.584-1.39 6.347-1.255 1.892.092 3.416.394 4.48.888zm-6.937 9.647c-1.246 1.166-1.267 2.806-.053 4.033.598.603.897 1.307.897 2.112 0 .663.242 1.409.537 1.657.797.668 1.613-.17 1.613-1.657 0-.805.3-1.509.896-2.112 1.215-1.227 1.194-2.867-.052-4.033-1.208-1.13-2.63-1.13-3.838 0z" fill="#D70000"/></svg><view id="questions_lock_small" viewBox="181 98 29 40"/><svg width="29" height="40" fill="none" viewBox="-2 -2 29 40" x="181" y="98" xmlns="http://www.w3.org/2000/svg"><path opacity=".5" fill-rule="evenodd" clip-rule="evenodd" d="M9.887 1.22C7.117 2.268 5.43 3.908 4.345 6.604c-.59 1.467-.713 2.304-.713 4.879 0 3.06-.016 3.13-1.036 4.58C1.098 18.19.495 20.205.502 23.06c.007 3.516 1.065 6.12 3.502 8.623 1.234 1.267 1.672 1.569 3.822 2.63 1.47.725 1.988.812 4.792.812 2.805 0 3.324-.087 4.793-.813 2.15-1.06 2.588-1.362 3.822-2.629 2.437-2.503 3.495-5.107 3.502-8.623.007-2.855-.596-4.87-2.094-6.998-1.02-1.449-1.036-1.522-1.036-4.57 0-4.845-1.457-7.749-4.814-9.594C14.904.861 11.678.544 9.887 1.221zm5.191 1.714c2.904 1.1 4.27 2.977 4.79 6.578.498 3.454.388 3.593-1.917 2.412-1.798-.92-2.052-.967-5.333-.967-3.28 0-3.534.046-5.332.967-2.305 1.181-2.415 1.042-1.917-2.412.514-3.557 1.878-5.46 4.703-6.562 1.93-.753 3.053-.756 5.006-.016zm1.734 10.235c1.966.912 3.707 2.543 4.998 4.682 1.124 1.862 1.136 1.913 1.135 5.058 0 2.873-.078 3.327-.819 4.752-1.67 3.217-4.23 5.122-7.883 5.868-1.568.32-2.11.299-3.894-.154-1.14-.29-2.546-.81-3.122-1.156-1.47-.882-3.22-2.834-4.141-4.618-.692-1.34-.784-1.873-.792-4.604-.008-2.713.081-3.266.736-4.539.859-1.669 3.545-4.496 4.734-4.983 2.69-1.1 2.995-1.16 5.304-1.049 1.581.078 2.855.33 3.744.742zm-5.797 8.061c-1.041.975-1.059 2.345-.044 3.37.499.504.749 1.093.749 1.765 0 .555.202 1.178.45 1.385.665.558 1.347-.142 1.347-1.385 0-.672.25-1.26.749-1.765 1.015-1.025.997-2.395-.044-3.37-1.01-.945-2.198-.945-3.207 0z" fill="#1E1E1E"/></svg><view id="questions_lock_small_hover" viewBox="182 56 29 40"/><svg width="29" height="40" fill="none" viewBox="-2 -2 29 40" x="182" y="56" xmlns="http://www.w3.org/2000/svg"><path fill-rule="evenodd" clip-rule="evenodd" d="M9.887 1.22C7.117 2.268 5.43 3.908 4.345 6.604c-.59 1.467-.713 2.304-.713 4.879 0 3.06-.016 3.13-1.036 4.58C1.098 18.19.495 20.205.502 23.06c.007 3.516 1.065 6.12 3.502 8.623 1.234 1.267 1.672 1.569 3.822 2.63 1.47.725 1.988.812 4.792.812 2.805 0 3.324-.087 4.793-.813 2.15-1.06 2.588-1.362 3.822-2.629 2.437-2.503 3.495-5.107 3.502-8.623.007-2.855-.596-4.87-2.094-6.998-1.02-1.449-1.036-1.522-1.036-4.57 0-4.845-1.457-7.749-4.814-9.594C14.904.861 11.678.544 9.887 1.221zm5.191 1.714c2.904 1.1 4.27 2.977 4.79 6.578.498 3.454.388 3.593-1.917 2.412-1.798-.92-2.052-.967-5.333-.967-3.28 0-3.534.046-5.332.967-2.305 1.181-2.415 1.042-1.917-2.412.514-3.557 1.878-5.46 4.703-6.562 1.93-.753 3.053-.756 5.006-.016zm1.734 10.235c1.966.912 3.707 2.543 4.998 4.682 1.124 1.862 1.136 1.913 1.135 5.058 0 2.873-.078 3.327-.819 4.752-1.67 3.217-4.23 5.122-7.883 5.868-1.568.32-2.11.299-3.894-.154-1.14-.29-2.546-.81-3.122-1.156-1.47-.882-3.22-2.834-4.141-4.618-.692-1.34-.784-1.873-.792-4.604-.008-2.713.081-3.266.736-4.539.859-1.669 3.545-4.496 4.734-4.983 2.69-1.1 2.995-1.16 5.304-1.049 1.581.078 2.855.33 3.744.742zm-5.797 8.061c-1.041.975-1.059 2.345-.044 3.37.499.504.749 1.093.749 1.765 0 .555.202 1.178.45 1.385.665.558 1.347-.142 1.347-1.385 0-.672.25-1.26.749-1.765 1.015-1.025.997-2.395-.044-3.37-1.01-.945-2.198-.945-3.207 0z" fill="#D70000"/></svg><view id="questions_support" viewBox="226 158 44 43"/><svg width="44" height="43" fill="none" viewBox="-2 -2 44 43" x="226" y="158" xmlns="http://www.w3.org/2000/svg"><path opacity=".5" fill-rule="evenodd" clip-rule="evenodd" d="M20.346.295c-8.025.74-14.112 5.866-17.315 14.58C1.275 19.654-.167 29.049.016 34.53l.086 2.591 1.625-.023c.894-.012 4.152-.126 7.24-.252 5.257-.215 5.654-.195 6.207.314.325.3 1.227.84 2.003 1.2 2.471 1.146 5.276.747 7.955-1.133.878-.616 1.034-.626 6.406-.392 3.029.132 6.171.25 6.984.263L40 37.12l-.024-3.35c-.013-1.842-.205-4.07-.426-4.951-.228-.903-.41-3.212-.42-5.291-.015-3.414-.067-3.742-.682-4.388a2.506 2.506 0 01-.668-1.7c-.006-1.739-1.116-5.55-2.266-7.784-1.115-2.164-3.563-4.777-5.136-5.482-2.249-1.009-3.049-1.273-4.374-1.446-1.38-.18-1.478-.251-1.654-1.174-.152-.798-.986-1.71-1.398-1.531-.052.022-1.224.145-2.606.272zm2.747 2.536c.43 1.06.523 1.114 2.423 1.435 4.008.677 7 2.921 8.833 6.626.573 1.158 1.18 2.945 1.35 3.972.477 2.905.5 2.842-1.09 2.943-1.136.072-1.419.2-1.495.672-.197 1.222-.299 1.323-1.01 1-1.156-.526-5.377-6.714-6.792-9.954-.82-1.876-1.422-1.823-2.505.223-1.528 2.886-5.383 6.79-8.372 8.479-1.713.968-3.75 1.566-5.858 1.72-1.345.097-1.81.27-2.343.872-1.402 1.582-.535 4.605 1.619 5.646.524.253.957.609.96.79.017.823 3.282 7 3.924 7.422.149.098-1.902.333-4.557.521-2.655.19-5.193.4-5.64.47l-.813.127v-2.729c0-6.884 1.23-13.594 3.566-19.446.9-2.256 3.581-6.084 5.328-7.608 2.833-2.472 7.002-4.183 10.358-4.25 1.664-.032 1.668-.03 2.114 1.069zm2.446 10.623c.771 1.322 1.739 2.862 2.151 3.422 2.529 3.444 3.106 4.068 4.04 4.371.736.24 1.038.54 1.179 1.174.3 1.346-.089 2.024-1.507 2.623-.949.4-1.303.716-1.303 1.162 0 .564-.864 2.942-1.503 4.138-.395.74-.352.805.543.805.708 0 .898-.208 1.477-1.61.366-.884.665-1.796.665-2.027 0-.37.841-1.023 1.318-1.023.096 0 .301.328.456.728.172.446.513.728.879.728.775 0 .768.68-.021 1.939-.987 1.574-2.025 1.937-5.95 2.082l-3.466.128-1.051-.91c-.896-.774-1.284-.909-2.624-.909-1.259 0-1.727.143-2.354.715-1.035.945-1.044 2.257-.023 3.264.694.684.925.737 2.709.625 1.6-.1 2.028-.237 2.38-.761.407-.603.646-.639 4.315-.639 3.464 0 4.02-.07 5.125-.655 1.535-.81 2.636-2.241 2.897-3.761.142-.83.399-1.247.908-1.476.391-.175.766-.265.832-.199.24.238.764 4.715.764 6.522v1.844l-1.109-.116c-1.968-.206-8.284-.702-8.934-.702-.348 0-.55-.131-.45-.291.108-.171-.202-.292-.745-.292-.622 0-1.342.334-2.183 1.014-1.658 1.34-3.09 1.9-4.858 1.9-2.388 0-4.188-1.088-6.346-3.832-.706-.898-3.748-6.95-3.748-7.456 0-.217-.46-.583-1.023-.815-1.222-.503-1.705-1.282-1.58-2.548.09-.924.11-.935 2.09-1.15 2.349-.257 4.86-1.203 7.127-2.685 1.75-1.145 6.686-6.067 6.686-6.667 0-.302.553-1.063.772-1.063.034 0 .694 1.081 1.465 2.403zm11.494 6.55c.646.688.75 1.066.75 2.726 0 1.64-.107 2.04-.724 2.697-.399.424-.92.77-1.158.77-.239 0-.644.08-.901.177-.411.156-.468-.266-.468-3.495v-3.672h.875c.574 0 1.133.274 1.626.798zm-15.07 12.122c.336.242.476.581.362.874-.27.694-2.726.675-2.997-.023-.4-1.023 1.53-1.646 2.635-.85z" fill="#1E1E1E"/></svg><view id="questions_support_hover" viewBox="270 158 44 43"/><svg width="44" height="43" fill="none" viewBox="-2 -2 44 43" x="270" y="158" xmlns="http://www.w3.org/2000/svg"><path fill-rule="evenodd" clip-rule="evenodd" d="M20.346.295c-8.025.74-14.112 5.866-17.315 14.58C1.275 19.654-.167 29.049.016 34.53l.086 2.591 1.625-.023c.894-.012 4.152-.126 7.24-.252 5.257-.215 5.654-.195 6.207.314.325.3 1.227.84 2.003 1.2 2.471 1.146 5.276.747 7.955-1.133.878-.616 1.034-.626 6.406-.392 3.029.132 6.171.25 6.984.263L40 37.12l-.024-3.35c-.013-1.842-.205-4.07-.426-4.951-.228-.903-.41-3.212-.42-5.291-.015-3.414-.067-3.742-.682-4.388a2.506 2.506 0 01-.668-1.7c-.006-1.739-1.116-5.55-2.266-7.784-1.115-2.164-3.563-4.777-5.136-5.482-2.249-1.009-3.049-1.273-4.374-1.446-1.38-.18-1.478-.251-1.654-1.174-.152-.798-.986-1.71-1.398-1.531-.052.022-1.224.145-2.606.272zm2.747 2.536c.43 1.06.523 1.114 2.423 1.435 4.008.677 7 2.921 8.833 6.626.573 1.158 1.18 2.945 1.35 3.972.477 2.905.5 2.842-1.09 2.943-1.136.072-1.419.2-1.495.672-.197 1.222-.299 1.323-1.01 1-1.156-.526-5.377-6.714-6.792-9.954-.82-1.876-1.422-1.823-2.505.223-1.528 2.886-5.383 6.79-8.372 8.479-1.713.968-3.75 1.566-5.858 1.72-1.345.097-1.81.27-2.343.872-1.402 1.582-.535 4.605 1.619 5.646.524.253.957.609.96.79.017.823 3.282 7 3.924 7.422.149.098-1.902.333-4.557.521-2.655.19-5.193.4-5.64.47l-.813.127v-2.729c0-6.884 1.23-13.594 3.566-19.446.9-2.256 3.581-6.084 5.328-7.608 2.833-2.472 7.002-4.183 10.358-4.25 1.664-.032 1.668-.03 2.114 1.069zm2.446 10.623c.771 1.322 1.739 2.862 2.151 3.422 2.529 3.444 3.106 4.068 4.04 4.371.736.24 1.038.54 1.179 1.174.3 1.346-.089 2.024-1.507 2.623-.949.4-1.303.716-1.303 1.162 0 .564-.864 2.942-1.503 4.138-.395.74-.352.805.543.805.708 0 .898-.208 1.477-1.61.366-.884.665-1.796.665-2.027 0-.37.841-1.023 1.318-1.023.096 0 .301.328.456.728.172.446.513.728.879.728.775 0 .768.68-.021 1.939-.987 1.574-2.025 1.937-5.95 2.082l-3.466.128-1.051-.91c-.896-.774-1.284-.909-2.624-.909-1.259 0-1.727.143-2.354.715-1.035.945-1.044 2.257-.023 3.264.694.684.925.737 2.709.625 1.6-.1 2.028-.237 2.38-.761.407-.603.646-.639 4.315-.639 3.464 0 4.02-.07 5.125-.655 1.535-.81 2.636-2.241 2.897-3.761.142-.83.399-1.247.908-1.476.391-.175.766-.265.832-.199.24.238.764 4.715.764 6.522v1.844l-1.109-.116c-1.968-.206-8.284-.702-8.934-.702-.348 0-.55-.131-.45-.291.108-.171-.202-.292-.745-.292-.622 0-1.342.334-2.183 1.014-1.658 1.34-3.09 1.9-4.858 1.9-2.388 0-4.188-1.088-6.346-3.832-.706-.898-3.748-6.95-3.748-7.456 0-.217-.46-.583-1.023-.815-1.222-.503-1.705-1.282-1.58-2.548.09-.924.11-.935 2.09-1.15 2.349-.257 4.86-1.203 7.127-2.685 1.75-1.145 6.686-6.067 6.686-6.667 0-.302.553-1.063.772-1.063.034 0 .694 1.081 1.465 2.403zm11.494 6.55c.646.688.75 1.066.75 2.726 0 1.64-.107 2.04-.724 2.697-.399.424-.92.77-1.158.77-.239 0-.644.08-.901.177-.411.156-.468-.266-.468-3.495v-3.672h.875c.574 0 1.133.274 1.626.798zm-15.07 12.122c.336.242.476.581.362.874-.27.694-2.726.675-2.997-.023-.4-1.023 1.53-1.646 2.635-.85z" fill="#D70000"/></svg><view id="questions_support_small" viewBox="0 271 38 38"/><svg width="38" height="38" fill="none" viewBox="-2 -2 38 38" y="271" xmlns="http://www.w3.org/2000/svg"><path opacity=".5" fill-rule="evenodd" clip-rule="evenodd" d="M17.22.946C10.514 1.564 5.427 5.848 2.75 13.13 1.283 17.123.078 24.973.23 29.553l.072 2.166 1.359-.02c.747-.01 3.47-.105 6.05-.21 4.393-.18 4.724-.163 5.187.262.271.25 1.025.701 1.674 1.003 2.064.958 4.408.625 6.647-.946.734-.516.864-.524 5.353-.328 2.531.11 5.157.209 5.837.22l1.235.02-.02-2.8c-.011-1.54-.172-3.402-.357-4.138-.19-.755-.343-2.684-.35-4.422-.014-2.852-.056-3.127-.57-3.667a2.094 2.094 0 01-.559-1.42c-.005-1.453-.932-4.638-1.894-6.505-.93-1.808-2.977-3.992-4.291-4.581-1.88-.843-2.548-1.064-3.656-1.208-1.152-.151-1.235-.21-1.382-.981-.127-.667-.823-1.43-1.168-1.28-.043.019-1.023.122-2.177.228zm2.295 2.119c.36.885.437.931 2.025 1.199 3.349.565 5.85 2.441 7.381 5.537.48.968.986 2.461 1.128 3.32.4 2.427.419 2.375-.91 2.459-.95.06-1.186.166-1.25.56-.165 1.023-.25 1.107-.844.837-.966-.44-4.494-5.61-5.676-8.318-.684-1.568-1.188-1.523-2.093.186-1.277 2.411-4.498 5.674-6.996 7.086-1.431.809-3.133 1.308-4.895 1.437-1.124.081-1.513.226-1.958.729-1.172 1.322-.447 3.848 1.353 4.718.438.211.8.508.802.66.014.688 2.743 5.85 3.279 6.202.124.082-1.59.278-3.808.436-2.219.158-4.34.335-4.713.393l-.68.106v-2.28c0-5.753 1.029-11.36 2.98-16.251.753-1.885 2.993-5.084 4.453-6.358 2.367-2.066 5.851-3.495 8.655-3.55 1.39-.028 1.395-.026 1.767.892zm2.044 8.877c.644 1.105 1.453 2.392 1.798 2.86 2.113 2.877 2.595 3.399 3.375 3.652.616.2.868.451.986.981.25 1.126-.075 1.692-1.26 2.192-.792.335-1.088.599-1.088.971 0 .471-.722 2.459-1.256 3.458-.33.62-.294.673.453.673.592 0 .751-.174 1.235-1.345.306-.739.556-1.502.556-1.695 0-.309.702-.854 1.101-.854.08 0 .251.273.38.608.144.373.43.609.735.609.648 0 .642.569-.017 1.62-.825 1.315-1.692 1.619-4.972 1.74l-2.897.107-.878-.76c-.748-.647-1.073-.76-2.192-.76-1.052 0-1.444.119-1.967.597-.866.79-.873 1.886-.02 2.727.58.572.773.616 2.264.523 1.336-.084 1.695-.198 1.99-.636.339-.504.538-.534 3.605-.534 2.894 0 3.358-.059 4.282-.547 1.283-.678 2.203-1.873 2.42-3.144.12-.693.334-1.041.76-1.232.327-.147.64-.222.695-.167.2.199.638 3.94.638 5.45v1.541l-.926-.096c-1.645-.173-6.922-.588-7.466-.588-.29 0-.46-.109-.375-.243.089-.142-.17-.243-.623-.243-.52 0-1.122.279-1.825.846-1.386 1.12-2.582 1.588-4.06 1.588-1.995 0-3.5-.909-5.302-3.202-.59-.75-3.132-5.808-3.132-6.23 0-.181-.385-.488-.856-.682-1.02-.42-1.424-1.07-1.32-2.129.076-.772.092-.781 1.746-.961 1.964-.214 4.063-1.005 5.956-2.244 1.463-.956 5.587-5.07 5.587-5.57 0-.253.463-.889.646-.889.028 0 .58.904 1.224 2.008zm9.605 5.474c.54.575.627.89.627 2.277 0 1.372-.09 1.706-.605 2.254-.334.354-.769.644-.968.644-.2 0-.538.067-.753.148-.343.13-.39-.223-.39-2.92v-3.07h.73c.48 0 .947.23 1.359.667zM18.57 27.546c.28.202.397.485.302.73-.226.58-2.278.564-2.505-.02-.333-.855 1.28-1.375 2.203-.71z" fill="#1E1E1E"/></svg><view id="questions_support_small_hover" viewBox="38 271 38 38"/><svg width="38" height="38" fill="none" viewBox="-2 -2 38 38" x="38" y="271" xmlns="http://www.w3.org/2000/svg"><path fill-rule="evenodd" clip-rule="evenodd" d="M17.22.946C10.514 1.564 5.427 5.848 2.75 13.13 1.283 17.123.078 24.973.23 29.553l.072 2.166 1.359-.02c.747-.01 3.47-.105 6.05-.21 4.393-.18 4.724-.163 5.187.262.271.25 1.025.701 1.674 1.003 2.064.958 4.408.625 6.647-.946.734-.516.864-.524 5.353-.328 2.531.11 5.157.209 5.837.22l1.235.02-.02-2.8c-.011-1.54-.172-3.402-.357-4.138-.19-.755-.343-2.684-.35-4.422-.014-2.852-.056-3.127-.57-3.667a2.094 2.094 0 01-.559-1.42c-.005-1.453-.932-4.638-1.894-6.505-.93-1.808-2.977-3.992-4.291-4.581-1.88-.843-2.548-1.064-3.656-1.208-1.152-.151-1.235-.21-1.382-.981-.127-.667-.823-1.43-1.168-1.28-.043.019-1.023.122-2.177.228zm2.295 2.119c.36.885.437.931 2.025 1.199 3.349.565 5.85 2.441 7.381 5.537.48.968.986 2.461 1.128 3.32.4 2.427.419 2.375-.91 2.459-.95.06-1.186.166-1.25.56-.165 1.023-.25 1.107-.844.837-.966-.44-4.494-5.61-5.676-8.318-.684-1.568-1.188-1.523-2.093.186-1.277 2.411-4.498 5.674-6.996 7.086-1.431.809-3.133 1.308-4.895 1.437-1.124.081-1.513.226-1.958.729-1.172 1.322-.447 3.848 1.353 4.718.438.211.8.508.802.66.014.688 2.743 5.85 3.279 6.202.124.082-1.59.278-3.808.436-2.219.158-4.34.335-4.713.393l-.68.106v-2.28c0-5.753 1.029-11.36 2.98-16.251.753-1.885 2.993-5.084 4.453-6.358 2.367-2.066 5.851-3.495 8.655-3.55 1.39-.028 1.395-.026 1.767.892zm2.044 8.877c.644 1.105 1.453 2.392 1.798 2.86 2.113 2.877 2.595 3.399 3.375 3.652.616.2.868.451.986.981.25 1.126-.075 1.692-1.26 2.192-.792.335-1.088.599-1.088.971 0 .471-.722 2.459-1.256 3.458-.33.62-.294.673.453.673.592 0 .751-.174 1.235-1.345.306-.739.556-1.502.556-1.695 0-.309.702-.854 1.101-.854.08 0 .251.273.38.608.144.373.43.609.735.609.648 0 .642.569-.017 1.62-.825 1.315-1.692 1.619-4.972 1.74l-2.897.107-.878-.76c-.748-.647-1.073-.76-2.192-.76-1.052 0-1.444.119-1.967.597-.866.79-.873 1.886-.02 2.727.58.572.773.616 2.264.523 1.336-.084 1.695-.198 1.99-.636.339-.504.538-.534 3.605-.534 2.894 0 3.358-.059 4.282-.547 1.283-.678 2.203-1.873 2.42-3.144.12-.693.334-1.041.76-1.232.327-.147.64-.222.695-.167.2.199.638 3.94.638 5.45v1.541l-.926-.096c-1.645-.173-6.922-.588-7.466-.588-.29 0-.46-.109-.375-.243.089-.142-.17-.243-.623-.243-.52 0-1.122.279-1.825.846-1.386 1.12-2.582 1.588-4.06 1.588-1.995 0-3.5-.909-5.302-3.202-.59-.75-3.132-5.808-3.132-6.23 0-.181-.385-.488-.856-.682-1.02-.42-1.424-1.07-1.32-2.129.076-.772.092-.781 1.746-.961 1.964-.214 4.063-1.005 5.956-2.244 1.463-.956 5.587-5.07 5.587-5.57 0-.253.463-.889.646-.889.028 0 .58.904 1.224 2.008zm9.605 5.474c.54.575.627.89.627 2.277 0 1.372-.09 1.706-.605 2.254-.334.354-.769.644-.968.644-.2 0-.538.067-.753.148-.343.13-.39-.223-.39-2.92v-3.07h.73c.48 0 .947.23 1.359.667zM18.57 27.546c.28.202.397.485.302.73-.226.58-2.278.564-2.505-.02-.333-.855 1.28-1.375 2.203-.71z" fill="#D70000"/></svg><view id="questions_video" viewBox="116 202 36 33"/><svg width="36" height="33" fill="none" viewBox="-2 -2 36 33" x="116" y="202" xmlns="http://www.w3.org/2000/svg"><path fill-rule="evenodd" clip-rule="evenodd" d="M0 14.5V29h32V0H0v14.5zM3.238 2.351c0 .778-.216 1.006-1.048 1.104-.885.105-1.047-.022-1.047-.816 0-1.181.33-1.527 1.318-1.382.545.08.777.407.777 1.094zm4 0c0 1.083-.106 1.176-1.333 1.176-1.143 0-1.334-.13-1.334-.914 0-1.187.277-1.437 1.588-1.437.945 0 1.08.146 1.08 1.175zm4.12.098c.112.998.02 1.078-1.238 1.078-1.261 0-1.358-.085-1.358-1.2 0-1.119.084-1.192 1.238-1.078 1.032.102 1.258.302 1.358 1.2zm3.88-.098c0 1.083-.106 1.176-1.333 1.176-1.143 0-1.334-.13-1.334-.914 0-1.187.277-1.437 1.588-1.437.945 0 1.08.146 1.08 1.175zm4.12.098c.112.998.02 1.078-1.238 1.078-1.261 0-1.358-.085-1.358-1.2 0-1.119.084-1.192 1.238-1.078 1.032.102 1.258.302 1.358 1.2zm3.88-.098c0 1.083-.106 1.176-1.333 1.176-1.143 0-1.334-.13-1.334-.914 0-1.187.277-1.437 1.588-1.437.945 0 1.08.146 1.08 1.175zm4.12.098c.112.998.02 1.078-1.238 1.078-1.261 0-1.358-.085-1.358-1.2 0-1.119.084-1.192 1.238-1.078 1.032.102 1.258.302 1.358 1.2zm3.429 0c.104.931-.014 1.078-.869 1.078-1.054 0-1.576-.78-1.198-1.79.394-1.06 1.928-.53 2.067.712zm-.019 12.154l.102 9.704-14.768-.103-14.769-.103-.101-9.704-.102-9.704 14.768.103 14.769.103.101 9.704zm-17.943-4.544c-.14.143-.254 2.177-.254 4.519 0 3.241.125 4.306.522 4.463.68.269 7.288-3.85 7.288-4.542 0-.51-6.047-4.612-6.889-4.672-.227-.016-.527.088-.667.232zm5.27 4.441c0 .238-.9.967-2 1.62l-2 1.188v-5.616l2 1.188c1.1.653 2 1.382 2 1.62zM3.238 26.649c0 .783-.19.98-.952.98s-.977-.222-1.076-1.107c-.112-1.007-.026-1.095.952-.98.86.101 1.076.323 1.076 1.107zm4 .024c0 1.119-.084 1.193-1.238 1.078-1.032-.102-1.258-.303-1.358-1.2-.112-.998-.02-1.078 1.238-1.078 1.261 0 1.358.085 1.358 1.2zm4.12-.122c-.1.898-.326 1.098-1.358 1.2-1.154.114-1.238.04-1.238-1.078 0-1.115.097-1.2 1.358-1.2 1.258 0 1.35.08 1.239 1.078zm3.88.122c0 1.119-.085 1.193-1.238 1.078-1.032-.102-1.258-.303-1.358-1.2-.112-.998-.02-1.078 1.238-1.078 1.261 0 1.358.085 1.358 1.2zm4.12-.122c-.1.898-.326 1.098-1.358 1.2-1.154.114-1.238.04-1.238-1.078 0-1.115.097-1.2 1.358-1.2 1.258 0 1.35.08 1.238 1.078zm3.88.122c0 1.119-.084 1.193-1.238 1.078-1.032-.102-1.258-.303-1.358-1.2-.112-.998-.02-1.078 1.238-1.078 1.261 0 1.358.085 1.358 1.2zm4.12-.122c-.1.898-.326 1.098-1.358 1.2-1.154.114-1.238.04-1.238-1.078 0-1.115.097-1.2 1.358-1.2 1.258 0 1.35.08 1.238 1.078zm3.429 0c-.139 1.242-1.673 1.771-2.067.713-.378-1.011.144-1.791 1.198-1.791.855 0 .973.147.869 1.078z" fill="#8F8F8F"/></svg><view id="questions_video_hover" viewBox="78 202 38 35"/><svg width="38" height="35" fill="none" viewBox="-2 -2 38 35" x="78" y="202" xmlns="http://www.w3.org/2000/svg"><path d="M13.825 11.059l-.071-.07a.237.237 0 00-.048.084.837.837 0 00-.03.103 3.315 3.315 0 00-.048.308c-.031.25-.059.594-.082 1.004a57.807 57.807 0 00-.075 3.09c0 1.62.031 2.702.113 3.4.04.348.095.607.167.792.072.184.168.31.305.364.07.028.16.023.249.006.093-.017.205-.05.33-.094.251-.09.57-.234.928-.415a32.92 32.92 0 002.482-1.416 32.48 32.48 0 002.353-1.597c.317-.24.581-.46.768-.642.093-.092.169-.176.222-.25.05-.071.093-.15.093-.227a.233.233 0 00-.028-.103.61.61 0 00-.06-.094 2.084 2.084 0 00-.204-.22 9.831 9.831 0 00-.704-.599 39.81 39.81 0 00-2.177-1.572 43.693 43.693 0 00-2.334-1.487c-.344-.201-.651-.37-.9-.49a3.864 3.864 0 00-.331-.144.95.95 0 00-.244-.063h0c-.13-.01-.275.016-.406.061a.888.888 0 00-.34.201l.072.07zm0 0c.14-.144.44-.248.667-.232.842.06 6.889 4.161 6.889 4.672 0 .692-6.608 4.81-7.288 4.542-.397-.157-.522-1.222-.522-4.463 0-2.342.115-4.376.255-4.52zm-9.85 17.304c.113-.116.163-.321.163-.714 0-.39-.055-.604-.187-.74-.134-.138-.37-.217-.8-.268a3.555 3.555 0 00-.56-.036c-.135.007-.203.036-.242.076-.04.04-.068.112-.075.252l1.702 1.43zm0 0c-.11.114-.308.165-.69.165m.69-.165l-.69.165m0 0c-.376 0-.583-.056-.714-.19m.715.19l-.715-.19m0 0c-.135-.14-.212-.384-.262-.827l.262.826zM.9 30v.1h32.2V.9H.9V30zM3.179 4.356h0c-.22.026-.389.037-.519.028-.13-.01-.21-.037-.264-.079-.052-.04-.09-.104-.117-.212a2.06 2.06 0 01-.036-.454c0-.59.084-.935.26-1.12.17-.178.455-.235.943-.163.255.038.42.13.526.278.109.153.166.382.166.717 0 .386-.055.602-.185.738-.13.138-.36.218-.774.267zm9.08-.896h0c.028.25.042.433.03.57-.011.134-.046.208-.102.257-.06.052-.161.09-.34.113a6.316 6.316 0 01-.727.027c-.316 0-.552-.005-.73-.03-.18-.024-.287-.066-.356-.127-.067-.06-.112-.15-.139-.303a4.016 4.016 0 01-.033-.64c0-.28.005-.487.03-.64.024-.154.065-.237.122-.286.057-.05.149-.081.31-.09a4.92 4.92 0 01.666.037L11 2.25l-.01.1c.518.05.801.126.972.277.168.147.247.386.297.834zm8 0h0c.028.25.042.433.03.57-.011.134-.046.208-.102.257-.06.052-.161.09-.34.113a6.316 6.316 0 01-.727.027c-.316 0-.552-.005-.73-.03-.18-.024-.287-.066-.356-.127-.067-.06-.112-.15-.139-.303a4.027 4.027 0 01-.033-.64c0-.28.005-.487.03-.64.024-.154.065-.237.122-.286.057-.05.149-.081.31-.09a4.92 4.92 0 01.666.037L19 2.25l-.01.1c.518.05.801.126.972.277.168.147.247.386.297.834zm8 0h0c.028.25.042.433.03.57-.011.134-.046.208-.102.257-.06.052-.161.09-.34.113a6.316 6.316 0 01-.727.027c-.316 0-.552-.005-.73-.03-.18-.024-.287-.066-.356-.127-.067-.06-.112-.15-.139-.303a4.027 4.027 0 01-.033-.64c0-.28.005-.487.03-.64.024-.154.065-.237.122-.286.057-.05.149-.081.31-.09a4.92 4.92 0 01.666.037L27 2.25l-.01.1c.518.05.801.126.972.277.168.147.247.386.297.834zm3.429 0h0c.026.232.037.408.028.544-.01.135-.038.217-.082.27-.042.053-.11.092-.226.118a2.426 2.426 0 01-.49.035c-.502 0-.86-.185-1.053-.472-.192-.288-.232-.7-.052-1.184h0c.09-.24.24-.383.414-.452a.851.851 0 01.59.005c.415.143.806.555.87 1.136zM2.332 15.396l-.1.001h.1L2.23 5.793l14.667.102 14.67.102.1 9.606.101 9.602-14.667-.102-14.67-.102-.1-9.606zm14.712-1.43l.051-.086-.05.086c.546.325 1.042.667 1.4.957a3.9 3.9 0 01.418.383.943.943 0 01.106.135.27.27 0 01.022.043c.004.01.004.016.004.016l-.004.016a.27.27 0 01-.022.043.943.943 0 01-.106.136 3.9 3.9 0 01-.418.382c-.358.29-.854.632-1.4.957l.05.086-.05-.086-1.85 1.098v-5.264l1.85 1.098zM5.741 27.54h0a3.162 3.162 0 01-.03-.57c.011-.134.046-.208.102-.257.06-.052.161-.09.34-.113.176-.022.412-.027.727-.027.316 0 .552.005.73.03.18.024.287.066.356.127.067.06.112.15.139.303.027.155.033.36.033.64s-.005.488-.03.64c-.024.154-.065.237-.122.286-.057.05-.149.081-.31.09a4.917 4.917 0 01-.666-.038c-.518-.05-.801-.126-.972-.277-.168-.147-.247-.386-.297-.834zm6.518 0h0c-.05.448-.13.687-.297.834-.17.151-.454.226-.972.277-.29.03-.504.045-.665.037-.162-.008-.254-.039-.311-.089-.057-.05-.098-.132-.122-.285a4.413 4.413 0 01-.03-.64c0-.28.006-.486.033-.641.027-.154.072-.244.14-.303.068-.061.175-.103.354-.127.18-.025.415-.03.731-.03.315 0 .55.005.728.027.178.023.28.06.34.113.055.049.09.123.101.257.012.137-.002.32-.03.57zm1.482 0h0a3.157 3.157 0 01-.03-.57c.011-.134.046-.208.102-.257.06-.052.161-.09.34-.113.176-.022.412-.027.727-.027.316 0 .552.005.73.03.18.024.287.066.356.127.067.06.112.15.139.303.027.155.033.36.033.64s-.005.488-.03.64c-.024.154-.065.237-.122.286-.057.05-.149.081-.31.09a4.916 4.916 0 01-.666-.038c-.518-.05-.801-.126-.972-.277-.168-.147-.247-.386-.297-.834zm6.518 0h0c-.05.448-.13.687-.297.834-.17.151-.454.226-.972.277-.29.03-.503.045-.665.037-.162-.008-.254-.039-.311-.089-.057-.05-.098-.132-.122-.285a4.415 4.415 0 01-.03-.64c0-.28.006-.486.033-.641.027-.154.072-.244.14-.303.068-.061.175-.103.354-.127.18-.025.415-.03.731-.03.315 0 .55.005.728.027.178.023.28.06.34.113.055.049.09.123.101.257.012.137-.002.32-.03.57zm1.482 0h0a3.157 3.157 0 01-.03-.57c.011-.134.046-.208.102-.257.06-.052.161-.09.34-.113.176-.022.412-.027.727-.027.316 0 .552.005.73.03.18.024.287.066.356.127.067.06.112.15.139.303.027.155.033.36.033.64s-.005.488-.03.64c-.024.154-.065.237-.122.286-.057.05-.149.081-.31.09a4.916 4.916 0 01-.666-.038c-.518-.05-.801-.126-.972-.277-.168-.147-.247-.386-.297-.834zm6.518 0h0c-.05.448-.13.687-.297.834-.17.151-.454.226-.972.277-.29.03-.503.045-.665.037-.162-.008-.254-.039-.311-.089-.057-.05-.098-.132-.122-.285a4.415 4.415 0 01-.03-.64c0-.28.006-.486.033-.641.027-.154.072-.244.14-.303.068-.061.175-.103.354-.127.18-.025.415-.03.731-.03.315 0 .55.005.728.027.178.023.28.06.34.113.055.049.09.123.101.257.012.137-.002.32-.03.57zm3.429 0h0c-.065.581-.456.992-.871 1.136a.85.85 0 01-.59.005c-.174-.069-.324-.212-.414-.452h0c-.18-.484-.14-.896.052-1.184.192-.287.55-.472 1.053-.472.213 0 .371.01.49.035.117.026.184.065.226.118.044.053.073.135.082.27.009.136-.002.312-.028.544zM8.138 3.35c0 .271-.007.472-.034.623-.027.15-.072.237-.138.296-.069.06-.174.102-.349.127-.175.024-.405.03-.712.03a5.24 5.24 0 01-.677-.032c-.172-.023-.285-.061-.362-.114-.143-.098-.195-.273-.195-.668 0-.597.073-.912.27-1.09.098-.089.236-.152.436-.192.2-.04.456-.055.782-.055.235 0 .412.009.547.037a.48.48 0 01.273.132c.058.063.1.156.125.305.026.15.034.345.034.601zm8 0c0 .271-.007.472-.034.623-.027.15-.072.237-.138.296-.069.06-.174.102-.349.127-.175.024-.405.03-.712.03a5.24 5.24 0 01-.677-.032c-.172-.023-.285-.061-.362-.114-.143-.098-.195-.273-.195-.668 0-.597.073-.912.27-1.09.098-.089.236-.152.436-.192.2-.04.456-.055.782-.055.235 0 .412.009.547.037a.48.48 0 01.273.132c.058.063.1.156.125.305.026.15.034.345.034.601zm8 0c0 .271-.007.472-.034.623-.027.15-.072.237-.138.296-.069.06-.174.102-.349.127-.175.024-.405.03-.712.03a5.24 5.24 0 01-.677-.032c-.172-.023-.285-.061-.362-.114-.143-.098-.195-.273-.195-.668 0-.597.073-.912.27-1.09.098-.089.236-.152.436-.192.2-.04.456-.055.782-.055.235 0 .412.009.547.037a.48.48 0 01.273.132c.058.063.1.156.125.305.026.15.034.345.034.601z" fill="#D70000" stroke="#D70000" stroke-width=".2"/></svg><view id="questions_video_small" viewBox="133 140 31 29"/><svg width="31" height="29" fill="none" viewBox="-2 -2 31 29" x="133" y="140" xmlns="http://www.w3.org/2000/svg"><path fill-rule="evenodd" clip-rule="evenodd" d="M.1 12.83v12.117h26.741V.713H.102V12.83zM2.808 2.678c0 .65-.181.84-.876.922-.74.088-.875-.018-.875-.682 0-.987.276-1.276 1.1-1.154.457.067.65.34.65.914zm3.342 0c0 .905-.088.983-1.114.983-.955 0-1.114-.11-1.114-.765 0-.991.23-1.2 1.326-1.2.79 0 .902.122.902.982zm3.443.082c.094.833.017.9-1.034.9-1.055 0-1.135-.07-1.135-1.003 0-.934.07-.996 1.034-.9.862.085 1.052.253 1.135 1.003zm3.242-.082c0 .905-.088.983-1.114.983-.955 0-1.114-.11-1.114-.765 0-.991.23-1.2 1.326-1.2.79 0 .902.122.902.982zm3.444.082c.093.833.016.9-1.035.9-1.054 0-1.135-.07-1.135-1.003 0-.934.07-.996 1.034-.9.862.085 1.052.253 1.136 1.003zm3.242-.082c0 .905-.089.983-1.115.983-.955 0-1.114-.11-1.114-.765 0-.991.231-1.2 1.327-1.2.79 0 .902.122.902.982zm3.443.082c.093.833.016.9-1.035.9-1.054 0-1.135-.07-1.135-1.003 0-.934.07-.996 1.035-.9.862.085 1.051.253 1.135 1.003zm2.865 0c.087.778-.012.9-.726.9-.88 0-1.317-.651-1.002-1.496.33-.885 1.612-.443 1.728.596zm-.016 10.156l.086 8.11-12.342-.087-12.341-.085-.085-8.11-.086-8.109 12.342.086 12.341.086.085 8.109zM10.818 9.119c-.117.12-.212 1.819-.212 3.776 0 2.709.104 3.599.436 3.73.568.224 6.09-3.217 6.09-3.796 0-.427-5.053-3.854-5.757-3.904-.19-.014-.44.074-.557.194zm4.404 3.711c0 .199-.752.808-1.671 1.354l-1.672.993v-4.693l1.672.992c.919.546 1.671 1.155 1.671 1.354zM2.807 22.982c0 .655-.16.819-.796.819-.637 0-.817-.185-.9-.925-.093-.84-.021-.915.797-.819.719.085.899.27.899.925zm3.342.02c0 .936-.07.997-1.034.901-.863-.085-1.052-.252-1.136-1.003-.093-.833-.016-.9 1.035-.9 1.054 0 1.135.071 1.135 1.003zm3.443-.102c-.083.75-.273.918-1.135 1.003-.964.096-1.034.035-1.034-.9 0-.932.08-1.003 1.135-1.003 1.05 0 1.128.067 1.034.9zm3.242.103c0 .934-.07.996-1.034.9-.862-.085-1.052-.252-1.136-1.003-.093-.833-.016-.9 1.035-.9 1.055 0 1.135.071 1.135 1.003zm3.444-.103c-.084.75-.274.918-1.136 1.003-.964.096-1.034.035-1.034-.9 0-.932.08-1.003 1.135-1.003 1.05 0 1.128.067 1.035.9zm3.242.103c0 .934-.071.996-1.035.9-.862-.085-1.052-.252-1.135-1.003-.094-.833-.017-.9 1.034-.9 1.055 0 1.136.071 1.136 1.003zm3.443-.103c-.084.75-.273.918-1.135 1.003-.964.096-1.035.035-1.035-.9 0-.932.08-1.003 1.135-1.003 1.051 0 1.128.067 1.035.9zm2.865 0c-.116 1.039-1.398 1.48-1.728.596-.315-.845.121-1.496 1.002-1.496.714 0 .813.123.726.9z" fill="#8F8F8F"/></svg><view id="questions_video_small_hover" viewBox="319 129 31 29"/><svg width="31" height="29" fill="none" viewBox="-2 -2 31 29" x="319" y="129" xmlns="http://www.w3.org/2000/svg"><path fill-rule="evenodd" clip-rule="evenodd" d="M.1 12.83v12.117h26.741V.713H.102V12.83zM2.808 2.678c0 .65-.181.84-.876.922-.74.088-.875-.018-.875-.682 0-.987.276-1.276 1.1-1.154.457.067.65.34.65.914zm3.342 0c0 .905-.088.983-1.114.983-.955 0-1.114-.11-1.114-.765 0-.991.23-1.2 1.326-1.2.79 0 .902.122.902.982zm3.443.082c.094.833.017.9-1.034.9-1.055 0-1.135-.07-1.135-1.003 0-.934.07-.996 1.034-.9.862.085 1.052.253 1.135 1.003zm3.242-.082c0 .905-.088.983-1.114.983-.955 0-1.114-.11-1.114-.765 0-.991.23-1.2 1.326-1.2.79 0 .902.122.902.982zm3.444.082c.093.833.016.9-1.035.9-1.054 0-1.135-.07-1.135-1.003 0-.934.07-.996 1.034-.9.862.085 1.052.253 1.136 1.003zm3.242-.082c0 .905-.089.983-1.115.983-.955 0-1.114-.11-1.114-.765 0-.991.231-1.2 1.327-1.2.79 0 .902.122.902.982zm3.443.082c.093.833.016.9-1.035.9-1.054 0-1.135-.07-1.135-1.003 0-.934.07-.996 1.035-.9.862.085 1.051.253 1.135 1.003zm2.865 0c.087.778-.012.9-.726.9-.88 0-1.317-.651-1.002-1.496.33-.885 1.612-.443 1.728.596zm-.016 10.156l.086 8.11-12.342-.087-12.341-.085-.085-8.11-.086-8.109 12.342.086 12.341.086.085 8.109zM10.818 9.119c-.117.12-.212 1.819-.212 3.776 0 2.709.104 3.599.436 3.73.568.224 6.09-3.217 6.09-3.796 0-.427-5.053-3.854-5.757-3.904-.19-.014-.44.074-.557.194zm4.404 3.711c0 .199-.752.808-1.671 1.354l-1.672.993v-4.693l1.672.992c.919.546 1.671 1.155 1.671 1.354zM2.807 22.982c0 .655-.16.819-.796.819-.637 0-.817-.185-.9-.925-.093-.84-.021-.915.797-.819.719.085.899.27.899.925zm3.342.02c0 .936-.07.997-1.034.901-.863-.085-1.052-.252-1.136-1.003-.093-.833-.016-.9 1.035-.9 1.054 0 1.135.071 1.135 1.003zm3.443-.102c-.083.75-.273.918-1.135 1.003-.964.096-1.034.035-1.034-.9 0-.932.08-1.003 1.135-1.003 1.05 0 1.128.067 1.034.9zm3.242.103c0 .934-.07.996-1.034.9-.862-.085-1.052-.252-1.136-1.003-.093-.833-.016-.9 1.035-.9 1.055 0 1.135.071 1.135 1.003zm3.444-.103c-.084.75-.274.918-1.136 1.003-.964.096-1.034.035-1.034-.9 0-.932.08-1.003 1.135-1.003 1.05 0 1.128.067 1.035.9zm3.242.103c0 .934-.071.996-1.035.9-.862-.085-1.052-.252-1.135-1.003-.094-.833-.017-.9 1.034-.9 1.055 0 1.136.071 1.136 1.003zm3.443-.103c-.084.75-.273.918-1.135 1.003-.964.096-1.035.035-1.035-.9 0-.932.08-1.003 1.135-1.003 1.051 0 1.128.067 1.035.9zm2.865 0c-.116 1.039-1.398 1.48-1.728.596-.315-.845.121-1.496 1.002-1.496.714 0 .813.123.726.9z" fill="#D70000"/></svg><view id="video_circle" viewBox="214 202 23 23"/><svg width="23" height="23" fill="none" viewBox="-2 -2 23 23" x="214" y="202" xmlns="http://www.w3.org/2000/svg"><path d="M12 9.5l-3.75 2.165v-4.33L12 9.5z" fill="#D70000"/><circle cx="9.5" cy="9.5" r="9" stroke="#D70000"/></svg></svg>